{
.appVersion = "1287";
DisplayStrings = (
"narrower: \012IiLlj/t.ss01  (space)\012\012wider:\012ÆæMm/OE/oe Ww@&\012\012alternates: \012/AE.ss01/OE.ss01/a.ss01/ae.ss01/g.ss01/i.ss01/l.ss01/oe.ss01/t.ss01/zero.ss01",
"abcdefghijklmnobpqrstuvwxyz\012\012ABCDEFGHIJKLMNOPQRSTUVWXYZ\0120123457869\012",
"amazingly few discotheques provide jukeboxes\012\012AMAZINGLY FEW DISCOTHEQUES PROVIDE JUKEBOXES"
);
copyright = "Copyright 2020 The Trispace Project Authors (https://github.com/Etcetera-Type-Co/Trispace)";
customParameters = (
{
name = Axes;
value = (
{
Name = Weight;
Tag = wght;
},
{
Name = Width;
Tag = wdth;
}
);
},
{
name = "Enforce Compatibility Check";
value = 1;
},
{
name = "Variable Font Family Name";
value = "Trispace Variable";
},
{
name = "Family Alignment Zones";
value = (
"{1500, 32}",
"{1400, 14}",
"{1000, 26}",
"{0, -24}",
"{-400, -32}"
);
},
{
name = "Use Typo Metrics";
value = 1;
},
{
name = fsType;
value = (
);
},
{
name = licenseURL;
value = "http://scripts.sil.org/OFL";
},
{
name = license;
value = "This Font Software is licensed under the SIL Open Font License, Version 1.1. This license is available with a FAQ at: http://scripts.sil.org/OFL";
},
{
name = "GASP Table";
value = {
"20" = "7";
"65535" = "15";
"8" = "10";
};
},
{
name = vendorID;
value = ETCO;
},
{
name = "Use Line Breaks";
value = 1;
}
);
date = "2020-01-29 00:46:49 +0000";
designer = "Tyler Finck";
designerURL = "http://www.finck.co";
disablesNiceNames = 1;
familyName = Trispace;
featurePrefixes = (
{
automatic = 1;
code = "languagesystem DFLT dflt;

languagesystem latn dflt;
languagesystem latn AZE;
languagesystem latn CRT;
languagesystem latn KAZ;
languagesystem latn TAT;
languagesystem latn TRK;
languagesystem latn ROM;
languagesystem latn MOL;
";
name = Languagesystems;
}
);
features = (
{
automatic = 1;
code = "feature locl;
feature sups;
feature ordn;
feature salt;
feature ss01;
";
name = aalt;
},
{
automatic = 1;
code = "lookup ccmp_Other_1 {

glyphs = (
{
glyphname = A;
lastChange = "2020-01-04 19:46:21 +0000";
layers = (
{
anchors = (
{
name = bottom;
position = "{642, 0}";
},
{
name = ogonek;
position = "{998, 0}";
},
{
name = top;
position = "{642, 1400}";
}
);
layerId = "5521DC30-183F-421A-91F3-644B5E24AFE6";
paths = (
{
closed = 1;
nodes = (
"288 282 LINE",
"996 282 LINE",
"996 552 LINE",
"288 552 LINE"
);
},
{
closed = 1;
nodes = (
"1226 0 LINE",
"992 1400 LINE",
"292 1400 LINE",
"58 0 LINE",
"436 0 LINE",
"592 1130 LINE",
"692 1130 LINE",
"848 0 LINE"
);
}
);
width = 1300;
},
{
anchors = (
{
name = bottom;
position = "{652, 0}";
},
{
name = ogonek;
position = "{1091, 0}";
},
{
name = top;
position = "{652, 1400}";
}
);
layerId = "BE68D89F-AB3F-4BDF-B332-ED50D7C47704";
paths = (
{
closed = 1;
nodes = (
"330 408 LINE",
"974 408 LINE",
"974 472 LINE",
"330 472 LINE"
);
},
{
closed = 1;
nodes = (
"1128 0 LINE",
"776 1400 LINE",
"528 1400 LINE",
"176 0 LINE",
"246 0 LINE",
"586 1336 LINE",
"718 1336 LINE",
"1058 0 LINE"
);
}
);
width = 1300;
},
{
anchors = (
{
name = bottom;
position = "{450, 0}";
},
{
name = ogonek;
position = "{693, 0}";
},
{
name = top;
position = "{450, 1400}";
}
);
layerId = "2E286313-D5BF-4FB4-A4B7-BD9BC13B574E";
paths = (
{
closed = 1;
nodes = (
"258 336 LINE",
"642 336 LINE",
"642 400 LINE",
"258 400 LINE"
);
},
{
closed = 1;
nodes = (
"734 0 LINE",
"528 1400 LINE",
"372 1400 LINE",
"166 0 LINE",
"234 0 LINE",
"428 1336 LINE",
"472 1336 LINE",
"666 0 LINE"
);
}
);
width = 900;
},
{
anchors = (
{
name = bottom;
position = "{1070, 0}";
},
{
name = ogonek;
position = "{1834, 0}";
},
{
name = top;
position = "{1070, 1400}";
}
);
layerId = "E338D14E-1DA5-418D-88BC-8956EEA80AB9";
paths = (
{
closed = 1;
nodes = (
"512 448 LINE",
"1628 448 LINE",
"1608 512 LINE",
"532 512 LINE"
);
},
{
closed = 1;
nodes = (
"1894 0 LINE",
"1198 1400 LINE",
"942 1400 LINE",
"248 0 LINE",
"334 0 LINE",
"998 1336 LINE",
"1142 1336 LINE",
"1806 0 LINE"
);
}
);
width = 2200;
},
{
anchors = (
{
name = bottom;
position = "{430, 0}";
},
{
name = ogonek;
position = "{642, 0}";
},
{
name = top;
position = "{452, 1400}";
}
);
layerId = "5D8A6BC1-E275-4777-AF98-AB9B3DC0EDC1";
paths = (
{
closed = 1;
nodes = (
"218 240 LINE",
"682 240 LINE",
"682 508 LINE",
"218 508 LINE"
);
},
{
closed = 1;
nodes = (
"878 0 LINE",
"760 1400 LINE",
"140 1400 LINE",
"22 0 LINE",
"396 0 LINE",
"438 1130 LINE",
"462 1130 LINE",
"504 0 LINE"
);
}
);
width = 900;
},
{
anchors = (
{
name = bottom;
position = "{1026, 0}";
},
{
name = ogonek;
position = "{1656, 0}";
},
{
name = top;
position = "{1026, 1400}";
}
);
layerId = "16EBFD8D-F4C1-4BAA-8DD7-EBE82D779ED1";
paths = (
{
closed = 1;
nodes = (
"428 326 LINE",
"1624 326 LINE",
"1624 600 LINE",
"428 600 LINE"
);
},
{
closed = 1;
nodes = (
"1922 0 LINE",
"1396 1400 LINE",
"656 1400 LINE",
"130 0 LINE",
"526 0 LINE",
"940 1130 LINE",
"1112 1130 LINE",
"1526 0 LINE"
);
}
);
width = 2100;
}
);
leftKerningGroup = A;
rightKerningGroup = A;
unicode = 0041;
},
{
glyphname = AE;
lastChange = "2020-01-04 18:56:49 +0000";
layers = (
{
layerId = "5521DC30-183F-421A-91F3-644B5E24AFE6";
paths = (
{
closed = 1;
nodes = (
"1636 0 LINE",
"1636 270 LINE",
"1238 270 LINE",
"1238 554 LINE",
"1584 554 LINE",
"1584 822 LINE",
"1238 822 LINE",
"1238 1130 LINE",
"1636 1130 LINE",
"1636 1400 LINE",
"678 1400 LINE",
"644 1130 LINE",
"864 1130 LINE",
"864 0 LINE"
);
},
{
closed = 1;
nodes = (
"956 162 LINE",
"996 412 LINE",
"534 412 LINE",
"500 162 LINE"
);
},
{
closed = 1;
nodes = (
"484 0 LINE",
"944 1400 LINE",
"592 1400 LINE",
"80 0 LINE"
);
}
);
width = 1800;
},
{
layerId = "BE68D89F-AB3F-4BDF-B332-ED50D7C47704";
paths = (
{
closed = 1;
nodes = (
"1466 0 LINE",
"1466 64 LINE",
"904 64 LINE",
"904 656 LINE",
"1398 656 LINE",
"1398 720 LINE",
"904 720 LINE",
"904 1336 LINE",
"1466 1336 LINE",
"1466 1400 LINE",
"738 1400 LINE",
"704 1336 LINE",
"838 1336 LINE",
"838 0 LINE"
);
},
{
closed = 1;
nodes = (
"858 388 LINE",
"866 452 LINE",
"404 452 LINE",
"370 388 LINE"
);
},
{
closed = 1;
nodes = (
"256 0 LINE",
"764 1400 LINE",
"694 1400 LINE",
"186 0 LINE"
);
}
);
width = 1800;
},
{
layerId = "2E286313-D5BF-4FB4-A4B7-BD9BC13B574E";
paths = (
{
closed = 1;
nodes = (
"1122 0 LINE",
"1122 64 LINE",
"814 64 LINE",
"814 656 LINE",
"1102 656 LINE",
"1102 720 LINE",
"814 720 LINE",
"814 1336 LINE",
"1122 1336 LINE",
"1122 1400 LINE",
"616 1400 LINE",
"592 1336 LINE",
"744 1336 LINE",
"744 0 LINE"
);
},
{
closed = 1;
nodes = (
"784 348 LINE",
"792 412 LINE",
"394 412 LINE",
"368 348 LINE"
);
},
{
closed = 1;
nodes = (
"330 0 LINE",
"652 1400 LINE",
"578 1400 LINE",
"258 0 LINE"
);
}
);
width = 1400;
},
{
layerId = "E338D14E-1DA5-418D-88BC-8956EEA80AB9";
paths = (
{
closed = 1;
nodes = (
"2388 0 LINE",
"2388 64 LINE",
"1454 64 LINE",
"1454 656 LINE",
"2348 656 LINE",
"2348 720 LINE",
"1454 720 LINE",
"1454 1336 LINE",
"2388 1336 LINE",
"2388 1400 LINE",
"1074 1400 LINE",
"1016 1336 LINE",
"1384 1336 LINE",
"1384 0 LINE"
);
},
{
closed = 1;
nodes = (
"1406 410 LINE",
"1420 474 LINE",
"502 474 LINE",
"454 410 LINE"
);
},
{
closed = 1;
nodes = (
"206 0 LINE",
"1116 1400 LINE",
"1032 1400 LINE",
"124 0 LINE"
);
}
);
width = 2600;
},
{
layerId = "5D8A6BC1-E275-4777-AF98-AB9B3DC0EDC1";
paths = (
{
closed = 1;
nodes = (
"1286 0 LINE",
"1286 270 LINE",
"1094 270 LINE",
"1094 554 LINE",
"1296 554 LINE",
"1296 822 LINE",
"1094 822 LINE",
"1094 1130 LINE",
"1286 1130 LINE",
"1286 1400 LINE",
"612 1400 LINE",
"590 1130 LINE",
"718 1130 LINE",
"718 0 LINE"
);
},
{
closed = 1;
nodes = (
"796 276 LINE",
"796 526 LINE",
"454 526 LINE",
"424 276 LINE"
);
},
{
closed = 1;
nodes = (
"466 0 LINE",
"718 1400 LINE",
"368 1400 LINE",
"84 0 LINE"
);
}
);
width = 1400;
},
{
layerId = "16EBFD8D-F4C1-4BAA-8DD7-EBE82D779ED1";
paths = (
{
closed = 1;
nodes = (
"2506 0 LINE",
"2506 270 LINE",
"1696 270 LINE",
"1696 554 LINE",
"2330 554 LINE",
"2330 822 LINE",
"1696 822 LINE",
"1696 1130 LINE",
"2506 1130 LINE",
"2506 1400 LINE",
"1010 1400 LINE",
"922 1130 LINE",
"1326 1130 LINE",
"1326 0 LINE"
);
},
{
closed = 1;
nodes = (
"1404 244 LINE",
"1524 494 LINE",
"624 494 LINE",
"582 244 LINE"
);
},
{
closed = 1;
nodes = (
"500 0 LINE",
"1376 1400 LINE",
"990 1400 LINE",
"72 0 LINE"
);
}
);
width = 2600;
}
);
leftKerningGroup = A;
rightKerningGroup = E;
unicode = 00C6;
},
{
color = 4;
glyphname = AE.ss01;
lastChange = "2020-01-04 16:00:30 +0000";
layers = (
{
layerId = "5521DC30-183F-421A-91F3-644B5E24AFE6";
paths = (
{
closed = 1;
nodes = (
"1246 0 LINE",
"1246 270 LINE",
"970 270 LINE",
"970 554 LINE",
"1194 554 LINE",
"1194 822 LINE",
"970 822 LINE",
"970 1130 LINE",
"1246 1130 LINE",
"1246 1400 LINE",
"470 1400 LINE",
"436 1130 LINE",
"594 1130 LINE",
"594 0 LINE"
);
},
{
closed = 1;
nodes = (
"686 162 LINE",
"728 412 LINE",
"404 412 LINE",
"370 162 LINE"
);
},
{
closed = 1;
nodes = (
"356 0 LINE",
"674 1400 LINE",
"344 1400 LINE",
"-28 0 LINE"
);
}
);
width = 1300;
},
{
layerId = "BE68D89F-AB3F-4BDF-B332-ED50D7C47704";
paths = (
{
closed = 1;
nodes = (
"1162 0 LINE",
"1162 64 LINE",
"700 64 LINE",
"700 656 LINE",
"1054 656 LINE",
"1054 720 LINE",
"700 720 LINE",
"700 1336 LINE",
"1162 1336 LINE",
"1162 1400 LINE",
"534 1400 LINE",
"500 1336 LINE",
"634 1336 LINE",
"634 0 LINE"
);
},
{
closed = 1;
nodes = (
"654 388 LINE",
"662 452 LINE",
"304 452 LINE",
"270 388 LINE"
);
},
{
closed = 1;
nodes = (
"172 0 LINE",
"560 1400 LINE",
"490 1400 LINE",
"102 0 LINE"
);
}
);
width = 1300;
},
{
layerId = "2E286313-D5BF-4FB4-A4B7-BD9BC13B574E";
paths = (
{
closed = 1;
nodes = (
"862 0 LINE",
"862 64 LINE",
"594 64 LINE",
"594 656 LINE",
"842 656 LINE",
"842 720 LINE",
"594 720 LINE",
"594 1336 LINE",
"862 1336 LINE",
"862 1400 LINE",
"356 1400 LINE",
"332 1336 LINE",
"524 1336 LINE",
"524 0 LINE"
);
},
{
closed = 1;
nodes = (
"564 348 LINE",
"572 412 LINE",
"174 412 LINE",
"140 348 LINE"
);
},
{
closed = 1;
nodes = (
"110 0 LINE",
"392 1400 LINE",
"318 1400 LINE",
"38 0 LINE"
);
}
);
width = 900;
},
{
layerId = "E338D14E-1DA5-418D-88BC-8956EEA80AB9";
paths = (
{
closed = 1;
nodes = (
"2098 0 LINE",
"2098 64 LINE",
"1214 64 LINE",
"1214 656 LINE",
"1970 656 LINE",
"1970 720 LINE",
"1214 720 LINE",
"1214 1336 LINE",
"2098 1336 LINE",
"2098 1400 LINE",
"934 1400 LINE",
"876 1336 LINE",
"1144 1336 LINE",
"1144 0 LINE"
);
},
{
closed = 1;
nodes = (
"1174 488 LINE",
"1188 552 LINE",
"470 552 LINE",
"422 488 LINE"
);
},
{
closed = 1;
nodes = (
"226 0 LINE",
"976 1400 LINE",
"892 1400 LINE",
"144 0 LINE"
);
}
);
width = 2200;
},
{
layerId = "5D8A6BC1-E275-4777-AF98-AB9B3DC0EDC1";
paths = (
{
closed = 1;
nodes = (
"896 0 LINE",
"896 270 LINE",
"804 270 LINE",
"804 554 LINE",
"906 554 LINE",
"906 822 LINE",
"804 822 LINE",
"804 1130 LINE",
"896 1130 LINE",
"896 1400 LINE",
"302 1400 LINE",
"280 1130 LINE",
"428 1130 LINE",
"428 0 LINE"
);
},
{
closed = 1;
nodes = (
"526 116 LINE",
"566 346 LINE",
"324 346 LINE",
"294 116 LINE"
);
},
{
closed = 1;
nodes = (
"336 0 LINE",
"468 1400 LINE",
"158 1400 LINE",
"-46 0 LINE"
);
}
);
width = 900;
},
{
layerId = "16EBFD8D-F4C1-4BAA-8DD7-EBE82D779ED1";
paths = (
{
closed = 1;
nodes = (
"1946 0 LINE",
"1946 270 LINE",
"1302 270 LINE",
"1302 554 LINE",
"1770 554 LINE",
"1770 822 LINE",
"1302 822 LINE",
"1302 1130 LINE",
"1946 1130 LINE",
"1946 1400 LINE",
"806 1400 LINE",
"748 1130 LINE",
"926 1130 LINE",
"926 0 LINE"
);
},
{
closed = 1;
nodes = (
"1006 254 LINE",
"1052 544 LINE",
"564 544 LINE",
"522 254 LINE"
);
},
{
closed = 1;
nodes = (
"396 0 LINE",
"1086 1400 LINE",
"716 1400 LINE",
"8 0 LINE"
);
}
);
width = 2200;
}
);
leftKerningGroup = A;
rightKerningGroup = E;
},
{
glyphname = B;
lastChange = "2020-01-04 16:33:39 +0000";
layers = (
{
anchors = (
{
name = bottom;
position = "{600, 0}";
},
{
name = top;
position = "{600, 1400}";
}
);
layerId = "5521DC30-183F-421A-91F3-644B5E24AFE6";
paths = (
{
closed = 1;
nodes = (
"806 0 LINE SMOOTH",
"1044 0 OFFCURVE",
"1224 132 OFFCURVE",
"1224 400 CURVE SMOOTH",
"1224 632 OFFCURVE",
"1061 733 OFFCURVE",
"938 744 CURVE",
"1039 753 OFFCURVE",
"1174 845 OFFCURVE",
"1174 1058 CURVE SMOOTH",
"1174 1380 OFFCURVE",
"842 1400 OFFCURVE",
"674 1400 CURVE SMOOTH",
"144 1400 LINE",
"144 0 LINE"
);
},
{
closed = 1;
nodes = (
"518 588 LINE",
"662 588 LINE SMOOTH",
"776 588 OFFCURVE",
"848 570 OFFCURVE",
"848 428 CURVE SMOOTH",
"848 302 OFFCURVE",
"786 270 OFFCURVE",
"674 270 CURVE SMOOTH",
"518 270 LINE"
);
},
{
closed = 1;
nodes = (
"518 1130 LINE",
"622 1130 LINE SMOOTH",
"748 1130 OFFCURVE",
"812 1098 OFFCURVE",
"812 998 CURVE SMOOTH",
"812 888 OFFCURVE",
"742 856 OFFCURVE",
"622 856 CURVE SMOOTH",
"518 856 LINE"
);
}
);
width = 1300;
},
{
anchors = (
{
name = bottom;
position = "{600, 0}";
},
{
name = top;
position = "{600, 1400}";
}
);
layerId = "BE68D89F-AB3F-4BDF-B332-ED50D7C47704";
paths = (
{
closed = 1;
nodes = (
"730 0 LINE SMOOTH",
"968 0 OFFCURVE",
"1078 141 OFFCURVE",
"1078 390 CURVE SMOOTH",
"1078 622 OFFCURVE",
"954 718 OFFCURVE",
"868 738 CURVE",
"924 761 OFFCURVE",
"1028 864 OFFCURVE",
"1028 1058 CURVE SMOOTH",
"1028 1380 OFFCURVE",
"816 1400 OFFCURVE",
"648 1400 CURVE SMOOTH",
"280 1400 LINE",
"280 0 LINE"
);
},
{
closed = 1;
nodes = (
"346 690 LINE",
"776 690 LINE SMOOTH",
"890 690 OFFCURVE",
"1010 603 OFFCURVE",
"1010 390 CURVE SMOOTH",
"1010 165 OFFCURVE",
"906 64 OFFCURVE",
"736 64 CURVE SMOOTH",
"346 64 LINE"
);
},
{
closed = 1;
nodes = (
"346 1336 LINE",
"700 1336 LINE SMOOTH",
"816 1336 OFFCURVE",
"956 1286 OFFCURVE",
"956 1058 CURVE SMOOTH",
"956 870 OFFCURVE",
"856 754 OFFCURVE",
"736 754 CURVE SMOOTH",
"346 754 LINE"
);
}
);
width = 1300;
},
{
anchors = (
{
name = bottom;
position = "{388, 0}";
},
{
name = top;
position = "{388, 1400}";
}
);
layerId = "2E286313-D5BF-4FB4-A4B7-BD9BC13B574E";
paths = (
{
closed = 1;
nodes = (
"478 0 LINE SMOOTH",
"676 0 OFFCURVE",
"736 132 OFFCURVE",
"736 400 CURVE SMOOTH",
"736 613 OFFCURVE",
"643 718 OFFCURVE",
"572 738 CURVE",
"589 744 OFFCURVE",
"722 798 OFFCURVE",
"722 1058 CURVE SMOOTH",
"722 1340 OFFCURVE",
"620 1400 OFFCURVE",
"472 1400 CURVE SMOOTH",
"218 1400 LINE",
"218 0 LINE"
);
},
{
closed = 1;
nodes = (
"284 690 LINE",
"484 690 LINE SMOOTH",
"598 690 OFFCURVE",
"668 594 OFFCURVE",
"668 400 CURVE SMOOTH",
"668 156 OFFCURVE",
"614 64 OFFCURVE",
"484 64 CURVE SMOOTH",
"284 64 LINE"
);
},
{
closed = 1;
nodes = (
"284 1336 LINE",
"484 1336 LINE SMOOTH",
"580 1336 OFFCURVE",
"650 1286 OFFCURVE",
"650 1058 CURVE SMOOTH",
"650 870 OFFCURVE",
"564 754 OFFCURVE",
"444 754 CURVE SMOOTH",
"284 754 LINE"
);
}
);
width = 900;
},
{
anchors = (
{
name = bottom;
position = "{1030, 0}";
},
{
name = top;
position = "{1030, 1400}";
}
);
layerId = "E338D14E-1DA5-418D-88BC-8956EEA80AB9";
paths = (
{
closed = 1;
nodes = (
"1308 0 LINE SMOOTH",
"1724 0 OFFCURVE",
"1862 150 OFFCURVE",
"1862 400 CURVE SMOOTH",
"1862 619 OFFCURVE",
"1674 722 OFFCURVE",
"1532 738 CURVE",
"1626 770 OFFCURVE",
"1750 878 OFFCURVE",
"1750 1058 CURVE SMOOTH",
"1750 1360 OFFCURVE",
"1458 1400 OFFCURVE",
"1164 1400 CURVE SMOOTH",
"460 1400 LINE",
"460 0 LINE"
);
},
{
closed = 1;
nodes = (
"536 690 LINE",
"1388 690 LINE SMOOTH",
"1588 690 OFFCURVE",
"1784 614 OFFCURVE",
"1784 400 CURVE SMOOTH",
"1784 156 OFFCURVE",
"1616 64 OFFCURVE",
"1318 64 CURVE SMOOTH",
"536 64 LINE"
);
},
{
closed = 1;
nodes = (
"536 1336 LINE",
"1256 1336 LINE SMOOTH",
"1458 1336 OFFCURVE",
"1672 1286 OFFCURVE",
"1672 1058 CURVE SMOOTH",
"1672 870 OFFCURVE",
"1528 754 OFFCURVE",
"1318 754 CURVE SMOOTH",
"536 754 LINE"
);
}
);
width = 2200;
},
{
anchors = (
{
name = bottom;
position = "{344, 0}";
},
{
name = top;
position = "{344, 1400}";
}
);
layerId = "5D8A6BC1-E275-4777-AF98-AB9B3DC0EDC1";
paths = (
{
closed = 1;
nodes = (
"532 0 LINE SMOOTH",
"704 0 OFFCURVE",
"854 128 OFFCURVE",
"854 400 CURVE SMOOTH",
"854 631 OFFCURVE",
"722 732 OFFCURVE",
"622 744 CURVE",
"716 751 OFFCURVE",
"840 840 OFFCURVE",
"840 1058 CURVE SMOOTH",
"840 1368 OFFCURVE",
"574 1400 OFFCURVE",
"450 1400 CURVE SMOOTH",
"64 1400 LINE",
"64 0 LINE"
);
},
{
closed = 1;
nodes = (
"436 588 LINE",
"444 588 LINE SMOOTH",
"466 588 OFFCURVE",
"490 566 OFFCURVE",
"490 428 CURVE SMOOTH",
"490 302 OFFCURVE",
"461 270 OFFCURVE",
"445 270 CURVE SMOOTH",
"436 270 LINE"
);
},
{
closed = 1;
nodes = (
"436 1130 LINE",
"442 1130 LINE SMOOTH",
"450 1130 OFFCURVE",
"490 1098 OFFCURVE",
"490 998 CURVE SMOOTH",
"490 888 OFFCURVE",
"454 856 OFFCURVE",
"442 856 CURVE SMOOTH",
"436 856 LINE"
);
}
);
width = 900;
},
{
anchors = (
{
name = bottom;
position = "{1112, 0}";
},
{
name = top;
position = "{1112, 1400}";
}
);
layerId = "16EBFD8D-F4C1-4BAA-8DD7-EBE82D779ED1";
paths = (
{
closed = 1;
nodes = (
"1354 0 LINE SMOOTH",
"1724 0 OFFCURVE",
"1964 140 OFFCURVE",
"1964 400 CURVE SMOOTH",
"1964 634 OFFCURVE",
"1749 734 OFFCURVE",
"1580 743 CURVE",
"1695 756 OFFCURVE",
"1842 855 OFFCURVE",
"1842 1058 CURVE SMOOTH",
"1842 1384 OFFCURVE",
"1427 1400 OFFCURVE",
"1171 1400 CURVE SMOOTH",
"304 1400 LINE",
"304 0 LINE"
);
},
{
closed = 1;
nodes = (
"682 588 LINE",
"1285 588 LINE SMOOTH",
"1410 588 OFFCURVE",
"1564 578 OFFCURVE",
"1564 428 CURVE SMOOTH",
"1564 302 OFFCURVE",
"1450 270 OFFCURVE",
"1319 270 CURVE SMOOTH",
"682 270 LINE"
);
},
{
closed = 1;
nodes = (
"682 1130 LINE",
"1169 1130 LINE SMOOTH",
"1354 1130 OFFCURVE",
"1452 1098 OFFCURVE",
"1452 998 CURVE SMOOTH",
"1452 888 OFFCURVE",
"1328 856 OFFCURVE",
"1169 856 CURVE SMOOTH",
"682 856 LINE"
);
}
);
width = 2200;
}
);
leftKerningGroup = H;
rightKerningGroup = B;
unicode = 0042;
},
{
glyphname = C;
lastChange = "2020-01-29 00:53:16 +0000";
layers = (
{
anchors = (
{
name = bottom;
position = "{716, 0}";
},
{
name = top;
position = "{716, 1400}";
}
);
layerId = "5521DC30-183F-421A-91F3-644B5E24AFE6";
paths = (
{
closed = 1;
nodes = (
"917 514 LINE",
"890 401 OFFCURVE",
"837 252 OFFCURVE",
"719 252 CURVE SMOOTH",
"593 252 OFFCURVE",
"499 352 OFFCURVE",
"499 696 CURVE SMOOTH",
"499 1038 OFFCURVE",
"593 1138 OFFCURVE",
"719 1138 CURVE SMOOTH",
"837 1138 OFFCURVE",
"890 989 OFFCURVE",
"917 876 CURVE",
"1251 1048 LINE",
"1163 1292 OFFCURVE",
"959 1412 OFFCURVE",
"719 1412 CURVE SMOOTH",
"435 1412 OFFCURVE",
"119 1282 OFFCURVE",
"119 696 CURVE SMOOTH",
"119 110 OFFCURVE",
"435 -22 OFFCURVE",
"719 -22 CURVE SMOOTH",
"959 -22 OFFCURVE",
"1163 98 OFFCURVE",
"1251 342 CURVE"
);
}
);
width = 1300;
},
{
anchors = (
{
name = bottom;
position = "{698, 0}";
},
{
name = top;
position = "{698, 1400}";
}
);
layerId = "BE68D89F-AB3F-4BDF-B332-ED50D7C47704";
paths = (
{
closed = 1;
nodes = (
"1006 232 LINE",
"950 126 OFFCURVE",
"858 44 OFFCURVE",
"690 44 CURVE SMOOTH",
"458 44 OFFCURVE",
"292 250 OFFCURVE",
"292 696 CURVE SMOOTH",
"292 1142 OFFCURVE",
"466 1346 OFFCURVE",
"698 1346 CURVE SMOOTH",
"868 1346 OFFCURVE",
"942 1260 OFFCURVE",
"1006 1138 CURVE",
"1070 1170 LINE",
"996 1308 OFFCURVE",
"892 1412 OFFCURVE",
"696 1412 CURVE SMOOTH",
"410 1412 OFFCURVE",
"220 1186 OFFCURVE",
"220 696 CURVE SMOOTH",
"220 206 OFFCURVE",
"402 -22 OFFCURVE",
"688 -22 CURVE SMOOTH",
"892 -22 OFFCURVE",
"1008 76 OFFCURVE",
"1070 198 CURVE"
);
}
);
width = 1300;
},
{
anchors = (
{
name = bottom;
position = "{502, 0}";
},
{
name = top;
position = "{502, 1400}";
}
);
layerId = "2E286313-D5BF-4FB4-A4B7-BD9BC13B574E";
paths = (
{
closed = 1;
nodes = (
"690 272 LINE",
"667 198 OFFCURVE",
"618 44 OFFCURVE",
"494 44 CURVE SMOOTH",
"322 44 OFFCURVE",
"256 270 OFFCURVE",
"256 696 CURVE SMOOTH",
"256 1122 OFFCURVE",
"330 1346 OFFCURVE",
"502 1346 CURVE SMOOTH",
"626 1346 OFFCURVE",
"672 1170 OFFCURVE",
"690 1098 CURVE",
"754 1130 LINE",
"719 1237 OFFCURVE",
"660 1412 OFFCURVE",
"500 1412 CURVE SMOOTH",
"274 1412 OFFCURVE",
"186 1166 OFFCURVE",
"186 696 CURVE SMOOTH",
"186 226 OFFCURVE",
"266 -22 OFFCURVE",
"492 -22 CURVE SMOOTH",
"660 -22 OFFCURVE",
"719 138 OFFCURVE",
"754 238 CURVE"
);
}
);
width = 900;
},
{
anchors = (
{
name = bottom;
position = "{1176, 0}";
},
{
name = top;
position = "{1176, 1400}";
}
);
layerId = "E338D14E-1DA5-418D-88BC-8956EEA80AB9";
paths = (
{
closed = 1;
nodes = (
"1798 236 LINE",
"1680 130 OFFCURVE",
"1482 44 OFFCURVE",
"1176 44 CURVE SMOOTH",
"718 44 OFFCURVE",
"418 290 OFFCURVE",
"418 696 CURVE SMOOTH",
"418 1102 OFFCURVE",
"718 1346 OFFCURVE",
"1176 1346 CURVE SMOOTH",
"1482 1346 OFFCURVE",
"1680 1260 OFFCURVE",
"1798 1154 CURVE",
"1852 1206 LINE",
"1706 1326 OFFCURVE",
"1514 1412 OFFCURVE",
"1176 1412 CURVE SMOOTH",
"682 1412 OFFCURVE",
"340 1146 OFFCURVE",
"340 696 CURVE SMOOTH",
"340 246 OFFCURVE",
"682 -22 OFFCURVE",
"1176 -22 CURVE SMOOTH",
"1514 -22 OFFCURVE",
"1706 64 OFFCURVE",
"1852 184 CURVE"
);
}
);
width = 2200;
},
{
anchors = (
{
name = bottom;
position = "{468, 0}";
},
{
name = top;
position = "{468, 1400}";
}
);
layerId = "5D8A6BC1-E275-4777-AF98-AB9B3DC0EDC1";
paths = (
{
closed = 1;
nodes = (
"544 520 LINE",
"544 478 OFFCURVE",
"530 252 OFFCURVE",
"486 252 CURVE SMOOTH",
"448 252 OFFCURVE",
"424 350 OFFCURVE",
"424 696 CURVE SMOOTH",
"424 1040 OFFCURVE",
"444 1138 OFFCURVE",
"482 1138 CURVE SMOOTH",
"526 1138 OFFCURVE",
"544 918 OFFCURVE",
"544 884 CURVE",
"874 1022 LINE",
"852 1200 OFFCURVE",
"708 1412 OFFCURVE",
"478 1412 CURVE SMOOTH",
"278 1412 OFFCURVE",
"46 1284 OFFCURVE",
"46 696 CURVE SMOOTH",
"46 106 OFFCURVE",
"282 -22 OFFCURVE",
"482 -22 CURVE SMOOTH",
"708 -22 OFFCURVE",
"852 183 OFFCURVE",
"888 392 CURVE"
);
}
);
width = 900;
},
{
anchors = (
{
name = bottom;
position = "{1194, 0}";
},
{
name = top;
position = "{1194, 1400}";
}
);
layerId = "16EBFD8D-F4C1-4BAA-8DD7-EBE82D779ED1";
paths = (
{
closed = 1;
nodes = (
"1720 402 LINE",
"1653 338 OFFCURVE",
"1461 252 OFFCURVE",
"1182 252 CURVE SMOOTH",
"880 252 OFFCURVE",
"655 356 OFFCURVE",
"655 696 CURVE SMOOTH",
"655 1034 OFFCURVE",
"888 1138 OFFCURVE",
"1190 1138 CURVE SMOOTH",
"1469 1138 OFFCURVE",
"1656 1037 OFFCURVE",
"1720 960 CURVE",
"1992 1180 LINE",
"1885 1280 OFFCURVE",
"1596 1412 OFFCURVE",
"1198 1412 CURVE SMOOTH",
"766 1412 OFFCURVE",
"262 1278 OFFCURVE",
"262 696 CURVE SMOOTH",
"262 118 OFFCURVE",
"758 -22 OFFCURVE",
"1190 -22 CURVE SMOOTH",
"1594 -22 OFFCURVE",
"1869 83 OFFCURVE",
"1964 162 CURVE"
);
}
);
width = 2200;
}
);
leftKerningGroup = O;
rightKerningGroup = C;
unicode = 0043;
},
{
glyphname = D;
lastChange = "2020-01-04 16:33:54 +0000";
layers = (
{
anchors = (
{
name = bottom;
position = "{600, 0}";
},
{
name = center;
position = "{314, 700}";
},
{
name = top;
position = "{600, 1400}";
}
);
layerId = "5521DC30-183F-421A-91F3-644B5E24AFE6";
paths = (
{
closed = 1;
nodes = (
"130 1400 LINE",
"130 0 LINE",
"634 0 LINE SMOOTH",
"930 0 OFFCURVE",
"1236 80 OFFCURVE",
"1236 700 CURVE SMOOTH",
"1236 1320 OFFCURVE",
"930 1400 OFFCURVE",
"634 1400 CURVE SMOOTH"
);
},
{
closed = 1;
nodes = (
"504 270 LINE",
"504 1130 LINE",
"594 1130 LINE SMOOTH",
"812 1130 OFFCURVE",
"852 1012 OFFCURVE",
"852 700 CURVE SMOOTH",
"852 388 OFFCURVE",
"812 270 OFFCURVE",
"594 270 CURVE SMOOTH"
);
}
);
width = 1300;
},
{
anchors = (
{
name = bottom;
position = "{600, 0}";
},
{
name = center;
position = "{332, 700}";
},
{
name = top;
position = "{600, 1400}";
}
);
layerId = "BE68D89F-AB3F-4BDF-B332-ED50D7C47704";
paths = (
{
closed = 1;
nodes = (
"266 1400 LINE",
"266 0 LINE",
"630 0 LINE SMOOTH",
"900 0 OFFCURVE",
"1094 140 OFFCURVE",
"1094 700 CURVE SMOOTH",
"1094 1260 OFFCURVE",
"900 1400 OFFCURVE",
"630 1400 CURVE SMOOTH"
);
},
{
closed = 1;
nodes = (
"332 64 LINE",
"332 1336 LINE",
"626 1336 LINE SMOOTH",
"870 1336 OFFCURVE",
"1026 1192 OFFCURVE",
"1026 700 CURVE SMOOTH",
"1026 208 OFFCURVE",
"870 64 OFFCURVE",
"626 64 CURVE SMOOTH"
);
}
);
width = 1300;
},
{
anchors = (
{
name = bottom;
position = "{440, 0}";
},
{
name = center;
position = "{242, 700}";
},
{
name = top;
position = "{490, 1400}";
}
);
layerId = "2E286313-D5BF-4FB4-A4B7-BD9BC13B574E";
paths = (
{
closed = 1;
nodes = (
"256 1400 LINE",
"256 0 LINE",
"432 0 LINE SMOOTH",
"622 0 OFFCURVE",
"764 120 OFFCURVE",
"764 700 CURVE SMOOTH",
"764 1280 OFFCURVE",
"622 1400 OFFCURVE",
"432 1400 CURVE SMOOTH"
);
},
{
closed = 1;
nodes = (
"322 64 LINE",
"322 1336 LINE",
"416 1336 LINE SMOOTH",
"588 1336 OFFCURVE",
"694 1192 OFFCURVE",
"694 700 CURVE SMOOTH",
"694 208 OFFCURVE",
"588 64 OFFCURVE",
"416 64 CURVE SMOOTH"
);
}
);
width = 900;
},
{
anchors = (
{
name = bottom;
position = "{1030, 0}";
},
{
name = center;
position = "{562, 700}";
},
{
name = top;
position = "{1030, 1400}";
}
);
layerId = "E338D14E-1DA5-418D-88BC-8956EEA80AB9";
paths = (
{
closed = 1;
nodes = (
"440 1400 LINE",
"440 0 LINE",
"1070 0 LINE SMOOTH",
"1562 0 OFFCURVE",
"1864 180 OFFCURVE",
"1864 700 CURVE SMOOTH",
"1864 1220 OFFCURVE",
"1562 1400 OFFCURVE",
"1070 1400 CURVE SMOOTH"
);
},
{
closed = 1;
nodes = (
"516 64 LINE",
"516 1336 LINE",
"1100 1336 LINE SMOOTH",
"1528 1336 OFFCURVE",
"1788 1172 OFFCURVE",
"1788 700 CURVE SMOOTH",
"1788 228 OFFCURVE",
"1528 64 OFFCURVE",
"1100 64 CURVE SMOOTH"
);
}
);
width = 2200;
},
{
anchors = (
{
name = bottom;
position = "{402, 0}";
},
{
name = center;
position = "{202, 700}";
},
{
name = top;
position = "{424, 1400}";
}
);
layerId = "5D8A6BC1-E275-4777-AF98-AB9B3DC0EDC1";
paths = (
{
closed = 1;
nodes = (
"80 1400 LINE",
"80 0 LINE",
"458 0 LINE SMOOTH",
"678 0 OFFCURVE",
"884 100 OFFCURVE",
"884 700 CURVE SMOOTH",
"884 1300 OFFCURVE",
"678 1400 OFFCURVE",
"458 1400 CURVE SMOOTH"
);
},
{
closed = 1;
nodes = (
"454 270 LINE",
"454 1130 LINE",
"466 1130 LINE SMOOTH",
"488 1130 OFFCURVE",
"510 1012 OFFCURVE",
"510 700 CURVE SMOOTH",
"510 388 OFFCURVE",
"484 270 OFFCURVE",
"466 270 CURVE SMOOTH"
);
}
);
width = 900;
},
{
anchors = (
{
name = bottom;
position = "{996, 0}";
},
{
name = center;
position = "{538, 700}";
},
{
name = top;
position = "{952, 1400}";
}
);
layerId = "16EBFD8D-F4C1-4BAA-8DD7-EBE82D779ED1";
paths = (
{
closed = 1;
nodes = (
"230 1400 LINE",
"230 0 LINE",
"986 0 LINE SMOOTH",
"1434 0 OFFCURVE",
"1940 40 OFFCURVE",
"1940 700 CURVE SMOOTH",
"1940 1360 OFFCURVE",
"1434 1400 OFFCURVE",
"986 1400 CURVE SMOOTH"
);
},
{
closed = 1;
nodes = (
"604 270 LINE",
"604 1130 LINE",
"1017 1130 LINE SMOOTH",
"1366 1130 OFFCURVE",
"1536 1032 OFFCURVE",
"1536 700 CURVE SMOOTH",
"1536 368 OFFCURVE",
"1374 270 OFFCURVE",
"1017 270 CURVE SMOOTH"
);
}
);
width = 2200;
}
);
leftKerningGroup = H;
rightKerningGroup = O;
unicode = 0044;
},
{
glyphname = Eth;
lastChange = "2020-01-04 19:21:25 +0000";
layers = (
{
anchors = (
{
name = _center;
position = "{314, 700}";
}
);
components = (
{
alignment = -1;
name = D;
}
);
layerId = "5521DC30-183F-421A-91F3-644B5E24AFE6";
paths = (
{
closed = 1;
nodes = (
"664 580 LINE",
"664 820 LINE",
"3 820 LINE",
"3 580 LINE"
);
}
);
width = 1300;
},
{
anchors = (
{
name = _center;
position = "{332, 700}";
}
);
components = (
{
alignment = -1;
name = D;
}
);
layerId = "BE68D89F-AB3F-4BDF-B332-ED50D7C47704";
paths = (
{
closed = 1;
nodes = (
"634 668 LINE",
"634 732 LINE",
"34 732 LINE",
"34 668 LINE"
);
}
);
width = 1300;
},
{
anchors = (
{
name = _center;
position = "{296, 700}";
}
);
components = (
{
alignment = -1;
name = D;
transform = "{1, 0, 0, 1, 9, 0}";
}
);
layerId = "2E286313-D5BF-4FB4-A4B7-BD9BC13B574E";
paths = (
{
closed = 1;
nodes = (
"512 668 LINE",
"512 732 LINE",
"165 732 LINE",
"165 668 LINE"
);
}
);
width = 900;
},
{
anchors = (
{
name = _center;
position = "{562, 700}";
}
);
components = (
{
alignment = -1;
name = D;
}
);
layerId = "E338D14E-1DA5-418D-88BC-8956EEA80AB9";
paths = (
{
closed = 1;
nodes = (
"1028 668 LINE",
"1028 732 LINE",
"96 732 LINE",
"96 668 LINE"
);
}
);
width = 2200;
},
{
anchors = (
{
name = _center;
position = "{246, 700}";
}
);
components = (
{
alignment = -1;
name = D;
transform = "{1, 0, 0, 1, 66, 0}";
}
);
layerId = "5D8A6BC1-E275-4777-AF98-AB9B3DC0EDC1";
paths = (
{
closed = 1;
nodes = (
"552 580 LINE",
"552 820 LINE",
"20 820 LINE",
"20 580 LINE"
);
}
);
width = 900;
},
{
anchors = (
{
name = _center;
position = "{616, 700}";
}
);
components = (
{
alignment = -1;
name = D;
transform = "{1, 0, 0, 1, 34, 0}";
}
);
layerId = "16EBFD8D-F4C1-4BAA-8DD7-EBE82D779ED1";
paths = (
{
closed = 1;
nodes = (
"1134 580 LINE",
"1134 820 LINE",
"98 820 LINE",
"98 580 LINE"
);
}
);
width = 2200;
}
);
leftKerningGroup = H;
rightKerningGroup = O;
unicode = 00D0;
},
{
glyphname = E;
lastChange = "2020-01-29 00:51:00 +0000";
layers = (
{
anchors = (
{
name = bottom;
position = "{670, 0}";
},
{
name = ogonek;
position = "{942, 0}";
},
{
name = top;
position = "{670, 1400}";
},
{
name = topleft;
position = "{70, 1400}";
}
);
layerId = "5521DC30-183F-421A-91F3-644B5E24AFE6";
paths = (
{
closed = 1;
nodes = (
"1140 1400 LINE",
"172 1400 LINE",
"172 0 LINE",
"1140 0 LINE",
"1140 270 LINE",
"546 270 LINE",
"546 554 LINE",
"1072 554 LINE",
"1072 822 LINE",
"546 822 LINE",
"546 1130 LINE",
"1140 1130 LINE"
);
}
);
width = 1300;
},
{
anchors = (
{
name = bottom;
position = "{670, 0}";
},
{
name = ogonek;
position = "{886, 0}";
},
{
name = top;
position = "{670, 1400}";
},
{
name = topleft;
position = "{70, 1400}";
}
);
layerId = "BE68D89F-AB3F-4BDF-B332-ED50D7C47704";
paths = (
{
closed = 1;
nodes = (
"1046 1400 LINE",
"278 1400 LINE",
"278 0 LINE",
"1046 0 LINE",
"1046 64 LINE",
"344 64 LINE",
"344 656 LINE",
"958 656 LINE",
"958 720 LINE",
"344 720 LINE",
"344 1336 LINE",
"1046 1336 LINE"
);
}
);
width = 1300;
},
{
anchors = (
{
name = bottom;
position = "{438, 0}";
},
{
name = ogonek;
position = "{586, 0}";
},
{
name = top;
position = "{458, 1400}";
},
{
name = topleft;
position = "{148, 1400}";
}
);
layerId = "2E286313-D5BF-4FB4-A4B7-BD9BC13B574E";
paths = (
{
closed = 1;
nodes = (
"686 1400 LINE",
"216 1400 LINE",
"216 0 LINE",
"686 0 LINE",
"686 64 LINE",
"282 64 LINE",
"282 656 LINE",
"656 656 LINE",
"656 720 LINE",
"282 720 LINE",
"282 1336 LINE",
"686 1336 LINE"
);
}
);
width = 900;
},
{
anchors = (
{
name = bottom;
position = "{1120, 0}";
},
{
name = ogonek;
position = "{1498, 0}";
},
{
name = top;
position = "{1120, 1400}";
},
{
name = topleft;
position = "{70, 1400}";
}
);
layerId = "E338D14E-1DA5-418D-88BC-8956EEA80AB9";
paths = (
{
closed = 1;
nodes = (
"1780 1400 LINE",
"424 1400 LINE",
"424 0 LINE",
"1780 0 LINE",
"1780 64 LINE",
"500 64 LINE",
"500 656 LINE",
"1710 656 LINE",
"1710 720 LINE",
"500 720 LINE",
"500 1336 LINE",
"1780 1336 LINE"
);
}
);
width = 2200;
},
{
anchors = (
{
name = bottom;
position = "{468, 0}";
},
{
name = ogonek;
position = "{696, 0}";
},
{
name = top;
position = "{476, 1400}";
},
{
name = topleft;
position = "{108, 1400}";
}
);
layerId = "5D8A6BC1-E275-4777-AF98-AB9B3DC0EDC1";
paths = (
{
closed = 1;
nodes = (
"758 1400 LINE",
"130 1400 LINE",
"130 0 LINE",
"758 0 LINE",
"758 270 LINE",
"502 270 LINE",
"502 554 LINE",
"724 554 LINE",
"724 822 LINE",
"502 822 LINE",
"502 1130 LINE",
"758 1130 LINE"
);
}
);
width = 900;
},
{
anchors = (
{
name = bottom;
position = "{1094, 0}";
},
{
name = ogonek;
position = "{1424, 0}";
},
{
name = top;
position = "{1078, 1400}";
},
{
name = topleft;
position = "{-16, 1400}";
}
);
layerId = "16EBFD8D-F4C1-4BAA-8DD7-EBE82D779ED1";
paths = (
{
closed = 1;
nodes = (
"1894 1400 LINE",
"246 1400 LINE",
"246 0 LINE",
"1894 0 LINE",
"1894 270 LINE",
"624 270 LINE",
"624 554 LINE",
"1758 554 LINE",
"1758 822 LINE",
"624 822 LINE",
"624 1130 LINE",
"1894 1130 LINE"
);
}
);
width = 2200;
}
);
leftKerningGroup = H;
rightKerningGroup = E;
unicode = 0045;
},
{
glyphname = F;
lastChange = "2020-01-04 16:00:56 +0000";
layers = (
{
anchors = (
{
name = bottom;
position = "{638, 0}";
},
{
name = top;
position = "{638, 1400}";
}
);
layerId = "5521DC30-183F-421A-91F3-644B5E24AFE6";
paths = (
{
closed = 1;
nodes = (
"1156 1400 LINE",
"254 1400 LINE",
"254 0 LINE",
"628 0 LINE",
"628 540 LINE",
"1098 540 LINE",
"1098 810 LINE",
"628 810 LINE",
"628 1130 LINE",
"1156 1130 LINE"
);
}
);
width = 1300;
},
{
anchors = (
{
name = bottom;
position = "{640, 0}";
},
{
name = top;
position = "{640, 1400}";
}
);
layerId = "BE68D89F-AB3F-4BDF-B332-ED50D7C47704";
paths = (
{
closed = 1;
nodes = (
"1090 1400 LINE",
"322 1400 LINE",
"322 0 LINE",
"388 0 LINE",
"388 656 LINE",
"1030 656 LINE",
"1030 720 LINE",
"388 720 LINE",
"388 1336 LINE",
"1090 1336 LINE"
);
}
);
width = 1300;
},
{
anchors = (
{
name = bottom;
position = "{500, 0}";
},
{
name = top;
position = "{500, 1400}";
}
);
layerId = "2E286313-D5BF-4FB4-A4B7-BD9BC13B574E";
paths = (
{
closed = 1;
nodes = (
"756 1400 LINE",
"302 1400 LINE",
"302 0 LINE",
"368 0 LINE",
"368 656 LINE",
"740 656 LINE",
"740 720 LINE",
"368 720 LINE",
"368 1336 LINE",
"756 1336 LINE"
);
}
);
width = 900;
},
{
anchors = (
{
name = bottom;
position = "{1090, 0}";
},
{
name = top;
position = "{1090, 1400}";
}
);
layerId = "E338D14E-1DA5-418D-88BC-8956EEA80AB9";
paths = (
{
closed = 1;
nodes = (
"1918 1400 LINE",
"562 1400 LINE",
"562 0 LINE",
"638 0 LINE",
"638 656 LINE",
"1878 656 LINE",
"1878 720 LINE",
"638 720 LINE",
"638 1336 LINE",
"1918 1336 LINE"
);
}
);
width = 2200;
},
{
anchors = (
{
name = bottom;
position = "{472, 0}";
},
{
name = top;
position = "{472, 1400}";
}
);
layerId = "5D8A6BC1-E275-4777-AF98-AB9B3DC0EDC1";
paths = (
{
closed = 1;
nodes = (
"810 1400 LINE",
"184 1400 LINE",
"184 0 LINE",
"558 0 LINE",
"558 540 LINE",
"790 540 LINE",
"790 810 LINE",
"558 810 LINE",
"558 1130 LINE",
"810 1130 LINE"
);
}
);
width = 900;
},
{
anchors = (
{
name = bottom;
position = "{970, 0}";
},
{
name = top;
position = "{970, 1400}";
}
);
layerId = "16EBFD8D-F4C1-4BAA-8DD7-EBE82D779ED1";
paths = (
{
closed = 1;
nodes = (
"1848 1400 LINE",
"394 1400 LINE",
"394 0 LINE",
"768 0 LINE",
"768 540 LINE",
"1714 540 LINE",
"1714 810 LINE",
"768 810 LINE",
"768 1130 LINE",
"1848 1130 LINE"
);
}
);
width = 2200;
}
);
leftKerningGroup = H;
rightKerningGroup = F;
unicode = 0046;
},
{
glyphname = G;
lastChange = "2020-01-04 19:47:17 +0000";
layers = (
{
anchors = (
{
name = bottom;
position = "{650, 0}";
},
{
name = top;
position = "{650, 1400}";
}
);
layerId = "5521DC30-183F-421A-91F3-644B5E24AFE6";
paths = (
{
closed = 1;
nodes = (
"668 540 LINE",
"852 540 LINE",
"852 383 OFFCURVE",
"796 252 OFFCURVE",
"666 252 CURVE SMOOTH",
"530 252 OFFCURVE",
"442 372 OFFCURVE",
"442 696 CURVE SMOOTH",
"442 1020 OFFCURVE",
"530 1138 OFFCURVE",
"650 1138 CURVE SMOOTH",
"752 1138 OFFCURVE",
"812 1020 OFFCURVE",
"838 916 CURVE",
"1174 1054 LINE",
"1080 1329 OFFCURVE",
"888 1412 OFFCURVE",
"658 1412 CURVE SMOOTH",
"322 1412 OFFCURVE",
"70 1230 OFFCURVE",
"70 696 CURVE SMOOTH",
"70 160 OFFCURVE",
"326 -22 OFFCURVE",
"662 -22 CURVE SMOOTH",
"984 -22 OFFCURVE",
"1204 212 OFFCURVE",
"1204 608 CURVE SMOOTH",
"1204 816 LINE",
"668 816 LINE"
);
}
);
width = 1300;
},
{
anchors = (
{
name = bottom;
position = "{650, 0}";
},
{
name = top;
position = "{650, 1400}";
}
);
layerId = "BE68D89F-AB3F-4BDF-B332-ED50D7C47704";
paths = (
{
closed = 1;
nodes = (
"652 656 LINE",
"1002 656 LINE",
"1002 180 OFFCURVE",
"834 44 OFFCURVE",
"634 44 CURVE SMOOTH",
"390 44 OFFCURVE",
"240 250 OFFCURVE",
"240 696 CURVE SMOOTH",
"240 1142 OFFCURVE",
"390 1346 OFFCURVE",
"644 1346 CURVE SMOOTH",
"816 1346 OFFCURVE",
"912 1260 OFFCURVE",
"968 1156 CURVE",
"1034 1194 LINE",
"974 1303 OFFCURVE",
"848 1412 OFFCURVE",
"644 1412 CURVE SMOOTH",
"410 1412 OFFCURVE",
"170 1270 OFFCURVE",
"170 696 CURVE SMOOTH",
"170 120 OFFCURVE",
"400 -22 OFFCURVE",
"634 -22 CURVE SMOOTH",
"942 -22 OFFCURVE",
"1068 250 OFFCURVE",
"1068 656 CURVE SMOOTH",
"1068 720 LINE",
"652 720 LINE"
);
}
);
width = 1300;
},
{
anchors = (
{
name = bottom;
position = "{450, 0}";
},
{
name = top;
position = "{450, 1400}";
}
);
layerId = "2E286313-D5BF-4FB4-A4B7-BD9BC13B574E";
paths = (
{
closed = 1;
nodes = (
"474 656 LINE",
"682 656 LINE",
"682 180 OFFCURVE",
"610 44 OFFCURVE",
"460 44 CURVE SMOOTH",
"286 44 OFFCURVE",
"220 250 OFFCURVE",
"220 696 CURVE SMOOTH",
"220 1142 OFFCURVE",
"304 1346 OFFCURVE",
"458 1346 CURVE SMOOTH",
"598 1346 OFFCURVE",
"643 1220 OFFCURVE",
"666 1126 CURVE",
"716 1164 LINE",
"689 1272 OFFCURVE",
"622 1412 OFFCURVE",
"458 1412 CURVE SMOOTH",
"276 1412 OFFCURVE",
"152 1220 OFFCURVE",
"152 696 CURVE SMOOTH",
"152 170 OFFCURVE",
"264 -22 OFFCURVE",
"460 -22 CURVE SMOOTH",
"690 -22 OFFCURVE",
"750 250 OFFCURVE",
"750 656 CURVE SMOOTH",
"750 720 LINE",
"474 720 LINE"
);
}
);
width = 900;
},
{
anchors = (
{
name = bottom;
position = "{1100, 0}";
},
{
name = top;
position = "{1100, 1400}";
}
);
layerId = "E338D14E-1DA5-418D-88BC-8956EEA80AB9";
paths = (
{
closed = 1;
nodes = (
"1102 656 LINE",
"1782 656 LINE",
"1782 180 OFFCURVE",
"1442 42 OFFCURVE",
"1110 42 CURVE SMOOTH",
"750 42 OFFCURVE",
"376 186 OFFCURVE",
"376 696 CURVE SMOOTH",
"376 1192 OFFCURVE",
"750 1348 OFFCURVE",
"1128 1348 CURVE SMOOTH",
"1426 1348 OFFCURVE",
"1642 1242 OFFCURVE",
"1740 1138 CURVE",
"1796 1186 LINE",
"1696 1294 OFFCURVE",
"1478 1412 OFFCURVE",
"1128 1412 CURVE SMOOTH",
"748 1412 OFFCURVE",
"298 1270 OFFCURVE",
"298 696 CURVE SMOOTH",
"298 120 OFFCURVE",
"732 -22 OFFCURVE",
"1110 -22 CURVE SMOOTH",
"1448 -22 OFFCURVE",
"1854 130 OFFCURVE",
"1854 656 CURVE SMOOTH",
"1854 720 LINE",
"1102 720 LINE"
);
}
);
width = 2200;
},
{
anchors = (
{
name = bottom;
position = "{450, 0}";
},
{
name = top;
position = "{450, 1400}";
}
);
layerId = "5D8A6BC1-E275-4777-AF98-AB9B3DC0EDC1";
paths = (
{
closed = 1;
nodes = (
"466 540 LINE",
"530 540 LINE",
"530 380 OFFCURVE",
"522 252 OFFCURVE",
"472 252 CURVE SMOOTH",
"416 252 OFFCURVE",
"408 328 OFFCURVE",
"408 696 CURVE SMOOTH",
"408 1048 OFFCURVE",
"424 1138 OFFCURVE",
"460 1138 CURVE SMOOTH",
"496 1138 OFFCURVE",
"514 987 OFFCURVE",
"518 922 CURVE",
"850 1074 LINE",
"805 1302 OFFCURVE",
"632 1412 OFFCURVE",
"460 1412 CURVE SMOOTH",
"200 1412 OFFCURVE",
"38 1230 OFFCURVE",
"38 696 CURVE SMOOTH",
"38 160 OFFCURVE",
"200 -22 OFFCURVE",
"472 -22 CURVE SMOOTH",
"752 -22 OFFCURVE",
"862 246 OFFCURVE",
"862 608 CURVE SMOOTH",
"862 816 LINE",
"466 816 LINE"
);
}
);
width = 900;
},
{
anchors = (
{
name = bottom;
position = "{1100, 0}";
},
{
name = top;
position = "{1100, 1400}";
}
);
layerId = "16EBFD8D-F4C1-4BAA-8DD7-EBE82D779ED1";
paths = (
{
closed = 1;
nodes = (
"1035 540 LINE",
"1526 540 LINE",
"1496 380 OFFCURVE",
"1320 252 OFFCURVE",
"1030 252 CURVE SMOOTH",
"802 252 OFFCURVE",
"525 348 OFFCURVE",
"525 696 CURVE SMOOTH",
"525 1044 OFFCURVE",
"812 1138 OFFCURVE",
"1040 1138 CURVE SMOOTH",
"1282 1138 OFFCURVE",
"1455 1056 OFFCURVE",
"1518 994 CURVE",
"1821 1215 LINE",
"1700 1300 OFFCURVE",
"1418 1412 OFFCURVE",
"1054 1412 CURVE SMOOTH",
"576 1412 OFFCURVE",
"134 1196 OFFCURVE",
"134 696 CURVE SMOOTH",
"134 196 OFFCURVE",
"575 -22 OFFCURVE",
"1054 -22 CURVE SMOOTH",
"1460 -22 OFFCURVE",
"1888 184 OFFCURVE",
"1888 648 CURVE SMOOTH",
"1888 808 LINE",
"1035 808 LINE"
);
}
);
width = 2200;
}
);
leftKerningGroup = O;
rightKerningGroup = G;
unicode = 0047;
},
{
glyphname = H;
lastChange = "2020-01-04 16:01:00 +0000";
layers = (
{
anchors = (
{
name = bottom;
position = "{620, 0}";
},
{
name = center;
position = "{620, 1084}";
},
{
name = top;
position = "{620, 1400}";
},
{
name = topleft;
position = "{60, 1400}";
}
);
layerId = "5521DC30-183F-421A-91F3-644B5E24AFE6";
paths = (
{
closed = 1;
nodes = (
"800 862 LINE",
"462 862 LINE",
"462 1400 LINE",
"88 1400 LINE",
"88 0 LINE",
"462 0 LINE",
"462 594 LINE",
"800 594 LINE",
"800 0 LINE",
"1174 0 LINE",
"1174 1400 LINE",
"800 1400 LINE"
);
}
);
width = 1300;
},
{
anchors = (
{
name = bottom;
position = "{620, 0}";
},
{
name = center;
position = "{620, 1114}";
},
{
name = top;
position = "{620, 1400}";
},
{
name = topleft;
position = "{60, 1400}";
}
);
layerId = "BE68D89F-AB3F-4BDF-B332-ED50D7C47704";
paths = (
{
closed = 1;
nodes = (
"906 760 LINE",
"340 760 LINE",
"340 1400 LINE",
"274 1400 LINE",
"274 0 LINE",
"340 0 LINE",
"340 696 LINE",
"906 696 LINE",
"906 0 LINE",
"972 0 LINE",
"972 1400 LINE",
"906 1400 LINE"
);
}
);
width = 1300;
},
{
anchors = (
{
name = bottom;
position = "{452, 0}";
},
{
name = center;
position = "{452, 1062}";
},
{
name = top;
position = "{452, 1400}";
},
{
name = topleft;
position = "{12, 1400}";
}
);
layerId = "2E286313-D5BF-4FB4-A4B7-BD9BC13B574E";
paths = (
{
closed = 1;
nodes = (
"656 760 LINE",
"246 760 LINE",
"246 1400 LINE",
"180 1400 LINE",
"180 0 LINE",
"246 0 LINE",
"246 696 LINE",
"656 696 LINE",
"656 0 LINE",
"722 0 LINE",
"722 1400 LINE",
"656 1400 LINE"
);
}
);
width = 900;
},
{
anchors = (
{
name = bottom;
position = "{1050, 0}";
},
{
name = center;
position = "{1050, 1132}";
},
{
name = top;
position = "{1050, 1400}";
},
{
name = topleft;
position = "{70, 1400}";
}
);
layerId = "E338D14E-1DA5-418D-88BC-8956EEA80AB9";
paths = (
{
closed = 1;
nodes = (
"1708 760 LINE",
"450 760 LINE",
"450 1400 LINE",
"374 1400 LINE",
"374 0 LINE",
"450 0 LINE",
"450 696 LINE",
"1708 696 LINE",
"1708 0 LINE",
"1784 0 LINE",
"1784 1400 LINE",
"1708 1400 LINE"
);
}
);
width = 2200;
},
{
anchors = (
{
name = bottom;
position = "{458, 0}";
},
{
name = center;
position = "{458, 1056}";
},
{
name = top;
position = "{458, 1400}";
},
{
name = topleft;
position = "{68, 1400}";
}
);
layerId = "5D8A6BC1-E275-4777-AF98-AB9B3DC0EDC1";
paths = (
{
closed = 1;
nodes = (
"478 862 LINE",
"422 862 LINE",
"422 1400 LINE",
"48 1400 LINE",
"48 0 LINE",
"422 0 LINE",
"422 594 LINE",
"478 594 LINE",
"478 0 LINE",
"852 0 LINE",
"852 1400 LINE",
"478 1400 LINE"
);
}
);
width = 900;
},
{
anchors = (
{
name = bottom;
position = "{944, 0}";
},
{
name = center;
position = "{944, 1140}";
},
{
name = top;
position = "{944, 1400}";
},
{
name = topleft;
position = "{44, 1400}";
}
);
layerId = "16EBFD8D-F4C1-4BAA-8DD7-EBE82D779ED1";
paths = (
{
closed = 1;
nodes = (
"1444 862 LINE",
"542 862 LINE",
"542 1400 LINE",
"168 1400 LINE",
"168 0 LINE",
"542 0 LINE",
"542 594 LINE",
"1444 594 LINE",
"1444 0 LINE",
"1818 0 LINE",
"1818 1400 LINE",
"1444 1400 LINE"
);
}
);
width = 2200;
}
);
leftKerningGroup = H;
rightKerningGroup = H;
unicode = 0048;
},
{
glyphname = Hbar;
lastChange = "2020-01-04 20:04:21 +0000";
layers = (
{
anchors = (
{
name = _center;
position = "{620, 1084}";
}
);
components = (
{
name = H;
}
);
layerId = "5521DC30-183F-421A-91F3-644B5E24AFE6";
paths = (
{
closed = 1;
nodes = (
"12 964 LINE",
"1228 964 LINE",
"1228 1202 LINE",
"12 1202 LINE"
);
}
);
width = 1300;
},
{
anchors = (
{
name = _center;
position = "{620, 1114}";
}
);
components = (
{
name = H;
}
);
layerId = "BE68D89F-AB3F-4BDF-B332-ED50D7C47704";
paths = (
{
closed = 1;
nodes = (
"178 1082 LINE",
"1062 1082 LINE",
"1062 1146 LINE",
"178 1146 LINE"
);
}
);
width = 1300;
},
{
anchors = (
{
name = _center;
position = "{450, 1062}";
}
);
components = (
{
name = H;
}
);
layerId = "2E286313-D5BF-4FB4-A4B7-BD9BC13B574E";
paths = (
{
closed = 1;
nodes = (
"146 1030 LINE",
"754 1030 LINE",
"754 1094 LINE",
"146 1094 LINE"
);
}
);
width = 900;
},
{
anchors = (
{
name = _center;
position = "{1050, 1132}";
}
);
components = (
{
name = H;
}
);
layerId = "E338D14E-1DA5-418D-88BC-8956EEA80AB9";
paths = (
{
closed = 1;
nodes = (
"241 1100 LINE",
"1917 1100 LINE",
"1917 1164 LINE",
"241 1164 LINE"
);
}
);
width = 2200;
},
{
anchors = (
{
name = _center;
position = "{472, 1056}";
}
);
components = (
{
name = H;
}
);
layerId = "5D8A6BC1-E275-4777-AF98-AB9B3DC0EDC1";
paths = (
{
closed = 1;
nodes = (
"16 936 LINE",
"888 936 LINE",
"888 1174 LINE",
"16 1174 LINE"
);
}
);
width = 900;
},
{
anchors = (
{
name = _center;
position = "{1072, 1140}";
}
);
components = (
{
alignment = -1;
name = H;
transform = "{1, 0, 0, 1, 92, 0}";
}
);
layerId = "16EBFD8D-F4C1-4BAA-8DD7-EBE82D779ED1";
paths = (
{
closed = 1;
nodes = (
"134 1020 LINE",
"2038 1020 LINE",
"2038 1258 LINE",
"134 1258 LINE"
);
}
);
width = 2200;
}
);
leftKerningGroup = H;
widthMetricsKey = H;
rightKerningGroup = H;
unicode = 0126;
},
{
glyphname = I;
lastChange = "2020-01-04 19:48:31 +0000";
layers = (
{
anchors = (
{
name = bottom;
position = "{502, 0}";
},
{
name = ogonek;
position = "{498, 0}";
},
{
name = top;
position = "{502, 1400}";
},
{
name = topleft;
position = "{-58, 1400}";
}
);
layerId = "5521DC30-183F-421A-91F3-644B5E24AFE6";
paths = (
{
closed = 1;
nodes = (
"924 1400 LINE",
"76 1400 LINE",
"76 1130 LINE",
"312 1130 LINE",
"312 270 LINE",
"76 270 LINE",
"76 0 LINE",
"924 0 LINE",
"924 270 LINE",
"686 270 LINE",
"686 1130 LINE",
"924 1130 LINE"
);
}
);
width = 1000;
},
{
anchors = (
{
name = bottom;
position = "{478, 0}";
},
{
name = ogonek;
position = "{484, 0}";
},
{
name = top;
position = "{478, 1400}";
},
{
name = topleft;
position = "{-82, 1400}";
}
);
layerId = "BE68D89F-AB3F-4BDF-B332-ED50D7C47704";
paths = (
{
closed = 1;
nodes = (
"808 1400 LINE",
"144 1400 LINE",
"144 1336 LINE",
"442 1336 LINE",
"442 64 LINE",
"144 64 LINE",
"144 0 LINE",
"808 0 LINE",
"808 64 LINE",
"508 64 LINE",
"508 1336 LINE",
"808 1336 LINE"
);
}
);
width = 1000;
},
{
anchors = (
{
name = bottom;
position = "{308, 0}";
},
{
name = ogonek;
position = "{307, 0}";
},
{
name = top;
position = "{306, 1400}";
},
{
name = topleft;
position = "{-36, 1400}";
}
);
layerId = "2E286313-D5BF-4FB4-A4B7-BD9BC13B574E";
paths = (
{
closed = 1;
nodes = (
"498 1400 LINE",
"114 1400 LINE",
"114 1336 LINE",
"272 1336 LINE",
"272 64 LINE",
"114 64 LINE",
"114 0 LINE",
"498 0 LINE",
"498 64 LINE",
"338 64 LINE",
"338 1336 LINE",
"498 1336 LINE"
);
}
);
width = 600;
},
{
anchors = (
{
name = bottom;
position = "{902, 0}";
},
{
name = ogonek;
position = "{912, 0}";
},
{
name = top;
position = "{902, 1400}";
},
{
name = topleft;
position = "{-78, 1400}";
}
);
layerId = "E338D14E-1DA5-418D-88BC-8956EEA80AB9";
paths = (
{
closed = 1;
nodes = (
"1570 1400 LINE",
"228 1400 LINE",
"228 1336 LINE",
"860 1336 LINE",
"860 64 LINE",
"228 64 LINE",
"228 0 LINE",
"1570 0 LINE",
"1570 64 LINE",
"936 64 LINE",
"936 1336 LINE",
"1570 1336 LINE"
);
}
);
width = 1800;
},
{
anchors = (
{
name = bottom;
position = "{302, 0}";
},
{
name = ogonek;
position = "{296, 0}";
},
{
name = top;
position = "{302, 1400}";
},
{
name = topleft;
position = "{-44, 1400}";
}
);
layerId = "5D8A6BC1-E275-4777-AF98-AB9B3DC0EDC1";
paths = (
{
closed = 1;
nodes = (
"590 1400 LINE",
"12 1400 LINE",
"12 1130 LINE",
"114 1130 LINE",
"114 270 LINE",
"12 270 LINE",
"12 0 LINE",
"590 0 LINE",
"590 270 LINE",
"488 270 LINE",
"488 1130 LINE",
"590 1130 LINE"
);
}
);
width = 600;
},
{
anchors = (
{
name = bottom;
position = "{902, 0}";
},
{
name = ogonek;
position = "{902, 0}";
},
{
name = top;
position = "{902, 1400}";
},
{
name = topleft;
position = "{-86, 1400}";
}
);
layerId = "16EBFD8D-F4C1-4BAA-8DD7-EBE82D779ED1";
paths = (
{
closed = 1;
nodes = (
"1592 1400 LINE",
"204 1400 LINE",
"204 1130 LINE",
"708 1130 LINE",
"708 270 LINE",
"204 270 LINE",
"204 0 LINE",
"1592 0 LINE",
"1592 270 LINE",
"1082 270 LINE",
"1082 1130 LINE",
"1592 1130 LINE"
);
}
);
width = 1800;
}
);
leftKerningGroup = H;
rightKerningGroup = H;
unicode = 0049;
},
{
glyphname = J;
lastChange = "2020-01-04 16:41:20 +0000";
layers = (
{
anchors = (
{
name = bottom;
position = "{680, 0}";
},
{
name = top;
position = "{680, 1400}";
}
);
layerId = "5521DC30-183F-421A-91F3-644B5E24AFE6";
paths = (
{
closed = 1;
nodes = (
"930 -22 OFFCURVE",
"1160 118 OFFCURVE",
"1160 532 CURVE SMOOTH",
"1160 1400 LINE",
"288 1400 LINE",
"288 1130 LINE",
"786 1130 LINE",
"786 568 LINE SMOOTH",
"786 326 OFFCURVE",
"708 262 OFFCURVE",
"616 262 CURVE SMOOTH",
"526 262 OFFCURVE",
"446 326 OFFCURVE",
"446 568 CURVE",
"70 568 LINE",
"70 118 OFFCURVE",
"306 -22 OFFCURVE",
"616 -22 CURVE SMOOTH"
);
}
);
width = 1300;
},
{
anchors = (
{
name = bottom;
position = "{650, 0}";
},
{
name = top;
position = "{650, 1400}";
}
);
layerId = "BE68D89F-AB3F-4BDF-B332-ED50D7C47704";
paths = (
{
closed = 1;
nodes = (
"828 -22 OFFCURVE",
"982 134 OFFCURVE",
"982 548 CURVE SMOOTH",
"982 1400 LINE",
"336 1400 LINE",
"336 1336 LINE",
"916 1336 LINE",
"916 552 LINE SMOOTH",
"916 202 OFFCURVE",
"810 44 OFFCURVE",
"594 44 CURVE SMOOTH",
"380 44 OFFCURVE",
"270 202 OFFCURVE",
"270 552 CURVE",
"204 552 LINE",
"204 134 OFFCURVE",
"362 -22 OFFCURVE",
"594 -22 CURVE SMOOTH"
);
}
);
width = 1300;
},
{
anchors = (
{
name = bottom;
position = "{482, 0}";
},
{
name = top;
position = "{578, 1400}";
}
);
layerId = "2E286313-D5BF-4FB4-A4B7-BD9BC13B574E";
paths = (
{
closed = 1;
nodes = (
"616 -22 OFFCURVE",
"710 164 OFFCURVE",
"710 572 CURVE",
"710 1400 LINE",
"304 1400 LINE",
"304 1336 LINE",
"644 1336 LINE",
"644 550 LINE SMOOTH",
"644 202 OFFCURVE",
"580 44 OFFCURVE",
"432 44 CURVE SMOOTH",
"282 44 OFFCURVE",
"218 188 OFFCURVE",
"218 552 CURVE",
"152 552 LINE",
"152 144 OFFCURVE",
"250 -22 OFFCURVE",
"432 -22 CURVE SMOOTH"
);
}
);
width = 900;
},
{
anchors = (
{
name = bottom;
position = "{1100, 0}";
},
{
name = top;
position = "{1152, 1400}";
}
);
layerId = "E338D14E-1DA5-418D-88BC-8956EEA80AB9";
paths = (
{
closed = 1;
nodes = (
"1474 -22 OFFCURVE",
"1748 144 OFFCURVE",
"1748 598 CURVE",
"1748 1400 LINE",
"500 1400 LINE",
"500 1336 LINE",
"1672 1336 LINE",
"1672 548 LINE SMOOTH",
"1662 200 OFFCURVE",
"1438 44 OFFCURVE",
"1034 44 CURVE SMOOTH",
"624 44 OFFCURVE",
"392 208 OFFCURVE",
"392 552 CURVE",
"324 552 LINE",
"324 138 OFFCURVE",
"598 -22 OFFCURVE",
"1034 -22 CURVE SMOOTH"
);
}
);
width = 2200;
},
{
anchors = (
{
name = bottom;
position = "{526, 0}";
},
{
name = top;
position = "{554, 1400}";
}
);
layerId = "5D8A6BC1-E275-4777-AF98-AB9B3DC0EDC1";
paths = (
{
closed = 1;
nodes = (
"682 -22 OFFCURVE",
"848 110 OFFCURVE",
"848 528 CURVE SMOOTH",
"848 1400 LINE",
"182 1400 LINE",
"182 1130 LINE",
"476 1130 LINE",
"476 568 LINE SMOOTH",
"476 298 OFFCURVE",
"472 262 OFFCURVE",
"440 262 CURVE SMOOTH",
"408 262 OFFCURVE",
"406 298 OFFCURVE",
"406 568 CURVE",
"32 568 LINE",
"32 102 OFFCURVE",
"204 -22 OFFCURVE",
"440 -22 CURVE SMOOTH"
);
}
);
width = 900;
},
{
anchors = (
{
name = bottom;
position = "{988, 0}";
},
{
name = top;
position = "{932, 1400}";
}
);
layerId = "16EBFD8D-F4C1-4BAA-8DD7-EBE82D779ED1";
paths = (
{
closed = 1;
nodes = (
"1386 -22 OFFCURVE",
"1784 134 OFFCURVE",
"1784 540 CURVE SMOOTH",
"1784 1400 LINE",
"500 1400 LINE",
"500 1130 LINE",
"1406 1130 LINE",
"1406 568 LINE SMOOTH",
"1406 342 OFFCURVE",
"1180 262 OFFCURVE",
"968 262 CURVE SMOOTH",
"762 262 OFFCURVE",
"526 342 OFFCURVE",
"526 568 CURVE",
"146 568 LINE",
"146 134 OFFCURVE",
"550 -22 OFFCURVE",
"968 -22 CURVE SMOOTH"
);
}
);
width = 2200;
}
);
leftKerningGroup = J;
rightKerningGroup = J;
unicode = 004A;
},
{
glyphname = K;
lastChange = "2020-01-04 16:41:46 +0000";
layers = (
{
anchors = (
{
name = bottom;
position = "{652, 0}";
},
{
name = top;
position = "{652, 1400}";
}
);
layerId = "5521DC30-183F-421A-91F3-644B5E24AFE6";
paths = (
{
closed = 1;
nodes = (
"1276 0 LINE",
"880 782 LINE",
"880 656 LINE",
"1262 1400 LINE",
"858 1400 LINE",
"626 852 LINE",
"460 852 LINE",
"460 1400 LINE",
"86 1400 LINE",
"86 0 LINE",
"460 0 LINE",
"460 584 LINE",
"628 584 LINE",
"869 0 LINE"
);
}
);
width = 1300;
},
{
anchors = (
{
name = bottom;
position = "{600, 0}";
},
{
name = top;
position = "{600, 1400}";
}
);
layerId = "BE68D89F-AB3F-4BDF-B332-ED50D7C47704";
paths = (
{
closed = 1;
nodes = (
"1040 0 LINE",
"618 744 LINE",
"618 692 LINE",
"1006 1400 LINE",
"933 1400 LINE",
"581 750 LINE",
"332 750 LINE",
"332 1400 LINE",
"266 1400 LINE",
"266 0 LINE",
"332 0 LINE",
"332 686 LINE",
"578 686 LINE",
"966 0 LINE"
);
}
);
width = 1300;
},
{
anchors = (
{
name = bottom;
position = "{460, 0}";
},
{
name = top;
position = "{460, 1400}";
}
);
layerId = "2E286313-D5BF-4FB4-A4B7-BD9BC13B574E";
paths = (
{
closed = 1;
nodes = (
"714 0 LINE",
"452 746 LINE",
"452 690 LINE",
"700 1400 LINE",
"632 1400 LINE",
"408 750 LINE",
"332 750 LINE",
"332 1400 LINE",
"266 1400 LINE",
"266 0 LINE",
"332 0 LINE",
"332 686 LINE",
"408 686 LINE",
"646 0 LINE"
);
}
);
width = 900;
},
{
anchors = (
{
name = bottom;
position = "{1090, 0}";
},
{
name = top;
position = "{1090, 1400}";
}
);
layerId = "E338D14E-1DA5-418D-88BC-8956EEA80AB9";
paths = (
{
closed = 1;
nodes = (
"1866 0 LINE",
"1130 734 LINE",
"1127 704 LINE",
"1808 1400 LINE",
"1713 1400 LINE",
"1074 750 LINE",
"482 750 LINE",
"482 1400 LINE",
"406 1400 LINE",
"406 0 LINE",
"482 0 LINE",
"482 686 LINE",
"1072 686 LINE",
"1767 0 LINE"
);
}
);
width = 2200;
},
{
anchors = (
{
name = bottom;
position = "{448, 0}";
},
{
name = top;
position = "{448, 1400}";
}
);
layerId = "5D8A6BC1-E275-4777-AF98-AB9B3DC0EDC1";
paths = (
{
closed = 1;
nodes = (
"906 0 LINE",
"682 806 LINE",
"682 634 LINE",
"898 1400 LINE",
"494 1400 LINE",
"418 852 LINE",
"414 852 LINE",
"414 1400 LINE",
"40 1400 LINE",
"40 0 LINE",
"414 0 LINE",
"414 584 LINE",
"418 584 LINE",
"502 0 LINE"
);
}
);
width = 900;
},
{
anchors = (
{
name = bottom;
position = "{1060, 0}";
},
{
name = top;
position = "{1060, 1400}";
}
);
layerId = "16EBFD8D-F4C1-4BAA-8DD7-EBE82D779ED1";
paths = (
{
closed = 1;
nodes = (
"2016 0 LINE",
"1267 738 LINE",
"1267 704 LINE",
"1990 1400 LINE",
"1586 1400 LINE",
"1002 852 LINE",
"552 852 LINE",
"552 1400 LINE",
"178 1400 LINE",
"178 0 LINE",
"552 0 LINE",
"552 584 LINE",
"1008 584 LINE",
"1601 0 LINE"
);
}
);
width = 2200;
}
);
leftKerningGroup = H;
rightKerningGroup = K;
unicode = 004B;
},
{
glyphname = L;
lastChange = "2020-01-29 00:51:21 +0000";
layers = (
{
anchors = (
{
name = bottom;
position = "{514, 0}";
},
{
name = center;
position = "{302, 710}";
},
{
name = top;
position = "{522, 1400}";
},
{
name = topright;
position = "{790, 1400}";
}
);
layerId = "5521DC30-183F-421A-91F3-644B5E24AFE6";
paths = (
{
closed = 1;
nodes = (
"492 1400 LINE",
"116 1400 LINE",
"116 0 LINE",
"904 0 LINE",
"904 270 LINE",
"492 270 LINE"
);
}
);
width = 1000;
},
{
anchors = (
{
name = bottom;
position = "{520, 0}";
},
{
name = center;
position = "{196, 666}";
},
{
name = top;
position = "{420, 1400}";
},
{
name = topright;
position = "{770, 1400}";
}
);
layerId = "BE68D89F-AB3F-4BDF-B332-ED50D7C47704";
paths = (
{
closed = 1;
nodes = (
"252 1400 LINE",
"186 1400 LINE",
"186 0 LINE",
"854 0 LINE",
"854 64 LINE",
"252 64 LINE"
);
}
);
width = 1000;
},
{
anchors = (
{
name = bottom;
position = "{310, 0}";
},
{
name = center;
position = "{166, 666}";
},
{
name = top;
position = "{310, 1400}";
},
{
name = topright;
position = "{660, 1400}";
}
);
layerId = "2E286313-D5BF-4FB4-A4B7-BD9BC13B574E";
paths = (
{
closed = 1;
nodes = (
"202 1400 LINE",
"136 1400 LINE",
"136 0 LINE",
"494 0 LINE",
"494 64 LINE",
"202 64 LINE"
);
}
);
width = 600;
},
{
anchors = (
{
name = bottom;
position = "{971, 0}";
},
{
name = center;
position = "{418, 666}";
},
{
name = top;
position = "{890, 1400}";
},
{
name = topright;
position = "{1502, 1400}";
}
);
layerId = "E338D14E-1DA5-418D-88BC-8956EEA80AB9";
paths = (
{
closed = 1;
nodes = (
"428 1400 LINE",
"352 1400 LINE",
"352 0 LINE",
"1570 0 LINE",
"1570 64 LINE",
"428 64 LINE"
);
}
);
width = 1800;
},
{
anchors = (
{
name = bottom;
position = "{307, 0}";
},
{
name = center;
position = "{214, 710}";
},
{
name = top;
position = "{328, 1400}";
},
{
name = topright;
position = "{524, 1400}";
}
);
layerId = "5D8A6BC1-E275-4777-AF98-AB9B3DC0EDC1";
paths = (
{
closed = 1;
nodes = (
"393 1400 LINE",
"19 1400 LINE",
"19 0 LINE",
"577 0 LINE",
"577 270 LINE",
"393 270 LINE"
);
}
);
width = 600;
},
{
anchors = (
{
name = bottom;
position = "{917, 0}";
},
{
name = center;
position = "{478, 710}";
},
{
name = top;
position = "{910, 1400}";
},
{
name = topright;
position = "{1322, 1400}";
}
);
layerId = "16EBFD8D-F4C1-4BAA-8DD7-EBE82D779ED1";
paths = (
{
closed = 1;
nodes = (
"690 1400 LINE",
"310 1400 LINE",
"310 0 LINE",
"1538 0 LINE",
"1538 270 LINE",
"690 270 LINE"
);
}
);
width = 1800;
}
);
leftKerningGroup = H;
rightKerningGroup = L;
unicode = 004C;
},
{
glyphname = Lslash;
lastChange = "2020-01-27 14:14:50 +0000";
layers = (
{
components = (
{
name = L;
transform = "{1, 0, 0, 1, 6, 0}";
}
);
layerId = "5521DC30-183F-421A-91F3-644B5E24AFE6";
paths = (
{
closed = 1;
nodes = (
"-34 234 LINE",
"682 806 LINE",
"682 1144 LINE",
"-34 570 LINE"
);
}
);
width = 1000;
},
{
components = (
{
name = L;
transform = "{1, 0, 0, 1, 20, 0}";
}
);
layerId = "BE68D89F-AB3F-4BDF-B332-ED50D7C47704";
paths = (
{
closed = 1;
nodes = (
"4 416 LINE",
"508 920 LINE",
"508 1002 LINE",
"4 496 LINE"
);
}
);
width = 1000;
},
{
components = (
{
name = L;
transform = "{1, 0, 0, 1, 36, 0}";
}
);
layerId = "2E286313-D5BF-4FB4-A4B7-BD9BC13B574E";
paths = (
{
closed = 1;
nodes = (
"6 416 LINE",
"403 813 LINE",
"403 895 LINE",
"6 496 LINE"
);
}
);
width = 600;
},
{
components = (
{
name = L;
transform = "{1, 0, 0, 1, -7, 0}";
}
);
layerId = "E338D14E-1DA5-418D-88BC-8956EEA80AB9";
paths = (
{
closed = 1;
nodes = (
"-5 414 LINE",
"831 918 LINE",
"831 1002 LINE",
"-5 496 LINE"
);
}
);
width = 1800;
},
{
components = (
{
alignment = -1;
name = L;
transform = "{1, 0, 0, 1, 1, 0}";
}
);
layerId = "5D8A6BC1-E275-4777-AF98-AB9B3DC0EDC1";
paths = (
{
closed = 1;
nodes = (
"-39 287 LINE",
"465 691 LINE",
"465 1049 LINE",
"-39 643 LINE"
);
}
);
width = 600;
},
{
components = (
{
alignment = -1;
name = L;
transform = "{1, 0, 0, 1, 5, 0}";
}
);
layerId = "16EBFD8D-F4C1-4BAA-8DD7-EBE82D779ED1";
paths = (
{
closed = 1;
nodes = (
"46 215 LINE",
"1061 847 LINE",
"1061 1194 LINE",
"46 560 LINE"
);
}
);
width = 1800;
}
);
leftKerningGroup = H;
widthMetricsKey = L;
rightKerningGroup = L;
unicode = 0141;
},
{
glyphname = M;
lastChange = "2020-01-04 18:54:41 +0000";
layers = (
{
anchors = (
{
name = bottom;
position = "{904, 0}";
},
{
name = top;
position = "{600, 1400}";
}
);
layerId = "5521DC30-183F-421A-91F3-644B5E24AFE6";
paths = (
{
closed = 1;
nodes = (
"1052 204 LINE",
"1306 1094 LINE",
"1300 1400 LINE",
"1102 1400 LINE",
"918 671 LINE",
"838 204 LINE"
);
},
{
closed = 1;
nodes = (
"498 0 LINE",
"558 1400 LINE",
"214 1400 LINE",
"116 0 LINE"
);
},
{
closed = 1;
nodes = (
"958 204 LINE",
"888 671 LINE",
"696 1400 LINE",
"498 1400 LINE",
"492 1094 LINE",
"748 204 LINE"
);
},
{
closed = 1;
nodes = (
"1682 0 LINE",
"1584 1400 LINE",
"1240 1400 LINE",
"1300 0 LINE"
);
}
);
width = 1800;
},
{
anchors = (
{
name = bottom;
position = "{600, 0}";
},
{
name = top;
position = "{600, 1400}";
}
);
layerId = "BE68D89F-AB3F-4BDF-B332-ED50D7C47704";
paths = (
{
closed = 1;
nodes = (
"940 80 LINE",
"1348 1320 LINE",
"1358 1400 LINE",
"1306 1400 LINE",
"918 216 LINE",
"876 80 LINE"
);
},
{
closed = 1;
nodes = (
"330 0 LINE",
"462 1400 LINE",
"398 1400 LINE",
"260 0 LINE"
);
},
{
closed = 1;
nodes = (
"918 80 LINE",
"876 216 LINE",
"490 1400 LINE",
"442 1400 LINE",
"448 1320 LINE",
"854 80 LINE"
);
},
{
closed = 1;
nodes = (
"1536 0 LINE",
"1398 1400 LINE",
"1334 1400 LINE",
"1466 0 LINE"
);
}
);
width = 1800;
},
{
anchors = (
{
name = bottom;
position = "{696, 0}";
},
{
name = top;
position = "{514, 1400}";
}
);
layerId = "2E286313-D5BF-4FB4-A4B7-BD9BC13B574E";
paths = (
{
closed = 1;
nodes = (
"746 140 LINE",
"992 1344 LINE",
"992 1400 LINE",
"932 1400 LINE",
"702 209 LINE",
"676 140 LINE"
);
},
{
closed = 1;
nodes = (
"326 0 LINE",
"418 1400 LINE",
"356 1400 LINE",
"258 0 LINE"
);
},
{
closed = 1;
nodes = (
"732 140 LINE",
"704 209 LINE",
"476 1400 LINE",
"416 1400 LINE",
"416 1344 LINE",
"660 140 LINE"
);
},
{
closed = 1;
nodes = (
"1150 0 LINE",
"1052 1400 LINE",
"990 1400 LINE",
"1082 0 LINE"
);
}
);
width = 1400;
},
{
anchors = (
{
name = bottom;
position = "{1278, 0}";
},
{
name = top;
position = "{1290, 1400}";
}
);
layerId = "E338D14E-1DA5-418D-88BC-8956EEA80AB9";
paths = (
{
closed = 1;
nodes = (
"1346 80 LINE",
"1978 1323 LINE",
"1998 1400 LINE",
"1937 1400 LINE",
"1302 148 LINE",
"1278 80 LINE"
);
},
{
closed = 1;
nodes = (
"351 0 LINE",
"640 1400 LINE",
"570 1400 LINE",
"272 0 LINE"
);
},
{
closed = 1;
nodes = (
"1316 80 LINE",
"1292 148 LINE",
"663 1400 LINE",
"610 1400 LINE",
"622 1323 LINE",
"1248 80 LINE"
);
},
{
closed = 1;
nodes = (
"2330 0 LINE",
"2028 1400 LINE",
"1962 1400 LINE",
"2251 0 LINE"
);
}
);
width = 2600;
},
{
anchors = (
{
name = bottom;
position = "{796, 0}";
},
{
name = top;
position = "{408, 1400}";
}
);
layerId = "5D8A6BC1-E275-4777-AF98-AB9B3DC0EDC1";
paths = (
{
closed = 1;
nodes = (
"856 230 LINE",
"990 1100 LINE",
"994 1400 LINE",
"792 1400 LINE",
"712 776 LINE",
"658 230 LINE"
);
},
{
closed = 1;
nodes = (
"434 0 LINE",
"472 1400 LINE",
"132 1400 LINE",
"54 0 LINE"
);
},
{
closed = 1;
nodes = (
"744 230 LINE",
"696 776 LINE",
"610 1400 LINE",
"404 1400 LINE",
"414 1100 LINE",
"548 230 LINE"
);
},
{
closed = 1;
nodes = (
"1348 0 LINE",
"1270 1400 LINE",
"928 1400 LINE",
"968 0 LINE"
);
}
);
width = 1400;
},
{
anchors = (
{
name = bottom;
position = "{1289, 0}";
},
{
name = top;
position = "{1306, 1400}";
}
);
layerId = "16EBFD8D-F4C1-4BAA-8DD7-EBE82D779ED1";
paths = (
{
closed = 1;
nodes = (
"1539 152 LINE",
"1948 1112 LINE",
"1932 1400 LINE",
"1722 1400 LINE",
"1320 451 LINE",
"1208 152 LINE"
);
},
{
closed = 1;
nodes = (
"606 0 LINE",
"710 1400 LINE",
"358 1400 LINE",
"216 0 LINE"
);
},
{
closed = 1;
nodes = (
"1376 152 LINE",
"1282 451 LINE",
"868 1400 LINE",
"666 1400 LINE",
"638 1112 LINE",
"1053 152 LINE"
);
},
{
closed = 1;
nodes = (
"2374 0 LINE",
"2232 1400 LINE",
"1884 1400 LINE",
"1984 0 LINE"
);
}
);
width = 2600;
}
);
leftKerningGroup = M;
rightKerningGroup = M;
unicode = 004D;
},
{
glyphname = N;
lastChange = "2020-01-04 19:50:57 +0000";
layers = (
{
anchors = (
{
name = bottom;
position = "{650, 0}";
},
{
name = top;
position = "{650, 1400}";
}
);
layerId = "5521DC30-183F-421A-91F3-644B5E24AFE6";
paths = (
{
closed = 1;
nodes = (
"840 248 LINE",
"882 254 LINE",
"592 1400 LINE",
"88 1400 LINE",
"88 0 LINE",
"462 0 LINE",
"462 1118 LINE",
"420 1112 LINE",
"704 0 LINE",
"1214 0 LINE",
"1214 1400 LINE",
"840 1400 LINE"
);
}
);
width = 1300;
},
{
anchors = (
{
name = bottom;
position = "{640, 0}";
},
{
name = top;
position = "{640, 1400}";
}
);
layerId = "BE68D89F-AB3F-4BDF-B332-ED50D7C47704";
paths = (
{
closed = 1;
nodes = (
"956 78 LINE",
"960 82 LINE",
"358 1400 LINE",
"262 1400 LINE",
"262 0 LINE",
"328 0 LINE",
"328 1318 LINE",
"324 1314 LINE",
"926 0 LINE",
"1022 0 LINE",
"1022 1400 LINE",
"956 1400 LINE"
);
}
);
width = 1300;
},
{
anchors = (
{
name = bottom;
position = "{436, 0}";
},
{
name = top;
position = "{436, 1400}";
}
);
layerId = "2E286313-D5BF-4FB4-A4B7-BD9BC13B574E";
paths = (
{
closed = 1;
nodes = (
"694 86 LINE",
"706 88 LINE",
"232 1400 LINE",
"140 1400 LINE",
"140 0 LINE",
"206 0 LINE",
"206 1314 LINE",
"194 1312 LINE",
"663 0 LINE",
"760 0 LINE",
"760 1400 LINE",
"694 1400 LINE"
);
}
);
width = 900;
},
{
anchors = (
{
name = bottom;
position = "{1080, 0}";
},
{
name = top;
position = "{1080, 1400}";
}
);
layerId = "E338D14E-1DA5-418D-88BC-8956EEA80AB9";
paths = (
{
closed = 1;
nodes = (
"1746 59 LINE",
"1768 69 LINE",
"434 1400 LINE",
"350 1400 LINE",
"350 0 LINE",
"426 0 LINE",
"426 1339 LINE",
"404 1329 LINE",
"1738 0 LINE",
"1820 0 LINE",
"1820 1400 LINE",
"1746 1400 LINE"
);
}
);
width = 2200;
},
{
anchors = (
{
name = bottom;
position = "{450, 0}";
},
{
name = top;
position = "{452, 1400}";
}
);
layerId = "5D8A6BC1-E275-4777-AF98-AB9B3DC0EDC1";
paths = (
{
closed = 1;
nodes = (
"492 430 LINE",
"552 434 LINE",
"398 1400 LINE",
"36 1400 LINE",
"36 0 LINE",
"410 0 LINE",
"410 940 LINE",
"352 934 LINE",
"498 0 LINE",
"866 0 LINE",
"866 1400 LINE",
"492 1400 LINE"
);
}
);
width = 900;
},
{
anchors = (
{
name = bottom;
position = "{1056, 0}";
},
{
name = top;
position = "{1056, 1400}";
}
);
layerId = "16EBFD8D-F4C1-4BAA-8DD7-EBE82D779ED1";
paths = (
{
closed = 1;
nodes = (
"1536 268 LINE",
"1542 278 LINE",
"777 1400 LINE",
"192 1400 LINE",
"192 0 LINE",
"566 0 LINE",
"566 1128 LINE",
"556 1122 LINE",
"1319 0 LINE",
"1910 0 LINE",
"1910 1400 LINE",
"1536 1400 LINE"
);
}
);
width = 2200;
}
);
leftKerningGroup = H;
rightKerningGroup = H;
unicode = 004E;
},
{
glyphname = Eng;
lastChange = "2020-01-04 19:52:51 +0000";
layers = (
{
layerId = "5521DC30-183F-421A-91F3-644B5E24AFE6";
paths = (
{
closed = 1;
nodes = (
"782 780 LINE",
"454 1400 LINE",
"88 1400 LINE",
"88 0 LINE",
"462 0 LINE",
"462 710 LINE",
"838 0 LINE",
"838 -40 OFFCURVE",
"796 -86 OFFCURVE",
"698 -86 CURVE SMOOTH",
"616 -86 OFFCURVE",
"522 -74 OFFCURVE",
"490 -62 CURVE",
"412 -358 LINE",
"460 -370 OFFCURVE",
"608 -384 OFFCURVE",
"712 -384 CURVE SMOOTH",
"944 -384 OFFCURVE",
"1156 -288 OFFCURVE",
"1156 -26 CURVE SMOOTH",
"1156 1400 LINE",
"782 1400 LINE"
);
}
);
width = 1300;
},
{
layerId = "BE68D89F-AB3F-4BDF-B332-ED50D7C47704";
paths = (
{
closed = 1;
nodes = (
"916 148 LINE",
"314 1400 LINE",
"222 1400 LINE",
"222 0 LINE",
"288 0 LINE",
"288 1304 LINE",
"916 0 LINE",
"916 -272 OFFCURVE",
"802 -318 OFFCURVE",
"626 -318 CURVE SMOOTH",
"544 -318 OFFCURVE",
"442 -298 OFFCURVE",
"410 -290 CURVE",
"392 -356 LINE",
"440 -368 OFFCURVE",
"536 -384 OFFCURVE",
"640 -384 CURVE SMOOTH",
"872 -384 OFFCURVE",
"982 -250 OFFCURVE",
"982 -14 CURVE SMOOTH",
"982 1400 LINE",
"916 1400 LINE"
);
}
);
width = 1300;
},
{
layerId = "2E286313-D5BF-4FB4-A4B7-BD9BC13B574E";
paths = (
{
closed = 1;
nodes = (
"674 200 LINE",
"246 1400 LINE",
"160 1400 LINE",
"160 0 LINE",
"226 0 LINE",
"226 1254 LINE",
"674 0 LINE",
"674 -272 OFFCURVE",
"606 -318 OFFCURVE",
"474 -318 CURVE SMOOTH",
"412 -318 OFFCURVE",
"336 -298 OFFCURVE",
"312 -290 CURVE",
"298 -356 LINE",
"334 -368 OFFCURVE",
"406 -384 OFFCURVE",
"484 -384 CURVE SMOOTH",
"658 -384 OFFCURVE",
"740 -250 OFFCURVE",
"740 -14 CURVE SMOOTH",
"740 1400 LINE",
"674 1400 LINE"
);
}
);
width = 900;
},
{
layerId = "E338D14E-1DA5-418D-88BC-8956EEA80AB9";
paths = (
{
closed = 1;
nodes = (
"1644 102 LINE",
"514 1400 LINE",
"438 1400 LINE",
"438 0 LINE",
"504 0 LINE",
"504 1316 LINE",
"1644 0 LINE",
"1644 -272 OFFCURVE",
"1438 -318 OFFCURVE",
"1262 -318 CURVE SMOOTH",
"1140 -318 OFFCURVE",
"928 -278 OFFCURVE",
"896 -270 CURVE",
"878 -336 LINE",
"926 -348 OFFCURVE",
"1122 -384 OFFCURVE",
"1266 -384 CURVE SMOOTH",
"1498 -384 OFFCURVE",
"1708 -306 OFFCURVE",
"1708 -14 CURVE SMOOTH",
"1708 1400 LINE",
"1644 1400 LINE"
);
}
);
width = 2200;
},
{
layerId = "5D8A6BC1-E275-4777-AF98-AB9B3DC0EDC1";
paths = (
{
closed = 1;
nodes = (
"498 816 LINE",
"390 1400 LINE",
"26 1400 LINE",
"26 0 LINE",
"402 0 LINE",
"402 668 LINE",
"554 0 LINE",
"554 -40 OFFCURVE",
"552 -86 OFFCURVE",
"480 -86 CURVE SMOOTH",
"418 -86 OFFCURVE",
"366 -80 OFFCURVE",
"338 -66 CURVE",
"262 -364 LINE",
"304 -376 OFFCURVE",
"414 -384 OFFCURVE",
"494 -384 CURVE SMOOTH",
"700 -384 OFFCURVE",
"874 -274 OFFCURVE",
"874 -26 CURVE SMOOTH",
"874 1400 LINE",
"498 1400 LINE"
);
}
);
width = 900;
},
{
layerId = "16EBFD8D-F4C1-4BAA-8DD7-EBE82D779ED1";
paths = (
{
closed = 1;
nodes = (
"1470 447 LINE",
"882 1400 LINE",
"332 1400 LINE",
"332 0 LINE",
"702 0 LINE",
"702 1060 LINE",
"1376 0 LINE",
"1376 -40 OFFCURVE",
"1324 -86 OFFCURVE",
"1194 -86 CURVE SMOOTH",
"1072 -86 OFFCURVE",
"914 -62 OFFCURVE",
"874 -54 CURVE",
"792 -346 LINE",
"852 -358 OFFCURVE",
"1116 -384 OFFCURVE",
"1268 -384 CURVE SMOOTH",
"1552 -384 OFFCURVE",
"1840 -290 OFFCURVE",
"1840 53 CURVE SMOOTH",
"1840 1400 LINE",
"1470 1400 LINE"
);
}
);
width = 2200;
}
);
leftKerningGroup = Eng;
widthMetricsKey = N;
rightKerningGroup = Eng;
unicode = 014A;
},
{
glyphname = O;
lastChange = "2020-01-04 16:49:33 +0000";
layers = (
{
anchors = (
{
name = bottom;
position = "{634, 0}";
},
{
name = center;
position = "{600, 700}";
},
{
name = ogonek;
position = "{620, -4}";
},
{
name = top;
position = "{640, 1400}";
},
{
name = topleft;
position = "{40, 1400}";
},
{
name = topright;
position = "{1160, 1400}";
}
);
layerId = "5521DC30-183F-421A-91F3-644B5E24AFE6";
paths = (
{
closed = 1;
nodes = (
"940 -22 OFFCURVE",
"1232 146 OFFCURVE",
"1232 696 CURVE SMOOTH",
"1232 1244 OFFCURVE",
"940 1412 OFFCURVE",
"646 1412 CURVE SMOOTH",
"350 1412 OFFCURVE",
"58 1244 OFFCURVE",
"58 696 CURVE SMOOTH",
"58 146 OFFCURVE",
"350 -22 OFFCURVE",
"646 -22 CURVE SMOOTH"
);
},
{
closed = 1;
nodes = (
"532 252 OFFCURVE",
"436 376 OFFCURVE",
"436 696 CURVE SMOOTH",
"436 1014 OFFCURVE",
"532 1138 OFFCURVE",
"646 1138 CURVE SMOOTH",
"758 1138 OFFCURVE",
"854 1014 OFFCURVE",
"854 696 CURVE SMOOTH",
"854 376 OFFCURVE",
"758 252 OFFCURVE",
"646 252 CURVE SMOOTH"
);
}
);
width = 1300;
},
{
anchors = (
{
name = bottom;
position = "{592, 0}";
},
{
name = center;
position = "{600, 700}";
},
{
name = ogonek;
position = "{620, -4}";
},
{
name = top;
position = "{600, 1400}";
},
{
name = topleft;
position = "{40, 1400}";
},
{
name = topright;
position = "{1160, 1400}";
}
);
layerId = "BE68D89F-AB3F-4BDF-B332-ED50D7C47704";
paths = (
{
closed = 1;
nodes = (
"832 -22 OFFCURVE",
"1048 140 OFFCURVE",
"1048 696 CURVE SMOOTH",
"1048 1250 OFFCURVE",
"832 1412 OFFCURVE",
"600 1412 CURVE SMOOTH",
"366 1412 OFFCURVE",
"150 1250 OFFCURVE",
"150 696 CURVE SMOOTH",
"150 140 OFFCURVE",
"366 -22 OFFCURVE",
"600 -22 CURVE SMOOTH"
);
},
{
closed = 1;
nodes = (
"394 44 OFFCURVE",
"220 198 OFFCURVE",
"220 696 CURVE SMOOTH",
"220 1192 OFFCURVE",
"394 1346 OFFCURVE",
"600 1346 CURVE SMOOTH",
"804 1346 OFFCURVE",
"978 1192 OFFCURVE",
"978 696 CURVE SMOOTH",
"978 198 OFFCURVE",
"804 44 OFFCURVE",
"600 44 CURVE SMOOTH"
);
}
);
width = 1300;
},
{
anchors = (
{
name = bottom;
position = "{452, 0}";
},
{
name = center;
position = "{474, 700}";
},
{
name = ogonek;
position = "{474, 0}";
},
{
name = top;
position = "{456, 1400}";
},
{
name = topleft;
position = "{116, 1400}";
},
{
name = topright;
position = "{814, 1400}";
}
);
layerId = "2E286313-D5BF-4FB4-A4B7-BD9BC13B574E";
paths = (
{
closed = 1;
nodes = (
"604 -22 OFFCURVE",
"752 100 OFFCURVE",
"752 696 CURVE SMOOTH",
"752 1290 OFFCURVE",
"604 1412 OFFCURVE",
"452 1412 CURVE SMOOTH",
"298 1412 OFFCURVE",
"150 1290 OFFCURVE",
"150 696 CURVE SMOOTH",
"150 100 OFFCURVE",
"298 -22 OFFCURVE",
"452 -22 CURVE SMOOTH"
);
},
{
closed = 1;
nodes = (
"350 44 OFFCURVE",
"218 138 OFFCURVE",
"218 696 CURVE SMOOTH",
"218 1252 OFFCURVE",
"350 1346 OFFCURVE",
"452 1346 CURVE SMOOTH",
"552 1346 OFFCURVE",
"684 1252 OFFCURVE",
"684 696 CURVE SMOOTH",
"684 138 OFFCURVE",
"552 44 OFFCURVE",
"452 44 CURVE SMOOTH"
);
}
);
width = 900;
},
{
anchors = (
{
name = bottom;
position = "{1036, 0}";
},
{
name = center;
position = "{1050, 700}";
},
{
name = ogonek;
position = "{1086, -4}";
},
{
name = top;
position = "{1050, 1400}";
},
{
name = topleft;
position = "{70, 1400}";
},
{
name = topright;
position = "{2030, 1400}";
}
);
layerId = "E338D14E-1DA5-418D-88BC-8956EEA80AB9";
paths = (
{
closed = 1;
nodes = (
"1418 -22 OFFCURVE",
"1906 120 OFFCURVE",
"1906 696 CURVE SMOOTH",
"1906 1270 OFFCURVE",
"1418 1412 OFFCURVE",
"1052 1412 CURVE SMOOTH",
"682 1412 OFFCURVE",
"194 1270 OFFCURVE",
"194 696 CURVE SMOOTH",
"194 120 OFFCURVE",
"682 -22 OFFCURVE",
"1052 -22 CURVE SMOOTH"
);
},
{
closed = 1;
nodes = (
"712 44 OFFCURVE",
"270 178 OFFCURVE",
"270 696 CURVE SMOOTH",
"270 1212 OFFCURVE",
"712 1346 OFFCURVE",
"1052 1346 CURVE SMOOTH",
"1388 1346 OFFCURVE",
"1830 1212 OFFCURVE",
"1830 696 CURVE SMOOTH",
"1830 178 OFFCURVE",
"1388 44 OFFCURVE",
"1052 44 CURVE SMOOTH"
);
}
);
width = 2200;
},
{
anchors = (
{
name = bottom;
position = "{444, 0}";
},
{
name = center;
position = "{414, 700}";
},
{
name = ogonek;
position = "{422, -2}";
},
{
name = top;
position = "{446, 1400}";
},
{
name = topleft;
position = "{62, 1400}";
},
{
name = topright;
position = "{760, 1400}";
}
);
layerId = "5D8A6BC1-E275-4777-AF98-AB9B3DC0EDC1";
paths = (
{
closed = 1;
nodes = (
"672 -22 OFFCURVE",
"854 134 OFFCURVE",
"854 696 CURVE SMOOTH",
"854 1256 OFFCURVE",
"672 1412 OFFCURVE",
"450 1412 CURVE SMOOTH",
"226 1412 OFFCURVE",
"46 1256 OFFCURVE",
"46 696 CURVE SMOOTH",
"46 134 OFFCURVE",
"226 -22 OFFCURVE",
"450 -22 CURVE SMOOTH"
);
},
{
closed = 1;
nodes = (
"426 252 OFFCURVE",
"420 356 OFFCURVE",
"420 696 CURVE SMOOTH",
"420 1034 OFFCURVE",
"426 1138 OFFCURVE",
"450 1138 CURVE SMOOTH",
"472 1138 OFFCURVE",
"480 1034 OFFCURVE",
"480 696 CURVE SMOOTH",
"480 356 OFFCURVE",
"472 252 OFFCURVE",
"450 252 CURVE SMOOTH"
);
}
);
width = 900;
},
{
anchors = (
{
name = bottom;
position = "{1014, 0}";
},
{
name = center;
position = "{972, 700}";
},
{
name = ogonek;
position = "{1016, -8}";
},
{
name = top;
position = "{1028, 1400}";
},
{
name = topleft;
position = "{-4, 1400}";
},
{
name = topright;
position = "{1960, 1400}";
}
);
layerId = "16EBFD8D-F4C1-4BAA-8DD7-EBE82D779ED1";
paths = (
{
closed = 1;
nodes = (
"1466 -22 OFFCURVE",
"1988 150 OFFCURVE",
"1988 696 CURVE SMOOTH",
"1988 1240 OFFCURVE",
"1466 1412 OFFCURVE",
"1038 1412 CURVE SMOOTH",
"608 1412 OFFCURVE",
"82 1240 OFFCURVE",
"82 696 CURVE SMOOTH",
"82 150 OFFCURVE",
"608 -22 OFFCURVE",
"1038 -22 CURVE SMOOTH"
);
},
{
closed = 1;
nodes = (
"784 252 OFFCURVE",
"468 346 OFFCURVE",
"468 696 CURVE SMOOTH",
"468 1044 OFFCURVE",
"784 1138 OFFCURVE",
"1038 1138 CURVE SMOOTH",
"1290 1138 OFFCURVE",
"1602 1044 OFFCURVE",
"1602 696 CURVE SMOOTH",
"1602 346 OFFCURVE",
"1290 252 OFFCURVE",
"1038 252 CURVE SMOOTH"
);
}
);
width = 2200;
}
);
leftKerningGroup = O;
rightKerningGroup = O;
unicode = 004F;
},
{
glyphname = OE;
lastChange = "2020-01-04 15:55:27 +0000";
layers = (
{
components = (
{
alignment = -1;
name = O;
transform = "{1, 0, 0, 1, -24, 0}";
}
);
layerId = "5521DC30-183F-421A-91F3-644B5E24AFE6";
paths = (
{
closed = 1;
nodes = (
"1760 1400 LINE",
"832 1400 LINE",
"832 0 LINE",
"1760 0 LINE",
"1760 270 LINE",
"1206 270 LINE",
"1206 554 LINE",
"1672 554 LINE",
"1672 822 LINE",
"1206 822 LINE",
"1206 1130 LINE",
"1760 1130 LINE"
);
}
);
width = 1800;
},
{
components = (
{
alignment = -1;
name = O;
transform = "{1, 0, 0, 1, -40, 0}";
}
);
layerId = "BE68D89F-AB3F-4BDF-B332-ED50D7C47704";
paths = (
{
closed = 1;
nodes = (
"1686 1400 LINE",
"938 1400 LINE",
"938 0 LINE",
"1686 0 LINE",
"1686 64 LINE",
"1004 64 LINE",
"1004 656 LINE",
"1578 656 LINE",
"1578 720 LINE",
"1004 720 LINE",
"1004 1336 LINE",
"1686 1336 LINE"
);
}
);
width = 1800;
},
{
components = (
{
alignment = -1;
name = O;
transform = "{1, 0, 0, 1, 34, 0}";
}
);
layerId = "2E286313-D5BF-4FB4-A4B7-BD9BC13B574E";
paths = (
{
closed = 1;
nodes = (
"1134 1400 LINE",
"726 1400 LINE",
"726 0 LINE",
"1134 0 LINE",
"1134 64 LINE",
"792 64 LINE",
"792 656 LINE",
"1086 656 LINE",
"1086 720 LINE",
"792 720 LINE",
"792 1336 LINE",
"1134 1336 LINE"
);
}
);
width = 1400;
},
{
components = (
{
alignment = -1;
name = O;
transform = "{1, 0, 0, 1, -188, 0}";
}
);
layerId = "E338D14E-1DA5-418D-88BC-8956EEA80AB9";
paths = (
{
closed = 1;
nodes = (
"2554 1400 LINE",
"1654 1400 LINE",
"1654 0 LINE",
"2554 0 LINE",
"2554 64 LINE",
"1724 64 LINE",
"1724 656 LINE",
"2484 656 LINE",
"2484 720 LINE",
"1724 720 LINE",
"1724 1336 LINE",
"2554 1336 LINE"
);
}
);
width = 2600;
},
{
components = (
{
alignment = -1;
name = O;
transform = "{1, 0, 0, 1, 46, 0}";
}
);
layerId = "5D8A6BC1-E275-4777-AF98-AB9B3DC0EDC1";
paths = (
{
closed = 1;
nodes = (
"1268 1400 LINE",
"534 1400 LINE",
"534 0 LINE",
"1268 0 LINE",
"1268 270 LINE",
"906 270 LINE",
"906 554 LINE",
"1196 554 LINE",
"1196 822 LINE",
"906 822 LINE",
"906 1130 LINE",
"1268 1130 LINE"
);
}
);
width = 1400;
},
{
components = (
{
alignment = -1;
name = O;
transform = "{1, 0, 0, 1, -164, 0}";
}
);
layerId = "16EBFD8D-F4C1-4BAA-8DD7-EBE82D779ED1";
paths = (
{
closed = 1;
nodes = (
"2744 1400 LINE",
"1428 1400 LINE",
"1428 0 LINE",
"2744 0 LINE",
"2744 270 LINE",
"1806 270 LINE",
"1806 554 LINE",
"2624 554 LINE",
"2624 822 LINE",
"1806 822 LINE",
"1806 1130 LINE",
"2744 1130 LINE"
);
}
);
width = 2600;
}
);
leftKerningGroup = O;
rightKerningGroup = E;
unicode = 0152;
},
{
color = 4;
glyphname = OE.ss01;
lastChange = "2020-01-04 18:58:09 +0000";
layers = (
{
anchors = (
{
name = bottom;
position = "{530, 0}";
},
{
name = center;
position = "{496, 700}";
},
{
name = ogonek;
position = "{516, -4}";
},
{
name = top;
position = "{536, 1400}";
},
{
name = topleft;
position = "{-64, 1400}";
},
{
name = topright;
position = "{1056, 1400}";
}
);
layerId = "5521DC30-183F-421A-91F3-644B5E24AFE6";
paths = (
{
closed = 1;
nodes = (
"1260 1400 LINE",
"652 1400 LINE",
"652 0 LINE",
"1260 0 LINE",
"1260 270 LINE",
"1026 270 LINE",
"1026 554 LINE",
"1212 554 LINE",
"1212 822 LINE",
"1026 822 LINE",
"1026 1130 LINE",
"1260 1130 LINE"
);
},
{
closed = 1;
nodes = (
"776 -22 OFFCURVE",
"1028 146 OFFCURVE",
"1028 696 CURVE SMOOTH",
"1028 1244 OFFCURVE",
"786 1420 OFFCURVE",
"522 1420 CURVE SMOOTH",
"266 1420 OFFCURVE",
"14 1244 OFFCURVE",
"14 696 CURVE SMOOTH",
"14 146 OFFCURVE",
"266 -22 OFFCURVE",
"522 -22 CURVE SMOOTH"
);
},
{
closed = 1;
nodes = (
"418 252 OFFCURVE",
"392 376 OFFCURVE",
"392 696 CURVE SMOOTH",
"392 1014 OFFCURVE",
"418 1138 OFFCURVE",
"522 1138 CURVE SMOOTH",
"624 1138 OFFCURVE",
"650 1014 OFFCURVE",
"650 696 CURVE SMOOTH",
"650 376 OFFCURVE",
"624 252 OFFCURVE",
"522 252 CURVE SMOOTH"
);
}
);
width = 1300;
},
{
anchors = (
{
name = bottom;
position = "{432, 0}";
},
{
name = center;
position = "{440, 700}";
},
{
name = ogonek;
position = "{460, -4}";
},
{
name = top;
position = "{440, 1400}";
},
{
name = topleft;
position = "{-120, 1400}";
},
{
name = topright;
position = "{1000, 1400}";
}
);
layerId = "BE68D89F-AB3F-4BDF-B332-ED50D7C47704";
paths = (
{
closed = 1;
nodes = (
"1246 1400 LINE",
"718 1400 LINE",
"718 0 LINE",
"1246 0 LINE",
"1246 64 LINE",
"784 64 LINE",
"784 656 LINE",
"1198 656 LINE",
"1198 720 LINE",
"784 720 LINE",
"784 1336 LINE",
"1246 1336 LINE"
);
},
{
closed = 1;
nodes = (
"632 -22 OFFCURVE",
"788 140 OFFCURVE",
"788 696 CURVE SMOOTH",
"788 1250 OFFCURVE",
"632 1412 OFFCURVE",
"440 1412 CURVE SMOOTH",
"246 1412 OFFCURVE",
"90 1250 OFFCURVE",
"90 696 CURVE SMOOTH",
"90 140 OFFCURVE",
"246 -22 OFFCURVE",
"440 -22 CURVE SMOOTH"
);
},
{
closed = 1;
nodes = (
"274 44 OFFCURVE",
"160 198 OFFCURVE",
"160 696 CURVE SMOOTH",
"160 1192 OFFCURVE",
"274 1346 OFFCURVE",
"440 1346 CURVE SMOOTH",
"604 1346 OFFCURVE",
"718 1192 OFFCURVE",
"718 696 CURVE SMOOTH",
"718 198 OFFCURVE",
"604 44 OFFCURVE",
"440 44 CURVE SMOOTH"
);
}
);
width = 1300;
},
{
anchors = (
{
name = bottom;
position = "{278, 0}";
},
{
name = center;
position = "{300, 700}";
},
{
name = ogonek;
position = "{300, 0}";
},
{
name = top;
position = "{282, 1400}";
},
{
name = topleft;
position = "{-58, 1400}";
},
{
name = topright;
position = "{640, 1400}";
}
);
layerId = "2E286313-D5BF-4FB4-A4B7-BD9BC13B574E";
paths = (
{
closed = 1;
nodes = (
"864 1400 LINE",
"536 1400 LINE",
"536 0 LINE",
"864 0 LINE",
"864 64 LINE",
"602 64 LINE",
"602 656 LINE",
"856 656 LINE",
"856 720 LINE",
"602 720 LINE",
"602 1336 LINE",
"864 1336 LINE"
);
},
{
closed = 1;
nodes = (
"450 -22 OFFCURVE",
"598 100 OFFCURVE",
"598 696 CURVE SMOOTH",
"598 1290 OFFCURVE",
"450 1412 OFFCURVE",
"318 1412 CURVE SMOOTH",
"184 1412 OFFCURVE",
"56 1290 OFFCURVE",
"56 696 CURVE SMOOTH",
"56 100 OFFCURVE",
"184 -22 OFFCURVE",
"318 -22 CURVE SMOOTH"
);
},
{
closed = 1;
nodes = (
"236 44 OFFCURVE",
"124 138 OFFCURVE",
"124 696 CURVE SMOOTH",
"124 1252 OFFCURVE",
"236 1346 OFFCURVE",
"318 1346 CURVE SMOOTH",
"398 1346 OFFCURVE",
"530 1252 OFFCURVE",
"530 696 CURVE SMOOTH",
"530 138 OFFCURVE",
"398 44 OFFCURVE",
"318 44 CURVE SMOOTH"
);
}
);
width = 900;
},
{
anchors = (
{
name = bottom;
position = "{848, 0}";
},
{
name = center;
position = "{862, 700}";
},
{
name = ogonek;
position = "{898, -4}";
},
{
name = top;
position = "{862, 1400}";
},
{
name = topleft;
position = "{-118, 1400}";
},
{
name = topright;
position = "{1842, 1400}";
}
);
layerId = "E338D14E-1DA5-418D-88BC-8956EEA80AB9";
paths = (
{
closed = 1;
nodes = (
"2134 1400 LINE",
"1294 1400 LINE",
"1294 0 LINE",
"2134 0 LINE",
"2134 64 LINE",
"1364 64 LINE",
"1364 656 LINE",
"2064 656 LINE",
"2064 720 LINE",
"1364 720 LINE",
"1364 1336 LINE",
"2134 1336 LINE"
);
},
{
closed = 1;
nodes = (
"990 -22 OFFCURVE",
"1358 120 OFFCURVE",
"1358 696 CURVE SMOOTH",
"1358 1270 OFFCURVE",
"990 1412 OFFCURVE",
"684 1412 CURVE SMOOTH",
"374 1412 OFFCURVE",
"6 1270 OFFCURVE",
"6 696 CURVE SMOOTH",
"6 120 OFFCURVE",
"374 -22 OFFCURVE",
"684 -22 CURVE SMOOTH"
);
},
{
closed = 1;
nodes = (
"404 44 OFFCURVE",
"82 178 OFFCURVE",
"82 696 CURVE SMOOTH",
"82 1212 OFFCURVE",
"404 1346 OFFCURVE",
"684 1346 CURVE SMOOTH",
"960 1346 OFFCURVE",
"1282 1212 OFFCURVE",
"1282 696 CURVE SMOOTH",
"1282 178 OFFCURVE",
"960 44 OFFCURVE",
"684 44 CURVE SMOOTH"
);
}
);
width = 2200;
},
{
anchors = (
{
name = bottom;
position = "{494, 0}";
},
{
name = center;
position = "{464, 700}";
},
{
name = ogonek;
position = "{472, -2}";
},
{
name = top;
position = "{496, 1400}";
},
{
name = topleft;
position = "{112, 1400}";
},
{
name = topright;
position = "{810, 1400}";
}
);
layerId = "5D8A6BC1-E275-4777-AF98-AB9B3DC0EDC1";
paths = (
{
closed = 1;
nodes = (
"898 1400 LINE",
"382 1400 LINE",
"382 0 LINE",
"898 0 LINE",
"898 270 LINE",
"754 270 LINE",
"754 554 LINE",
"866 554 LINE",
"866 822 LINE",
"754 822 LINE",
"754 1130 LINE",
"898 1130 LINE"
);
},
{
closed = 1;
nodes = (
"582 -22 OFFCURVE",
"758 134 OFFCURVE",
"758 696 CURVE SMOOTH",
"758 1256 OFFCURVE",
"582 1412 OFFCURVE",
"360 1412 CURVE SMOOTH",
"136 1412 OFFCURVE",
"-38 1256 OFFCURVE",
"-38 696 CURVE SMOOTH",
"-38 134 OFFCURVE",
"136 -22 OFFCURVE",
"360 -22 CURVE SMOOTH"
);
},
{
closed = 1;
nodes = (
"340 252 OFFCURVE",
"336 356 OFFCURVE",
"336 696 CURVE SMOOTH",
"336 1034 OFFCURVE",
"340 1138 OFFCURVE",
"360 1138 CURVE SMOOTH",
"378 1138 OFFCURVE",
"384 1034 OFFCURVE",
"384 696 CURVE SMOOTH",
"384 356 OFFCURVE",
"378 252 OFFCURVE",
"360 252 CURVE SMOOTH"
);
}
);
width = 900;
},
{
anchors = (
{
name = bottom;
position = "{572, 0}";
},
{
name = center;
position = "{530, 700}";
},
{
name = ogonek;
position = "{574, -8}";
},
{
name = top;
position = "{586, 1400}";
},
{
name = topleft;
position = "{75, 1400}";
},
{
name = topright;
position = "{1518, 1400}";
}
);
layerId = "16EBFD8D-F4C1-4BAA-8DD7-EBE82D779ED1";
paths = (
{
closed = 1;
nodes = (
"2088 1400 LINE",
"1162 1400 LINE",
"1162 0 LINE",
"2088 0 LINE",
"2088 270 LINE",
"1540 270 LINE",
"1540 554 LINE",
"2008 554 LINE",
"2008 822 LINE",
"1540 822 LINE",
"1540 1130 LINE",
"2088 1130 LINE"
);
},
{
closed = 1;
nodes = (
"1134 -22 OFFCURVE",
"1538 120 OFFCURVE",
"1538 696 CURVE SMOOTH",
"1538 1270 OFFCURVE",
"1134 1412 OFFCURVE",
"816 1412 CURVE SMOOTH",
"496 1412 OFFCURVE",
"88 1270 OFFCURVE",
"88 696 CURVE SMOOTH",
"88 120 OFFCURVE",
"496 -22 OFFCURVE",
"816 -22 CURVE SMOOTH"
);
},
{
closed = 1;
nodes = (
"614 252 OFFCURVE",
"474 366 OFFCURVE",
"474 696 CURVE SMOOTH",
"474 1024 OFFCURVE",
"614 1138 OFFCURVE",
"816 1138 CURVE SMOOTH",
"1016 1138 OFFCURVE",
"1152 1024 OFFCURVE",
"1152 696 CURVE SMOOTH",
"1152 366 OFFCURVE",
"1016 252 OFFCURVE",
"816 252 CURVE SMOOTH"
);
}
);
width = 2200;
}
);
leftKerningGroup = O;
rightKerningGroup = E;
},
{
glyphname = P;
lastChange = "2020-01-04 18:54:58 +0000";
layers = (
{
anchors = (
{
name = bottom;
position = "{550, 0}";
},
{
name = top;
position = "{550, 1400}";
}
);
layerId = "5521DC30-183F-421A-91F3-644B5E24AFE6";
paths = (
{
closed = 1;
nodes = (
"650 1130 LINE SMOOTH",
"760 1130 OFFCURVE",
"826 1088 OFFCURVE",
"826 932 CURVE SMOOTH",
"826 776 OFFCURVE",
"760 732 OFFCURVE",
"650 732 CURVE SMOOTH",
"530 732 LINE",
"530 1130 LINE"
);
},
{
closed = 1;
nodes = (
"842 462 OFFCURVE",
"1206 503 OFFCURVE",
"1206 933 CURVE SMOOTH",
"1206 1363 OFFCURVE",
"842 1400 OFFCURVE",
"674 1400 CURVE SMOOTH",
"154 1400 LINE",
"154 0 LINE",
"530 0 LINE",
"530 462 LINE",
"674 462 LINE SMOOTH"
);
}
);
width = 1300;
},
{
anchors = (
{
name = bottom;
position = "{600, 0}";
},
{
name = top;
position = "{600, 1400}";
}
);
layerId = "BE68D89F-AB3F-4BDF-B332-ED50D7C47704";
paths = (
{
closed = 1;
nodes = (
"670 1336 LINE SMOOTH",
"800 1336 OFFCURVE",
"992 1326 OFFCURVE",
"992 958 CURVE SMOOTH",
"992 590 OFFCURVE",
"800 564 OFFCURVE",
"670 564 CURVE SMOOTH",
"368 564 LINE",
"368 1336 LINE"
);
},
{
closed = 1;
nodes = (
"842 500 OFFCURVE",
"1060 566 OFFCURVE",
"1060 958 CURVE SMOOTH",
"1060 1350 OFFCURVE",
"842 1400 OFFCURVE",
"674 1400 CURVE SMOOTH",
"302 1400 LINE",
"302 0 LINE",
"368 0 LINE",
"368 500 LINE",
"674 500 LINE SMOOTH"
);
}
);
width = 1300;
},
{
anchors = (
{
name = bottom;
position = "{224, 0}";
},
{
name = top;
position = "{224, 1400}";
}
);
layerId = "2E286313-D5BF-4FB4-A4B7-BD9BC13B574E";
paths = (
{
closed = 1;
nodes = (
"442 1336 LINE SMOOTH",
"544 1336 OFFCURVE",
"652 1316 OFFCURVE",
"652 958 CURVE SMOOTH",
"652 600 OFFCURVE",
"544 564 OFFCURVE",
"442 564 CURVE SMOOTH",
"268 564 LINE",
"268 1336 LINE"
);
},
{
closed = 1;
nodes = (
"580 500 OFFCURVE",
"724 556 OFFCURVE",
"724 958 CURVE SMOOTH",
"724 1360 OFFCURVE",
"580 1400 OFFCURVE",
"438 1400 CURVE SMOOTH",
"198 1400 LINE",
"198 0 LINE",
"268 0 LINE",
"268 500 LINE",
"438 500 LINE SMOOTH"
);
}
);
width = 900;
},
{
anchors = (
{
name = bottom;
position = "{1030, 0}";
},
{
name = top;
position = "{1030, 1400}";
}
);
layerId = "E338D14E-1DA5-418D-88BC-8956EEA80AB9";
paths = (
{
closed = 1;
nodes = (
"1182 1336 LINE SMOOTH",
"1480 1336 OFFCURVE",
"1756 1296 OFFCURVE",
"1756 958 CURVE SMOOTH",
"1756 620 OFFCURVE",
"1480 564 OFFCURVE",
"1182 564 CURVE SMOOTH",
"534 564 LINE",
"534 1336 LINE"
);
},
{
closed = 1;
nodes = (
"1512 500 OFFCURVE",
"1832 586 OFFCURVE",
"1832 958 CURVE SMOOTH",
"1832 1330 OFFCURVE",
"1512 1400 OFFCURVE",
"1188 1400 CURVE SMOOTH",
"458 1400 LINE",
"458 0 LINE",
"534 0 LINE",
"534 500 LINE",
"1188 500 LINE SMOOTH"
);
}
);
width = 2200;
},
{
anchors = (
{
name = bottom;
position = "{281, 0}";
},
{
name = top;
position = "{281, 1400}";
}
);
layerId = "5D8A6BC1-E275-4777-AF98-AB9B3DC0EDC1";
paths = (
{
closed = 1;
nodes = (
"440 1130 LINE SMOOTH",
"466 1130 OFFCURVE",
"483 1098 OFFCURVE",
"483 942 CURVE SMOOTH",
"483 746 OFFCURVE",
"466 732 OFFCURVE",
"440 732 CURVE SMOOTH",
"433 732 LINE",
"433 1130 LINE"
);
},
{
closed = 1;
nodes = (
"547 462 OFFCURVE",
"855 494 OFFCURVE",
"855 954 CURVE SMOOTH",
"855 1376 OFFCURVE",
"565 1400 OFFCURVE",
"439 1400 CURVE SMOOTH",
"57 1400 LINE",
"57 0 LINE",
"433 0 LINE",
"433 462 LINE",
"439 462 LINE SMOOTH"
);
}
);
width = 900;
},
{
anchors = (
{
name = bottom;
position = "{1098, 0}";
},
{
name = top;
position = "{1098, 1400}";
}
);
layerId = "16EBFD8D-F4C1-4BAA-8DD7-EBE82D779ED1";
paths = (
{
closed = 1;
nodes = (
"1130 1130 LINE SMOOTH",
"1378 1130 OFFCURVE",
"1522 1087 OFFCURVE",
"1522 931 CURVE SMOOTH",
"1522 775 OFFCURVE",
"1378 732 OFFCURVE",
"1130 732 CURVE SMOOTH",
"734 732 LINE",
"734 1130 LINE"
);
},
{
closed = 1;
nodes = (
"1442 462 OFFCURVE",
"1918 501 OFFCURVE",
"1918 931 CURVE SMOOTH",
"1918 1361 OFFCURVE",
"1444 1400 OFFCURVE",
"1154 1400 CURVE SMOOTH",
"358 1400 LINE",
"358 0 LINE",
"734 0 LINE",
"734 462 LINE",
"1154 462 LINE SMOOTH"
);
}
);
width = 2200;
}
);
leftKerningGroup = H;
rightKerningGroup = P;
unicode = 0050;
},
{
glyphname = Thorn;
lastChange = "2020-01-04 19:23:26 +0000";
layers = (
{
anchors = (
{
name = bottom;
position = "{600, 0}";
},
{
name = top;
position = "{600, 1400}";
}
);
layerId = "5521DC30-183F-421A-91F3-644B5E24AFE6";
paths = (
{
closed = 1;
nodes = (
"508 1176 LINE",
"508 1400 LINE",
"134 1400 LINE",
"134 0 LINE",
"508 0 LINE",
"508 256 LINE",
"654 256 LINE SMOOTH",
"822 256 OFFCURVE",
"1148 292 OFFCURVE",
"1148 734 CURVE SMOOTH",
"1148 1156 OFFCURVE",
"822 1176 OFFCURVE",
"654 1176 CURVE SMOOTH"
);
},
{
closed = 1;
nodes = (
"508 526 LINE",
"508 906 LINE",
"628 906 LINE SMOOTH",
"708 906 OFFCURVE",
"772 896 OFFCURVE",
"772 734 CURVE SMOOTH",
"772 552 OFFCURVE",
"708 526 OFFCURVE",
"628 526 CURVE SMOOTH"
);
}
);
width = 1300;
},
{
anchors = (
{
name = bottom;
position = "{600, 0}";
},
{
name = top;
position = "{600, 1400}";
}
);
layerId = "BE68D89F-AB3F-4BDF-B332-ED50D7C47704";
paths = (
{
closed = 1;
nodes = (
"368 1176 LINE",
"368 1400 LINE",
"302 1400 LINE",
"302 0 LINE",
"368 0 LINE",
"368 256 LINE",
"604 256 LINE SMOOTH",
"772 256 OFFCURVE",
"1040 292 OFFCURVE",
"1040 734 CURVE SMOOTH",
"1040 1156 OFFCURVE",
"772 1176 OFFCURVE",
"604 1176 CURVE SMOOTH"
);
},
{
closed = 1;
nodes = (
"368 320 LINE",
"368 1112 LINE",
"630 1112 LINE SMOOTH",
"760 1112 OFFCURVE",
"972 1102 OFFCURVE",
"972 734 CURVE SMOOTH",
"972 346 OFFCURVE",
"760 320 OFFCURVE",
"630 320 CURVE SMOOTH"
);
}
);
width = 1300;
},
{
anchors = (
{
name = bottom;
position = "{428, 0}";
},
{
name = top;
position = "{428, 1400}";
}
);
layerId = "2E286313-D5BF-4FB4-A4B7-BD9BC13B574E";
paths = (
{
closed = 1;
nodes = (
"244 1176 LINE",
"244 1400 LINE",
"174 1400 LINE",
"174 0 LINE",
"244 0 LINE",
"244 256 LINE",
"412 256 LINE SMOOTH",
"538 256 OFFCURVE",
"726 292 OFFCURVE",
"726 734 CURVE SMOOTH",
"726 1156 OFFCURVE",
"538 1176 OFFCURVE",
"412 1176 CURVE SMOOTH"
);
},
{
closed = 1;
nodes = (
"244 320 LINE",
"244 1112 LINE",
"430 1112 LINE SMOOTH",
"528 1112 OFFCURVE",
"656 1102 OFFCURVE",
"656 734 CURVE SMOOTH",
"656 346 OFFCURVE",
"528 320 OFFCURVE",
"430 320 CURVE SMOOTH"
);
}
);
width = 900;
},
{
anchors = (
{
name = bottom;
position = "{1050, 0}";
},
{
name = top;
position = "{1050, 1400}";
}
);
layerId = "E338D14E-1DA5-418D-88BC-8956EEA80AB9";
paths = (
{
closed = 1;
nodes = (
"534 1176 LINE",
"534 1400 LINE",
"468 1400 LINE",
"468 0 LINE",
"534 0 LINE",
"534 256 LINE",
"1028 256 LINE SMOOTH",
"1292 256 OFFCURVE",
"1678 292 OFFCURVE",
"1678 734 CURVE SMOOTH",
"1678 1156 OFFCURVE",
"1292 1176 OFFCURVE",
"1028 1176 CURVE SMOOTH"
);
},
{
closed = 1;
nodes = (
"534 320 LINE",
"534 1112 LINE",
"1032 1112 LINE SMOOTH",
"1260 1112 OFFCURVE",
"1602 1102 OFFCURVE",
"1602 734 CURVE SMOOTH",
"1602 346 OFFCURVE",
"1260 320 OFFCURVE",
"1032 320 CURVE SMOOTH"
);
}
);
width = 2200;
},
{
anchors = (
{
name = bottom;
position = "{418, 0}";
},
{
name = top;
position = "{418, 1400}";
}
);
layerId = "5D8A6BC1-E275-4777-AF98-AB9B3DC0EDC1";
paths = (
{
closed = 1;
nodes = (
"426 1176 LINE",
"426 1400 LINE",
"50 1400 LINE",
"50 0 LINE",
"426 0 LINE",
"426 256 LINE",
"446 256 LINE SMOOTH",
"560 256 OFFCURVE",
"852 292 OFFCURVE",
"852 724 CURVE SMOOTH",
"852 1156 OFFCURVE",
"560 1176 OFFCURVE",
"446 1176 CURVE SMOOTH"
);
},
{
closed = 1;
nodes = (
"426 526 LINE",
"426 906 LINE",
"437 906 LINE SMOOTH",
"469 906 OFFCURVE",
"476 886 OFFCURVE",
"476 724 CURVE SMOOTH",
"476 542 OFFCURVE",
"469 526 OFFCURVE",
"437 526 CURVE SMOOTH"
);
}
);
width = 900;
},
{
anchors = (
{
name = bottom;
position = "{1052, 0}";
},
{
name = top;
position = "{1052, 1400}";
}
);
layerId = "16EBFD8D-F4C1-4BAA-8DD7-EBE82D779ED1";
paths = (
{
closed = 1;
nodes = (
"760 1176 LINE",
"760 1400 LINE",
"390 1400 LINE",
"390 0 LINE",
"760 0 LINE",
"760 256 LINE",
"1136 256 LINE SMOOTH",
"1412 256 OFFCURVE",
"1828 292 OFFCURVE",
"1828 734 CURVE SMOOTH",
"1828 1156 OFFCURVE",
"1412 1176 OFFCURVE",
"1136 1176 CURVE SMOOTH"
);
},
{
closed = 1;
nodes = (
"760 526 LINE",
"760 906 LINE",
"1116 906 LINE SMOOTH",
"1330 906 OFFCURVE",
"1452 896 OFFCURVE",
"1452 734 CURVE SMOOTH",
"1452 552 OFFCURVE",
"1330 526 OFFCURVE",
"1116 526 CURVE SMOOTH"
);
}
);
width = 2200;
}
);
leftKerningGroup = H;
rightKerningGroup = Thorn;
unicode = 00DE;
},
{
glyphname = Q;
lastChange = "2020-01-04 16:50:41 +0000";
layers = (
{
anchors = (
{
name = bottom;
position = "{650, 0}";
},
{
name = top;
position = "{650, 1400}";
}
);
components = (
{
name = O;
}
);
layerId = "5521DC30-183F-421A-91F3-644B5E24AFE6";
paths = (
{
closed = 1;
nodes = (
"786 0 LINE",
"502 0 LINE",
"502 -360 LINE",
"1136 -360 LINE",
"1136 -96 LINE",
"756 -96 LINE",
"786 -126 LINE"
);
}
);
width = 1300;
},
{
anchors = (
{
name = bottom;
position = "{600, 0}";
},
{
name = top;
position = "{600, 1400}";
}
);
components = (
{
name = O;
}
);
layerId = "BE68D89F-AB3F-4BDF-B332-ED50D7C47704";
paths = (
{
closed = 1;
nodes = (
"632 0 LINE",
"568 0 LINE",
"568 -268 LINE",
"982 -268 LINE",
"982 -204 LINE",
"602 -204 LINE",
"632 -234 LINE"
);
}
);
width = 1300;
},
{
anchors = (
{
name = bottom;
position = "{600, 0}";
},
{
name = top;
position = "{600, 1400}";
}
);
components = (
{
name = O;
transform = "{1, 0, 0, 1, -2, 0}";
}
);
layerId = "2E286313-D5BF-4FB4-A4B7-BD9BC13B574E";
paths = (
{
closed = 1;
nodes = (
"494 0 LINE",
"430 0 LINE",
"430 -248 LINE",
"728 -248 LINE",
"728 -184 LINE",
"464 -184 LINE",
"494 -214 LINE"
);
}
);
width = 900;
},
{
anchors = (
{
name = bottom;
position = "{1050, 0}";
},
{
name = top;
position = "{1050, 1400}";
}
);
components = (
{
name = O;
}
);
layerId = "E338D14E-1DA5-418D-88BC-8956EEA80AB9";
paths = (
{
closed = 1;
nodes = (
"1092 0 LINE",
"1028 0 LINE",
"1028 -268 LINE",
"1902 -268 LINE",
"1902 -204 LINE",
"1062 -204 LINE",
"1092 -234 LINE"
);
}
);
width = 2200;
},
{
anchors = (
{
name = bottom;
position = "{488, 0}";
},
{
name = top;
position = "{526, 1400}";
}
);
components = (
{
alignment = -1;
name = O;
}
);
layerId = "5D8A6BC1-E275-4777-AF98-AB9B3DC0EDC1";
paths = (
{
closed = 1;
nodes = (
"586 40 LINE",
"322 40 LINE",
"322 -360 LINE",
"778 -360 LINE",
"778 -96 LINE",
"566 -96 LINE",
"586 -126 LINE"
);
}
);
width = 900;
},
{
anchors = (
{
name = bottom;
position = "{1035, 0}";
},
{
name = top;
position = "{898, 1400}";
}
);
components = (
{
alignment = -1;
name = O;
}
);
layerId = "16EBFD8D-F4C1-4BAA-8DD7-EBE82D779ED1";
paths = (
{
closed = 1;
nodes = (
"1207 79 LINE",
"873 79 LINE",
"873 -360 LINE",
"1873 -360 LINE",
"1873 -96 LINE",
"1157 -96 LINE",
"1207 -126 LINE"
);
}
);
width = 2200;
}
);
leftKerningGroup = O;
rightKerningGroup = O;
unicode = 0051;
},
{
glyphname = R;
lastChange = "2020-01-04 16:52:28 +0000";
layers = (
{
anchors = (
{
name = bottom;
position = "{554, 0}";
},
{
name = top;
position = "{554, 1400}";
}
);
layerId = "5521DC30-183F-421A-91F3-644B5E24AFE6";
paths = (
{
closed = 1;
nodes = (
"640 1130 LINE SMOOTH",
"778 1130 OFFCURVE",
"836 1096 OFFCURVE",
"836 969 CURVE SMOOTH",
"836 849 OFFCURVE",
"778 806 OFFCURVE",
"640 806 CURVE SMOOTH",
"510 806 LINE",
"510 1130 LINE"
);
},
{
closed = 1;
nodes = (
"850 538 OFFCURVE",
"1208 574 OFFCURVE",
"1208 982 CURVE SMOOTH",
"1208 1358 OFFCURVE",
"880 1400 OFFCURVE",
"712 1400 CURVE SMOOTH",
"136 1400 LINE",
"136 0 LINE",
"510 0 LINE",
"510 538 LINE",
"702 538 LINE SMOOTH"
);
},
{
closed = 1;
nodes = (
"1212 0 LINE",
"1009 682 LINE",
"663 644 LINE",
"816 0 LINE"
);
}
);
width = 1300;
},
{
anchors = (
{
name = bottom;
position = "{600, 0}";
},
{
name = top;
position = "{600, 1400}";
}
);
layerId = "BE68D89F-AB3F-4BDF-B332-ED50D7C47704";
paths = (
{
closed = 1;
nodes = (
"692 1336 LINE SMOOTH",
"822 1336 OFFCURVE",
"934 1266 OFFCURVE",
"934 1048 CURVE SMOOTH",
"934 828 OFFCURVE",
"832 744 OFFCURVE",
"702 744 CURVE SMOOTH",
"310 744 LINE",
"310 1336 LINE"
);
},
{
closed = 1;
nodes = (
"834 680 OFFCURVE",
"1002 750 OFFCURVE",
"1002 1048 CURVE SMOOTH",
"1002 1366 OFFCURVE",
"800 1400 OFFCURVE",
"632 1400 CURVE SMOOTH",
"244 1400 LINE",
"244 0 LINE",
"310 0 LINE",
"310 680 LINE",
"686 680 LINE SMOOTH"
);
},
{
closed = 1;
nodes = (
"968 0 LINE",
"762 714 LINE",
"690 706 LINE",
"896 0 LINE"
);
}
);
width = 1300;
},
{
anchors = (
{
name = bottom;
position = "{372, 0}";
},
{
name = top;
position = "{372, 1400}";
}
);
layerId = "2E286313-D5BF-4FB4-A4B7-BD9BC13B574E";
paths = (
{
closed = 1;
nodes = (
"462 1336 LINE SMOOTH",
"592 1336 OFFCURVE",
"656 1226 OFFCURVE",
"656 1028 CURVE SMOOTH",
"656 828 OFFCURVE",
"598 704 OFFCURVE",
"468 704 CURVE SMOOTH",
"262 704 LINE",
"262 1336 LINE"
);
},
{
closed = 1;
nodes = (
"604 640 OFFCURVE",
"724 754 OFFCURVE",
"724 1028 CURVE SMOOTH",
"724 1306 OFFCURVE",
"626 1400 OFFCURVE",
"458 1400 CURVE SMOOTH",
"196 1400 LINE",
"196 0 LINE",
"262 0 LINE",
"262 640 LINE",
"518 640 LINE SMOOTH"
);
},
{
closed = 1;
nodes = (
"718 0 LINE",
"576 706 LINE",
"522 666 LINE",
"646 0 LINE"
);
}
);
width = 900;
},
{
anchors = (
{
name = bottom;
position = "{1030, 0}";
},
{
name = top;
position = "{1030, 1400}";
}
);
layerId = "E338D14E-1DA5-418D-88BC-8956EEA80AB9";
paths = (
{
closed = 1;
nodes = (
"1304 1336 LINE SMOOTH",
"1612 1336 OFFCURVE",
"1768 1256 OFFCURVE",
"1768 1028 CURVE SMOOTH",
"1768 798 OFFCURVE",
"1618 704 OFFCURVE",
"1322 704 CURVE SMOOTH",
"480 704 LINE",
"480 1336 LINE"
);
},
{
closed = 1;
nodes = (
"1634 640 OFFCURVE",
"1844 760 OFFCURVE",
"1844 1028 CURVE SMOOTH",
"1844 1316 OFFCURVE",
"1630 1400 OFFCURVE",
"1280 1400 CURVE SMOOTH",
"404 1400 LINE",
"404 0 LINE",
"480 0 LINE",
"480 640 LINE",
"1318 640 LINE SMOOTH"
);
},
{
closed = 1;
nodes = (
"1851 0 LINE",
"1398 670 LINE",
"1315 666 LINE",
"1763 0 LINE"
);
}
);
width = 2200;
},
{
anchors = (
{
name = bottom;
position = "{332, 0}";
},
{
name = top;
position = "{332, 1400}";
}
);
layerId = "5D8A6BC1-E275-4777-AF98-AB9B3DC0EDC1";
paths = (
{
closed = 1;
nodes = (
"452 1130 LINE SMOOTH",
"476 1130 OFFCURVE",
"488 1078 OFFCURVE",
"488 974 CURVE SMOOTH",
"488 850 OFFCURVE",
"480 800 OFFCURVE",
"452 800 CURVE SMOOTH",
"440 800 LINE",
"440 1130 LINE"
);
},
{
closed = 1;
nodes = (
"592 570 OFFCURVE",
"862 618 OFFCURVE",
"862 990 CURVE SMOOTH",
"862 1312 OFFCURVE",
"666 1400 OFFCURVE",
"526 1400 CURVE SMOOTH",
"66 1400 LINE",
"66 0 LINE",
"440 0 LINE",
"440 570 LINE",
"496 570 LINE SMOOTH"
);
},
{
closed = 1;
nodes = (
"874 0 LINE",
"762 696 LINE",
"450 608 LINE",
"502 0 LINE"
);
}
);
width = 900;
},
{
anchors = (
{
name = bottom;
position = "{998, 0}";
},
{
name = top;
position = "{998, 1400}";
}
);
layerId = "16EBFD8D-F4C1-4BAA-8DD7-EBE82D779ED1";
paths = (
{
closed = 1;
nodes = (
"1202 1130 LINE SMOOTH",
"1398 1130 OFFCURVE",
"1502 1102 OFFCURVE",
"1502 939 CURVE SMOOTH",
"1502 776 OFFCURVE",
"1390 748 OFFCURVE",
"1202 748 CURVE SMOOTH",
"650 748 LINE",
"650 1130 LINE"
);
},
{
closed = 1;
nodes = (
"1502 474 OFFCURVE",
"1900 494 OFFCURVE",
"1900 966 CURVE SMOOTH",
"1900 1380 OFFCURVE",
"1444 1400 OFFCURVE",
"1220 1400 CURVE SMOOTH",
"276 1400 LINE",
"276 0 LINE",
"650 0 LINE",
"650 474 LINE",
"1250 474 LINE SMOOTH"
);
},
{
closed = 1;
nodes = (
"1888 0 LINE",
"1503 654 LINE",
"1090 654 LINE",
"1444 0 LINE"
);
}
);
width = 2200;
}
);
leftKerningGroup = H;
rightKerningGroup = R;
unicode = 0052;
},
{
glyphname = S;
lastChange = "2020-01-04 18:54:03 +0000";
layers = (
{
anchors = (
{
name = bottom;
position = "{618, -2}";
},
{
name = top;
position = "{636, 1400}";
}
);
layerId = "5521DC30-183F-421A-91F3-644B5E24AFE6";
paths = (
{
closed = 1;
nodes = (
"46 290 LINE",
"140 90 OFFCURVE",
"364 -22 OFFCURVE",
"630 -22 CURVE SMOOTH",
"898 -22 OFFCURVE",
"1210 70 OFFCURVE",
"1210 394 CURVE SMOOTH",
"1210 686 OFFCURVE",
"892 798 OFFCURVE",
"700 862 CURVE SMOOTH",
"558 910 OFFCURVE",
"466 959 OFFCURVE",
"466 1027 CURVE SMOOTH",
"466 1102 OFFCURVE",
"552 1132 OFFCURVE",
"648 1132 CURVE SMOOTH",
"752 1132 OFFCURVE",
"813 1059 OFFCURVE",
"846 968 CURVE",
"1186 1118 LINE",
"1128 1278 OFFCURVE",
"914 1412 OFFCURVE",
"652 1412 CURVE SMOOTH",
"386 1412 OFFCURVE",
"76 1312 OFFCURVE",
"76 1026 CURVE SMOOTH",
"76 740 OFFCURVE",
"347 631 OFFCURVE",
"572 556 CURVE SMOOTH",
"722 506 OFFCURVE",
"828 458 OFFCURVE",
"828 380 CURVE SMOOTH",
"828 296 OFFCURVE",
"749 258 OFFCURVE",
"633 258 CURVE SMOOTH",
"517 258 OFFCURVE",
"428 374 OFFCURVE",
"402 446 CURVE"
);
}
);
width = 1300;
},
{
anchors = (
{
name = bottom;
position = "{612, 0}";
},
{
name = top;
position = "{600, 1400}";
}
);
layerId = "BE68D89F-AB3F-4BDF-B332-ED50D7C47704";
paths = (
{
closed = 1;
nodes = (
"140 208 LINE",
"226 54 OFFCURVE",
"394 -22 OFFCURVE",
"612 -22 CURVE SMOOTH",
"882 -22 OFFCURVE",
"1064 122 OFFCURVE",
"1064 370 CURVE SMOOTH",
"1064 616 OFFCURVE",
"854 693 OFFCURVE",
"606 764 CURVE SMOOTH",
"412 820 OFFCURVE",
"246 889 OFFCURVE",
"246 1082 CURVE SMOOTH",
"246 1252 OFFCURVE",
"441 1346 OFFCURVE",
"623 1346 CURVE SMOOTH",
"791 1346 OFFCURVE",
"910 1284 OFFCURVE",
"972 1154 CURVE",
"1038 1188 LINE",
"966 1332 OFFCURVE",
"812 1412 OFFCURVE",
"624 1412 CURVE SMOOTH",
"402 1412 OFFCURVE",
"176 1296 OFFCURVE",
"176 1080 CURVE SMOOTH",
"176 860 OFFCURVE",
"343 765 OFFCURVE",
"587 696 CURVE SMOOTH",
"779 642 OFFCURVE",
"994 569 OFFCURVE",
"994 366 CURVE SMOOTH",
"994 172 OFFCURVE",
"848 44 OFFCURVE",
"612 44 CURVE SMOOTH",
"426 44 OFFCURVE",
"286 106 OFFCURVE",
"212 244 CURVE"
);
}
);
width = 1300;
},
{
anchors = (
{
name = bottom;
position = "{448, 0}";
},
{
name = top;
position = "{460, 1400}";
}
);
layerId = "2E286313-D5BF-4FB4-A4B7-BD9BC13B574E";
paths = (
{
closed = 1;
nodes = (
"144 228 LINE",
"178 118 OFFCURVE",
"268 -22 OFFCURVE",
"448 -22 CURVE SMOOTH",
"604 -22 OFFCURVE",
"756 84 OFFCURVE",
"756 300 CURVE SMOOTH",
"756 542 OFFCURVE",
"632 632 OFFCURVE",
"452 754 CURVE SMOOTH",
"298 859 OFFCURVE",
"236 950 OFFCURVE",
"236 1110 CURVE SMOOTH",
"236 1242 OFFCURVE",
"326 1346 OFFCURVE",
"450 1346 CURVE SMOOTH",
"606 1346 OFFCURVE",
"660 1216 OFFCURVE",
"676 1096 CURVE",
"742 1122 LINE",
"722 1256 OFFCURVE",
"626 1412 OFFCURVE",
"450 1412 CURVE SMOOTH",
"284 1412 OFFCURVE",
"168 1274 OFFCURVE",
"168 1106 CURVE SMOOTH",
"168 930 OFFCURVE",
"259 804 OFFCURVE",
"423 692 CURVE SMOOTH",
"619 558 OFFCURVE",
"686 484 OFFCURVE",
"686 296 CURVE SMOOTH",
"686 164 OFFCURVE",
"608 44 OFFCURVE",
"448 44 CURVE SMOOTH",
"296 44 OFFCURVE",
"236 168 OFFCURVE",
"212 262 CURVE"
);
}
);
width = 900;
},
{
anchors = (
{
name = bottom;
position = "{1108, 0}";
},
{
name = top;
position = "{1086, 1400}";
}
);
layerId = "E338D14E-1DA5-418D-88BC-8956EEA80AB9";
paths = (
{
closed = 1;
nodes = (
"302 188 LINE",
"420 106 OFFCURVE",
"674 -22 OFFCURVE",
"1088 -22 CURVE SMOOTH",
"1594 -22 OFFCURVE",
"1898 102 OFFCURVE",
"1898 340 CURVE SMOOTH",
"1898 556 OFFCURVE",
"1595 655 OFFCURVE",
"1093 742 CURVE SMOOTH",
"735 804 OFFCURVE",
"462 880 OFFCURVE",
"462 1056 CURVE SMOOTH",
"462 1250 OFFCURVE",
"794 1346 OFFCURVE",
"1130 1346 CURVE SMOOTH",
"1466 1346 OFFCURVE",
"1690 1250 OFFCURVE",
"1798 1176 CURVE",
"1848 1232 LINE",
"1722 1320 OFFCURVE",
"1494 1412 OFFCURVE",
"1130 1412 CURVE SMOOTH",
"706 1412 OFFCURVE",
"382 1290 OFFCURVE",
"382 1050 CURVE SMOOTH",
"382 840 OFFCURVE",
"643 756 OFFCURVE",
"1081 676 CURVE SMOOTH",
"1563 588 OFFCURVE",
"1818 516 OFFCURVE",
"1818 334 CURVE SMOOTH",
"1818 150 OFFCURVE",
"1536 44 OFFCURVE",
"1088 44 CURVE SMOOTH",
"722 44 OFFCURVE",
"458 160 OFFCURVE",
"352 244 CURVE"
);
}
);
width = 2200;
},
{
anchors = (
{
name = bottom;
position = "{436, -2}";
},
{
name = top;
position = "{468, 1400}";
}
);
layerId = "5D8A6BC1-E275-4777-AF98-AB9B3DC0EDC1";
paths = (
{
closed = 1;
nodes = (
"22 308 LINE",
"64 118 OFFCURVE",
"216 -22 OFFCURVE",
"434 -22 CURVE SMOOTH",
"630 -22 OFFCURVE",
"874 48 OFFCURVE",
"874 356 CURVE SMOOTH",
"874 598 OFFCURVE",
"644 774 OFFCURVE",
"545 848 CURVE SMOOTH",
"449 920 OFFCURVE",
"392 992 OFFCURVE",
"392 1052 CURVE SMOOTH",
"392 1104 OFFCURVE",
"414 1132 OFFCURVE",
"454 1132 CURVE SMOOTH",
"512 1132 OFFCURVE",
"539 1010 OFFCURVE",
"546 918 CURVE",
"880 1070 LINE",
"850 1262 OFFCURVE",
"684 1412 OFFCURVE",
"462 1412 CURVE SMOOTH",
"248 1412 OFFCURVE",
"26 1306 OFFCURVE",
"26 1046 CURVE SMOOTH",
"26 803 OFFCURVE",
"264 608 OFFCURVE",
"358 532 CURVE SMOOTH",
"435 470 OFFCURVE",
"508 398 OFFCURVE",
"508 342 CURVE SMOOTH",
"508 292 OFFCURVE",
"488 258 OFFCURVE",
"454 258 CURVE SMOOTH",
"396 258 OFFCURVE",
"361 396 OFFCURVE",
"358 462 CURVE"
);
}
);
width = 900;
},
{
anchors = (
{
name = bottom;
position = "{1032, -2}";
},
{
name = top;
position = "{1022, 1400}";
}
);
layerId = "16EBFD8D-F4C1-4BAA-8DD7-EBE82D779ED1";
paths = (
{
closed = 1;
nodes = (
"204 119 LINE",
"355 58 OFFCURVE",
"682 -22 OFFCURVE",
"1021 -22 CURVE SMOOTH",
"1441 -22 OFFCURVE",
"1932 74 OFFCURVE",
"1932 430 CURVE SMOOTH",
"1932 762 OFFCURVE",
"1499 834 OFFCURVE",
"1134 860 CURVE SMOOTH",
"812 883 OFFCURVE",
"664 913 OFFCURVE",
"664 997 CURVE SMOOTH",
"664 1088 OFFCURVE",
"878 1132 OFFCURVE",
"1086 1132 CURVE SMOOTH",
"1288 1132 OFFCURVE",
"1498 1077 OFFCURVE",
"1599 1036 CURVE",
"1828 1298 LINE",
"1686 1347 OFFCURVE",
"1394 1412 OFFCURVE",
"1115 1412 CURVE SMOOTH",
"702 1412 OFFCURVE",
"256 1314 OFFCURVE",
"256 996 CURVE SMOOTH",
"256 694 OFFCURVE",
"596 570 OFFCURVE",
"974 544 CURVE SMOOTH",
"1326 520 OFFCURVE",
"1523 494 OFFCURVE",
"1523 402 CURVE SMOOTH",
"1523 310 OFFCURVE",
"1321 258 OFFCURVE",
"1041 258 CURVE SMOOTH",
"771 258 OFFCURVE",
"539 330 OFFCURVE",
"440 384 CURVE"
);
}
);
width = 2200;
}
);
leftKerningGroup = S;
rightKerningGroup = S;
unicode = 0053;
},
{
glyphname = Germandbls;
lastChange = "2020-01-29 00:53:47 +0000";
layers = (
{
layerId = "BE68D89F-AB3F-4BDF-B332-ED50D7C47704";
paths = (
{
closed = 1;
nodes = (
"1007 1335 LINE",
"1007 1400 LINE",
"534 1400 LINE",
"318 1400 OFFCURVE",
"210 1282 OFFCURVE",
"210 1054 CURVE SMOOTH",
"210 0 LINE",
"276 0 LINE",
"276 1042 LINE SMOOTH",
"276 1274 OFFCURVE",
"366 1334 OFFCURVE",
"534 1334 CURVE",
"926 1334 LINE",
"573 827 LINE",
"616 774 LINE",
"817 774 OFFCURVE",
"1016 718 OFFCURVE",
"1016 418 CURVE SMOOTH",
"1016 128 OFFCURVE",
"816 44 OFFCURVE",
"656 44 CURVE SMOOTH",
"522 44 OFFCURVE",
"450 66 OFFCURVE",
"414 80 CURVE",
"386 14 LINE",
"436 -4 OFFCURVE",
"518 -22 OFFCURVE",
"656 -22 CURVE SMOOTH",
"878 -22 OFFCURVE",
"1088 120 OFFCURVE",
"1088 418 CURVE SMOOTH",
"1088 744 OFFCURVE",
"842 836 OFFCURVE",
"655 836 CURVE"
);
}
);
width = 1300;
},
{
layerId = "5521DC30-183F-421A-91F3-644B5E24AFE6";
paths = (
{
closed = 1;
nodes = (
"1166 1135 LINE",
"1166 1400 LINE",
"644 1400 LINE",
"368 1400 OFFCURVE",
"70 1284 OFFCURVE",
"70 928 CURVE SMOOTH",
"70 0 LINE",
"444 0 LINE",
"444 896 LINE SMOOTH",
"444 1045 OFFCURVE",
"520 1120 OFFCURVE",
"618 1120 CURVE",
"784 1120 LINE",
"535 774 LINE",
"693 589 LINE",
"809 589 OFFCURVE",
"888 532 OFFCURVE",
"888 433 CURVE SMOOTH",
"888 335 OFFCURVE",
"816 276 OFFCURVE",
"696 276 CURVE SMOOTH",
"648 276 OFFCURVE",
"594 280 OFFCURVE",
"552 292 CURVE",
"516 0 LINE",
"564 -14 OFFCURVE",
"636 -22 OFFCURVE",
"696 -22 CURVE SMOOTH",
"958 -22 OFFCURVE",
"1236 83 OFFCURVE",
"1236 431 CURVE SMOOTH",
"1236 694 OFFCURVE",
"1050 796 OFFCURVE",
"911 796 CURVE"
);
}
);
width = 1300;
},
{
layerId = "2E286313-D5BF-4FB4-A4B7-BD9BC13B574E";
paths = (
{
closed = 1;
nodes = (
"727 1335 LINE",
"727 1400 LINE",
"464 1400 LINE",
"248 1400 OFFCURVE",
"140 1282 OFFCURVE",
"140 1054 CURVE SMOOTH",
"140 0 LINE",
"206 0 LINE",
"206 1042 LINE SMOOTH",
"206 1274 OFFCURVE",
"296 1334 OFFCURVE",
"464 1334 CURVE",
"646 1334 LINE",
"363 827 LINE",
"406 774 LINE",
"607 774 OFFCURVE",
"706 718 OFFCURVE",
"706 418 CURVE SMOOTH",
"706 128 OFFCURVE",
"586 44 OFFCURVE",
"466 44 CURVE SMOOTH",
"382 44 OFFCURVE",
"337 63 OFFCURVE",
"304 80 CURVE",
"276 14 LINE",
"316 -6 OFFCURVE",
"378 -22 OFFCURVE",
"466 -22 CURVE SMOOTH",
"642 -22 OFFCURVE",
"778 120 OFFCURVE",
"778 418 CURVE SMOOTH",
"778 744 OFFCURVE",
"632 836 OFFCURVE",
"445 836 CURVE"
);
}
);
width = 900;
},
{
layerId = "5D8A6BC1-E275-4777-AF98-AB9B3DC0EDC1";
paths = (
{
closed = 1;
nodes = (
"866 1135 LINE",
"866 1400 LINE",
"348 1400 LINE",
"148 1400 OFFCURVE",
"30 1257 OFFCURVE",
"30 1038 CURVE SMOOTH",
"30 0 LINE",
"360 0 LINE",
"360 996 LINE SMOOTH",
"360 1080 OFFCURVE",
"379 1120 OFFCURVE",
"450 1120 CURVE",
"541 1120 LINE",
"395 776 LINE",
"464 583 LINE",
"525 583 OFFCURVE",
"571 532 OFFCURVE",
"571 433 CURVE SMOOTH",
"571 355 OFFCURVE",
"534 276 OFFCURVE",
"470 276 CURVE SMOOTH",
"443 276 OFFCURVE",
"431 280 OFFCURVE",
"412 292 CURVE",
"412 0 LINE",
"418 -4 OFFCURVE",
"459 -12 OFFCURVE",
"502 -12 CURVE SMOOTH",
"692 -12 OFFCURVE",
"893 83 OFFCURVE",
"893 431 CURVE SMOOTH",
"893 694 OFFCURVE",
"758 796 OFFCURVE",
"698 796 CURVE"
);
}
);
width = 900;
},
{
layerId = "E338D14E-1DA5-418D-88BC-8956EEA80AB9";
paths = (
{
closed = 1;
nodes = (
"1629 1335 LINE",
"1629 1400 LINE",
"534 1400 LINE",
"318 1400 OFFCURVE",
"205 1282 OFFCURVE",
"205 1054 CURVE SMOOTH",
"205 0 LINE",
"276 0 LINE",
"276 1042 LINE SMOOTH",
"276 1274 OFFCURVE",
"366 1334 OFFCURVE",
"534 1334 CURVE",
"1508 1334 LINE",
"801 842 LINE",
"854 774 LINE",
"1260 774 OFFCURVE",
"1704 718 OFFCURVE",
"1704 418 CURVE SMOOTH",
"1704 128 OFFCURVE",
"1329 44 OFFCURVE",
"964 44 CURVE SMOOTH",
"693 44 OFFCURVE",
"538 98 OFFCURVE",
"502 112 CURVE",
"472 44 LINE",
"522 26 OFFCURVE",
"689 -22 OFFCURVE",
"964 -22 CURVE SMOOTH",
"1391 -22 OFFCURVE",
"1786 100 OFFCURVE",
"1786 418 CURVE SMOOTH",
"1786 764 OFFCURVE",
"1306 838 OFFCURVE",
"914 838 CURVE"
);
}
);
width = 2200;
},
{
layerId = "16EBFD8D-F4C1-4BAA-8DD7-EBE82D779ED1";
paths = (
{
closed = 1;
nodes = (
"1766 1135 LINE",
"1766 1400 LINE",
"778 1400 LINE",
"382 1400 OFFCURVE",
"150 1211 OFFCURVE",
"150 816 CURVE SMOOTH",
"150 0 LINE",
"612 0 LINE",
"612 754 LINE SMOOTH",
"612 1033 OFFCURVE",
"704 1120 OFFCURVE",
"876 1120 CURVE",
"1230 1120 LINE",
"834 830 LINE",
"1058 601 LINE",
"1284 601 OFFCURVE",
"1522 565 OFFCURVE",
"1522 434 CURVE SMOOTH",
"1522 296 OFFCURVE",
"1380 266 OFFCURVE",
"1148 266 CURVE SMOOTH",
"1058 266 OFFCURVE",
"920 280 OFFCURVE",
"852 302 CURVE",
"724 0 LINE",
"856 -34 OFFCURVE",
"1019 -42 OFFCURVE",
"1113 -42 CURVE SMOOTH",
"1519 -42 OFFCURVE",
"1922 103 OFFCURVE",
"1922 431 CURVE SMOOTH",
"1922 714 OFFCURVE",
"1634 816 OFFCURVE",
"1337 816 CURVE"
);
}
);
width = 2200;
}
);
unicode = 1E9E;
},
{
glyphname = T;
lastChange = "2020-01-04 19:54:33 +0000";
layers = (
{
anchors = (
{
name = bottom;
position = "{648, 0}";
},
{
name = center;
position = "{648, 700}";
},
{
name = top;
position = "{648, 1400}";
}
);
layerId = "5521DC30-183F-421A-91F3-644B5E24AFE6";
paths = (
{
closed = 1;
nodes = (
"102 1400 LINE",
"102 1130 LINE",
"458 1130 LINE",
"458 0 LINE",
"832 0 LINE",
"832 1130 LINE",
"1190 1130 LINE",
"1190 1400 LINE"
);
}
);
width = 1300;
},
{
anchors = (
{
name = bottom;
position = "{621, 0}";
},
{
name = center;
position = "{632, 700}";
},
{
name = top;
position = "{632, 1400}";
}
);
layerId = "BE68D89F-AB3F-4BDF-B332-ED50D7C47704";
paths = (
{
closed = 1;
nodes = (
"158 1400 LINE",
"158 1336 LINE",
"596 1336 LINE",
"596 0 LINE",
"662 0 LINE",
"662 1336 LINE",
"1102 1336 LINE",
"1102 1400 LINE"
);
}
);
width = 1300;
},
{
anchors = (
{
name = bottom;
position = "{444, 0}";
},
{
name = center;
position = "{454, 700}";
},
{
name = top;
position = "{454, 1400}";
}
);
layerId = "2E286313-D5BF-4FB4-A4B7-BD9BC13B574E";
paths = (
{
closed = 1;
nodes = (
"138 1400 LINE",
"138 1336 LINE",
"418 1336 LINE",
"418 0 LINE",
"484 0 LINE",
"484 1336 LINE",
"764 1336 LINE",
"764 1400 LINE"
);
}
);
width = 900;
},
{
anchors = (
{
name = bottom;
position = "{1062, 0}";
},
{
name = center;
position = "{1070, 700}";
},
{
name = top;
position = "{1070, 1400}";
}
);
layerId = "E338D14E-1DA5-418D-88BC-8956EEA80AB9";
paths = (
{
closed = 1;
nodes = (
"238 1400 LINE",
"238 1336 LINE",
"1028 1336 LINE",
"1028 0 LINE",
"1104 0 LINE",
"1104 1336 LINE",
"1894 1336 LINE",
"1894 1400 LINE"
);
}
);
width = 2200;
},
{
anchors = (
{
name = bottom;
position = "{442, 0}";
},
{
name = center;
position = "{452, 700}";
},
{
name = top;
position = "{452, 1400}";
}
);
layerId = "5D8A6BC1-E275-4777-AF98-AB9B3DC0EDC1";
paths = (
{
closed = 1;
nodes = (
"44 1400 LINE",
"44 1130 LINE",
"262 1130 LINE",
"262 0 LINE",
"636 0 LINE",
"636 1130 LINE",
"854 1130 LINE",
"854 1400 LINE"
);
}
);
width = 900;
},
{
anchors = (
{
name = bottom;
position = "{1040, 0}";
},
{
name = center;
position = "{1040, 700}";
},
{
name = top;
position = "{1040, 1400}";
}
);
layerId = "16EBFD8D-F4C1-4BAA-8DD7-EBE82D779ED1";
paths = (
{
closed = 1;
nodes = (
"218 1400 LINE",
"218 1130 LINE",
"850 1130 LINE",
"850 0 LINE",
"1224 0 LINE",
"1224 1130 LINE",
"1862 1130 LINE",
"1862 1400 LINE"
);
}
);
width = 2200;
}
);
leftKerningGroup = T;
rightKerningGroup = T;
unicode = 0054;
},
{
glyphname = U;
lastChange = "2020-01-04 20:06:25 +0000";
layers = (
{
anchors = (
{
name = bottom;
position = "{640, 0}";
},
{
name = ogonek;
position = "{646, 0}";
},
{
name = top;
position = "{640, 1400}";
},
{
name = topright;
position = "{1200, 1400}";
}
);
layerId = "5521DC30-183F-421A-91F3-644B5E24AFE6";
paths = (
{
closed = 1;
nodes = (
"934 -22 OFFCURVE",
"1186 108 OFFCURVE",
"1186 512 CURVE SMOOTH",
"1186 1400 LINE",
"812 1400 LINE",
"812 528 LINE SMOOTH",
"812 326 OFFCURVE",
"754 262 OFFCURVE",
"642 262 CURVE SMOOTH",
"530 262 OFFCURVE",
"470 326 OFFCURVE",
"470 528 CURVE SMOOTH",
"470 1400 LINE",
"96 1400 LINE",
"96 512 LINE SMOOTH",
"96 108 OFFCURVE",
"352 -22 OFFCURVE",
"642 -22 CURVE SMOOTH"
);
}
);
width = 1300;
},
{
anchors = (
{
name = bottom;
position = "{640, 0}";
},
{
name = ogonek;
position = "{746, 0}";
},
{
name = top;
position = "{640, 1400}";
},
{
name = topright;
position = "{1200, 1400}";
}
);
layerId = "BE68D89F-AB3F-4BDF-B332-ED50D7C47704";
paths = (
{
closed = 1;
nodes = (
"896 -22 OFFCURVE",
"1090 154 OFFCURVE",
"1090 568 CURVE SMOOTH",
"1090 1400 LINE",
"1024 1400 LINE",
"1024 572 LINE SMOOTH",
"1024 222 OFFCURVE",
"878 44 OFFCURVE",
"642 44 CURVE SMOOTH",
"408 44 OFFCURVE",
"258 222 OFFCURVE",
"258 572 CURVE SMOOTH",
"258 1400 LINE",
"192 1400 LINE",
"192 568 LINE SMOOTH",
"192 154 OFFCURVE",
"390 -22 OFFCURVE",
"642 -22 CURVE SMOOTH"
);
}
);
width = 1300;
},
{
anchors = (
{
name = bottom;
position = "{450, 0}";
},
{
name = ogonek;
position = "{504, 0}";
},
{
name = top;
position = "{450, 1400}";
},
{
name = topright;
position = "{1160, 1400}";
}
);
layerId = "2E286313-D5BF-4FB4-A4B7-BD9BC13B574E";
paths = (
{
closed = 1;
nodes = (
"602 -22 OFFCURVE",
"730 84 OFFCURVE",
"730 412 CURVE SMOOTH",
"730 1400 LINE",
"664 1400 LINE",
"664 416 LINE SMOOTH",
"664 114 OFFCURVE",
"564 44 OFFCURVE",
"450 44 CURVE SMOOTH",
"336 44 OFFCURVE",
"238 114 OFFCURVE",
"238 416 CURVE SMOOTH",
"238 1400 LINE",
"172 1400 LINE",
"172 412 LINE SMOOTH",
"172 84 OFFCURVE",
"298 -22 OFFCURVE",
"450 -22 CURVE SMOOTH"
);
}
);
width = 900;
},
{
anchors = (
{
name = bottom;
position = "{1070, 0}";
},
{
name = ogonek;
position = "{1256, 0}";
},
{
name = top;
position = "{1070, 1400}";
},
{
name = topright;
position = "{2050, 1400}";
}
);
layerId = "E338D14E-1DA5-418D-88BC-8956EEA80AB9";
paths = (
{
closed = 1;
nodes = (
"1514 -22 OFFCURVE",
"1824 144 OFFCURVE",
"1824 598 CURVE SMOOTH",
"1824 1400 LINE",
"1748 1400 LINE",
"1748 572 LINE SMOOTH",
"1748 208 OFFCURVE",
"1486 44 OFFCURVE",
"1074 44 CURVE SMOOTH",
"664 44 OFFCURVE",
"396 208 OFFCURVE",
"396 572 CURVE SMOOTH",
"396 1400 LINE",
"320 1400 LINE",
"320 598 LINE SMOOTH",
"320 144 OFFCURVE",
"638 -22 OFFCURVE",
"1074 -22 CURVE SMOOTH"
);
}
);
width = 2200;
},
{
anchors = (
{
name = bottom;
position = "{450, 0}";
},
{
name = ogonek;
position = "{442, 0}";
},
{
name = top;
position = "{450, 1400}";
},
{
name = topright;
position = "{960, 1400}";
}
);
layerId = "5D8A6BC1-E275-4777-AF98-AB9B3DC0EDC1";
paths = (
{
closed = 1;
nodes = (
"650 -22 OFFCURVE",
"848 47 OFFCURVE",
"848 432 CURVE SMOOTH",
"848 1400 LINE",
"476 1400 LINE",
"476 426 LINE SMOOTH",
"476 316 OFFCURVE",
"474 262 OFFCURVE",
"450 262 CURVE SMOOTH",
"426 262 OFFCURVE",
"426 316 OFFCURVE",
"426 426 CURVE SMOOTH",
"426 1400 LINE",
"54 1400 LINE",
"54 432 LINE SMOOTH",
"54 47 OFFCURVE",
"250 -22 OFFCURVE",
"450 -22 CURVE SMOOTH"
);
}
);
width = 900;
},
{
anchors = (
{
name = bottom;
position = "{1020, 0}";
},
{
name = ogonek;
position = "{1144, 10}";
},
{
name = top;
position = "{1020, 1400}";
},
{
name = topright;
position = "{1680, 1400}";
}
);
layerId = "16EBFD8D-F4C1-4BAA-8DD7-EBE82D779ED1";
paths = (
{
closed = 1;
nodes = (
"1472 -22 OFFCURVE",
"1862 126 OFFCURVE",
"1862 612 CURVE SMOOTH",
"1862 1400 LINE",
"1484 1400 LINE",
"1484 622 LINE SMOOTH",
"1484 326 OFFCURVE",
"1304 262 OFFCURVE",
"1026 262 CURVE SMOOTH",
"748 262 OFFCURVE",
"558 326 OFFCURVE",
"558 622 CURVE SMOOTH",
"558 1400 LINE",
"180 1400 LINE",
"180 612 LINE SMOOTH",
"180 126 OFFCURVE",
"586 -22 OFFCURVE",
"1026 -22 CURVE SMOOTH"
);
}
);
width = 2200;
}
);
leftKerningGroup = U;
rightKerningGroup = U;
unicode = 0055;
},
{
glyphname = V;
lastChange = "2020-01-04 17:01:45 +0000";
layers = (
{
anchors = (
{
name = bottom;
position = "{636, 0}";
},
{
name = top;
position = "{636, 1400}";
}
);
layerId = "5521DC30-183F-421A-91F3-644B5E24AFE6";
paths = (
{
closed = 1;
nodes = (
"672 270 LINE",
"618 270 LINE",
"412 1400 LINE",
"34 1400 LINE",
"326 0 LINE",
"962 0 LINE",
"1256 1400 LINE",
"876 1400 LINE"
);
}
);
width = 1300;
},
{
anchors = (
{
name = bottom;
position = "{624, 0}";
},
{
name = top;
position = "{624, 1400}";
}
);
layerId = "BE68D89F-AB3F-4BDF-B332-ED50D7C47704";
paths = (
{
closed = 1;
nodes = (
"690 64 LINE",
"562 64 LINE",
"263 1400 LINE",
"194 1400 LINE",
"508 0 LINE",
"744 0 LINE",
"1058 1400 LINE",
"989 1400 LINE"
);
}
);
width = 1300;
},
{
anchors = (
{
name = bottom;
position = "{434, 0}";
},
{
name = top;
position = "{434, 1400}";
}
);
layerId = "2E286313-D5BF-4FB4-A4B7-BD9BC13B574E";
paths = (
{
closed = 1;
nodes = (
"443 64 LINE",
"439 64 LINE",
"236 1400 LINE",
"170 1400 LINE",
"381 0 LINE",
"499 0 LINE",
"730 1400 LINE",
"664 1400 LINE"
);
}
);
width = 900;
},
{
anchors = (
{
name = bottom;
position = "{1068, 0}";
},
{
name = top;
position = "{1068, 1400}";
}
);
layerId = "E338D14E-1DA5-418D-88BC-8956EEA80AB9";
paths = (
{
closed = 1;
nodes = (
"1134 64 LINE",
"988 64 LINE",
"384 1400 LINE",
"300 1400 LINE",
"934 0 LINE",
"1188 0 LINE",
"1822 1400 LINE",
"1738 1400 LINE"
);
}
);
width = 2200;
},
{
anchors = (
{
name = bottom;
position = "{432, 0}";
},
{
name = top;
position = "{432, 1400}";
}
);
layerId = "5D8A6BC1-E275-4777-AF98-AB9B3DC0EDC1";
paths = (
{
closed = 1;
nodes = (
"450 270 LINE",
"442 270 LINE",
"382 1400 LINE",
"6 1400 LINE",
"150 0 LINE",
"742 0 LINE",
"894 1400 LINE",
"518 1400 LINE"
);
}
);
width = 900;
},
{
anchors = (
{
name = bottom;
position = "{1044, 0}";
},
{
name = top;
position = "{1044, 1400}";
}
);
layerId = "16EBFD8D-F4C1-4BAA-8DD7-EBE82D779ED1";
paths = (
{
closed = 1;
nodes = (
"1121 270 LINE",
"949 270 LINE",
"478 1400 LINE",
"90 1400 LINE",
"678 0 LINE",
"1392 0 LINE",
"1980 1400 LINE",
"1592 1400 LINE"
);
}
);
width = 2200;
}
);
leftKerningGroup = V;
rightKerningGroup = V;
unicode = 0056;
},
{
glyphname = W;
lastChange = "2020-01-04 18:52:34 +0000";
layers = (
{
anchors = (
{
name = bottom;
position = "{548, 0}";
},
{
name = top;
position = "{888, 1400}";
}
);
layerId = "5521DC30-183F-421A-91F3-644B5E24AFE6";
paths = (
{
closed = 1;
nodes = (
"1510 0 LINE",
"1718 1400 LINE",
"1324 1400 LINE",
"1234 232 LINE",
"1190 0 LINE"
);
},
{
closed = 1;
nodes = (
"568 0 LINE",
"534 232 LINE",
"450 1400 LINE",
"56 1400 LINE",
"262 0 LINE"
);
},
{
closed = 1;
nodes = (
"730 0 LINE",
"902 904 LINE",
"932 1394 LINE",
"730 1394 LINE",
"500 220 LINE",
"544 0 LINE"
);
},
{
closed = 1;
nodes = (
"1214 0 LINE",
"1268 220 LINE",
"1042 1394 LINE",
"842 1394 LINE",
"882 904 LINE",
"1042 0 LINE"
);
}
);
width = 1800;
},
{
anchors = (
{
name = bottom;
position = "{882, 0}";
},
{
name = top;
position = "{882, 1400}";
}
);
layerId = "BE68D89F-AB3F-4BDF-B332-ED50D7C47704";
paths = (
{
closed = 1;
nodes = (
"1338 0 LINE",
"1622 1400 LINE",
"1552 1400 LINE",
"1286 78 LINE",
"1280 0 LINE"
);
},
{
closed = 1;
nodes = (
"496 0 LINE",
"488 78 LINE",
"224 1400 LINE",
"154 1400 LINE",
"438 0 LINE"
);
},
{
closed = 1;
nodes = (
"532 0 LINE",
"884 1298 LINE",
"902 1384 LINE",
"844 1384 LINE",
"488 76 LINE",
"472 0 LINE"
);
},
{
closed = 1;
nodes = (
"1304 0 LINE",
"1288 76 LINE",
"932 1384 LINE",
"874 1384 LINE",
"892 1298 LINE",
"1244 0 LINE"
);
}
);
width = 1800;
},
{
anchors = (
{
name = bottom;
position = "{702, 0}";
},
{
name = top;
position = "{702, 1400}";
}
);
layerId = "2E286313-D5BF-4FB4-A4B7-BD9BC13B574E";
paths = (
{
closed = 1;
nodes = (
"976 0 LINE",
"1168 1400 LINE",
"1100 1400 LINE",
"922 78 LINE",
"918 0 LINE"
);
},
{
closed = 1;
nodes = (
"474 0 LINE",
"468 78 LINE",
"292 1400 LINE",
"224 1400 LINE",
"416 0 LINE"
);
},
{
closed = 1;
nodes = (
"510 0 LINE",
"708 1316 LINE",
"706 1364 LINE",
"656 1364 LINE",
"464 78 LINE",
"458 0 LINE"
);
},
{
closed = 1;
nodes = (
"934 0 LINE",
"928 78 LINE",
"736 1364 LINE",
"686 1364 LINE",
"684 1316 LINE",
"882 0 LINE"
);
}
);
width = 1400;
},
{
anchors = (
{
name = bottom;
position = "{1336, 0}";
},
{
name = top;
position = "{1336, 1400}";
}
);
layerId = "E338D14E-1DA5-418D-88BC-8956EEA80AB9";
paths = (
{
closed = 1;
nodes = (
"1974 0 LINE",
"2408 1400 LINE",
"2322 1400 LINE",
"1914 66 LINE",
"1898 0 LINE"
);
},
{
closed = 1;
nodes = (
"772 0 LINE",
"760 56 LINE",
"350 1400 LINE",
"264 1400 LINE",
"696 0 LINE"
);
},
{
closed = 1;
nodes = (
"816 0 LINE",
"1336 1314 LINE",
"1360 1384 LINE",
"1280 1384 LINE",
"760 56 LINE",
"738 0 LINE"
);
},
{
closed = 1;
nodes = (
"1934 0 LINE",
"1914 66 LINE",
"1394 1384 LINE",
"1316 1384 LINE",
"1340 1314 LINE",
"1858 0 LINE"
);
}
);
width = 2600;
},
{
anchors = (
{
name = bottom;
position = "{356, 0}";
},
{
name = top;
position = "{696, 1400}";
}
);
layerId = "5D8A6BC1-E275-4777-AF98-AB9B3DC0EDC1";
paths = (
{
closed = 1;
nodes = (
"1196 0 LINE",
"1322 1400 LINE",
"932 1400 LINE",
"920 236 LINE",
"880 0 LINE"
);
},
{
closed = 1;
nodes = (
"486 0 LINE",
"456 238 LINE",
"450 1400 LINE",
"60 1400 LINE",
"186 0 LINE"
);
},
{
closed = 1;
nodes = (
"596 0 LINE",
"706 842 LINE",
"730 1318 LINE",
"584 1318 LINE",
"398 228 LINE",
"468 0 LINE"
);
},
{
closed = 1;
nodes = (
"898 0 LINE",
"978 224 LINE",
"796 1318 LINE",
"650 1318 LINE",
"684 842 LINE",
"784 0 LINE"
);
}
);
width = 1400;
},
{
anchors = (
{
name = bottom;
position = "{932, 0}";
},
{
name = top;
position = "{1272, 1400}";
}
);
layerId = "16EBFD8D-F4C1-4BAA-8DD7-EBE82D779ED1";
paths = (
{
closed = 1;
nodes = (
"2184 0 LINE",
"2530 1400 LINE",
"2118 1400 LINE",
"1878 230 LINE",
"1836 0 LINE"
);
},
{
closed = 1;
nodes = (
"732 0 LINE",
"690 230 LINE",
"450 1400 LINE",
"38 1400 LINE",
"384 0 LINE"
);
},
{
closed = 1;
nodes = (
"998 0 LINE",
"1294 1038 LINE",
"1336 1400 LINE",
"1042 1400 LINE",
"704 234 LINE",
"656 0 LINE"
);
},
{
closed = 1;
nodes = (
"1912 0 LINE",
"1864 234 LINE",
"1526 1400 LINE",
"1232 1400 LINE",
"1274 1038 LINE",
"1570 0 LINE"
);
}
);
width = 2600;
}
);
leftKerningGroup = W;
rightKerningGroup = W;
unicode = 0057;
},
{
glyphname = X;
lastChange = "2020-01-04 17:06:48 +0000";
layers = (
{
anchors = (
{
name = bottom;
position = "{640, 0}";
},
{
name = top;
position = "{640, 1400}";
}
);
layerId = "5521DC30-183F-421A-91F3-644B5E24AFE6";
paths = (
{
closed = 1;
nodes = (
"426 0 LINE",
"603 558 LINE",
"681 558 LINE",
"856 0 LINE",
"1262 0 LINE",
"1006 690 LINE",
"1262 1400 LINE",
"856 1400 LINE",
"695 826 LINE",
"587 826 LINE",
"426 1400 LINE",
"20 1400 LINE",
"276 690 LINE",
"20 0 LINE"
);
}
);
width = 1300;
},
{
anchors = (
{
name = bottom;
position = "{640, 0}";
},
{
name = top;
position = "{640, 1400}";
}
);
layerId = "BE68D89F-AB3F-4BDF-B332-ED50D7C47704";
paths = (
{
closed = 1;
nodes = (
"280 0 LINE",
"597 660 LINE",
"677 660 LINE",
"1014 0 LINE",
"1094 0 LINE",
"738 689 LINE",
"1094 1400 LINE",
"1014 1400 LINE",
"678 724 LINE",
"596 724 LINE",
"280 1400 LINE",
"200 1400 LINE",
"537 689 LINE",
"200 0 LINE"
);
}
);
width = 1300;
},
{
anchors = (
{
name = bottom;
position = "{438, 0}";
},
{
name = top;
position = "{438, 1400}";
}
);
layerId = "2E286313-D5BF-4FB4-A4B7-BD9BC13B574E";
paths = (
{
closed = 1;
nodes = (
"256 0 LINE",
"439 660 LINE",
"461 660 LINE",
"644 0 LINE",
"714 0 LINE",
"522 688 LINE",
"714 1400 LINE",
"644 1400 LINE",
"464 724 LINE",
"436 724 LINE",
"256 1400 LINE",
"186 1400 LINE",
"378 688 LINE",
"186 0 LINE"
);
}
);
width = 900;
},
{
anchors = (
{
name = bottom;
position = "{1050, 0}";
},
{
name = top;
position = "{1050, 1400}";
}
);
layerId = "E338D14E-1DA5-418D-88BC-8956EEA80AB9";
paths = (
{
closed = 1;
nodes = (
"364 0 LINE",
"869 660 LINE",
"1227 660 LINE",
"1734 0 LINE",
"1828 0 LINE",
"1300 690 LINE",
"1828 1400 LINE",
"1734 1400 LINE",
"1234 724 LINE",
"864 724 LINE",
"364 1400 LINE",
"270 1400 LINE",
"798 690 LINE",
"270 0 LINE"
);
}
);
width = 2200;
},
{
anchors = (
{
name = bottom;
position = "{446, 0}";
},
{
name = top;
position = "{446, 1400}";
}
);
layerId = "5D8A6BC1-E275-4777-AF98-AB9B3DC0EDC1";
paths = (
{
closed = 1;
nodes = (
"402 0 LINE",
"447 558 LINE",
"458 558 LINE",
"500 0 LINE",
"898 0 LINE",
"775 684 LINE",
"898 1400 LINE",
"500 1400 LINE",
"457 826 LINE",
"447 826 LINE",
"402 1400 LINE",
"4 1400 LINE",
"129 684 LINE",
"4 0 LINE"
);
}
);
width = 900;
},
{
anchors = (
{
name = bottom;
position = "{1090, 0}";
},
{
name = top;
position = "{1090, 1400}";
}
);
layerId = "16EBFD8D-F4C1-4BAA-8DD7-EBE82D779ED1";
paths = (
{
closed = 1;
nodes = (
"568 0 LINE",
"965 558 LINE",
"1233 558 LINE",
"1628 0 LINE",
"2054 0 LINE",
"1558 690 LINE",
"2054 1400 LINE",
"1628 1400 LINE",
"1247 826 LINE",
"949 826 LINE",
"568 1400 LINE",
"142 1400 LINE",
"638 690 LINE",
"142 0 LINE"
);
}
);
width = 2200;
}
);
leftKerningGroup = X;
rightKerningGroup = X;
unicode = 0058;
},
{
glyphname = Y;
lastChange = "2020-01-04 19:26:19 +0000";
layers = (
{
anchors = (
{
name = bottom;
position = "{638, 0}";
},
{
name = top;
position = "{638, 1400}";
},
{
name = topleft;
position = "{60, 1400}";
}
);
layerId = "5521DC30-183F-421A-91F3-644B5E24AFE6";
paths = (
{
closed = 1;
nodes = (
"828 0 LINE",
"828 524 LINE",
"1238 1400 LINE",
"854 1400 LINE",
"640 854 LINE",
"426 1400 LINE",
"42 1400 LINE",
"454 524 LINE",
"454 0 LINE"
);
}
);
width = 1300;
},
{
anchors = (
{
name = bottom;
position = "{640, 0}";
},
{
name = top;
position = "{640, 1400}";
},
{
name = topleft;
position = "{80, 1400}";
}
);
layerId = "BE68D89F-AB3F-4BDF-B332-ED50D7C47704";
paths = (
{
closed = 1;
nodes = (
"674 0 LINE",
"674 574 LINE",
"1094 1400 LINE",
"1020 1400 LINE",
"641 644 LINE",
"260 1400 LINE",
"186 1400 LINE",
"608 574 LINE",
"608 0 LINE"
);
}
);
width = 1300;
},
{
anchors = (
{
name = bottom;
position = "{596, 0}";
},
{
name = top;
position = "{450, 1400}";
},
{
name = topleft;
position = "{36, 1400}";
}
);
layerId = "2E286313-D5BF-4FB4-A4B7-BD9BC13B574E";
paths = (
{
closed = 1;
nodes = (
"484 0 LINE",
"484 564 LINE",
"740 1400 LINE",
"676 1400 LINE",
"451 664 LINE",
"224 1400 LINE",
"160 1400 LINE",
"418 564 LINE",
"418 0 LINE"
);
}
);
width = 900;
},
{
anchors = (
{
name = bottom;
position = "{1080, 0}";
},
{
name = top;
position = "{1080, 1400}";
},
{
name = topleft;
position = "{100, 1400}";
}
);
layerId = "E338D14E-1DA5-418D-88BC-8956EEA80AB9";
paths = (
{
closed = 1;
nodes = (
"1122 0 LINE",
"1122 576 LINE",
"1824 1400 LINE",
"1730 1400 LINE",
"1082 640 LINE",
"430 1400 LINE",
"336 1400 LINE",
"1042 576 LINE",
"1042 0 LINE"
);
}
);
width = 2200;
},
{
anchors = (
{
name = bottom;
position = "{516, 0}";
},
{
name = top;
position = "{450, 1400}";
},
{
name = topleft;
position = "{72, 1400}";
}
);
layerId = "5D8A6BC1-E275-4777-AF98-AB9B3DC0EDC1";
paths = (
{
closed = 1;
nodes = (
"636 0 LINE",
"636 490 LINE",
"904 1400 LINE",
"530 1400 LINE",
"449 868 LINE",
"370 1400 LINE",
"-4 1400 LINE",
"266 490 LINE",
"266 0 LINE"
);
}
);
width = 900;
},
{
anchors = (
{
name = bottom;
position = "{1092, 0}";
},
{
name = top;
position = "{1090, 1400}";
},
{
name = topleft;
position = "{166, 1400}";
}
);
layerId = "16EBFD8D-F4C1-4BAA-8DD7-EBE82D779ED1";
paths = (
{
closed = 1;
nodes = (
"1282 0 LINE",
"1282 582 LINE",
"1976 1400 LINE",
"1552 1400 LINE",
"1092 824 LINE",
"628 1400 LINE",
"204 1400 LINE",
"900 582 LINE",
"900 0 LINE"
);
}
);
width = 2200;
}
);
leftKerningGroup = Y;
rightKerningGroup = Y;
unicode = 0059;
},
{
glyphname = Z;
lastChange = "2020-01-29 00:50:52 +0000";
layers = (
{
anchors = (
{
name = bottom;
position = "{630, 0}";
},
{
name = top;
position = "{630, 1400}";
}
);
layerId = "5521DC30-183F-421A-91F3-644B5E24AFE6";
paths = (
{
closed = 1;
nodes = (
"1082 1130 LINE",
"1082 1400 LINE",
"190 1400 LINE",
"190 1130 LINE",
"722 1130 LINE",
"174 270 LINE",
"174 0 LINE",
"1102 0 LINE",
"1102 270 LINE",
"530 270 LINE"
);
}
);
width = 1300;
},
{
anchors = (
{
name = bottom;
position = "{620, 0}";
},
{
name = top;
position = "{620, 1400}";
}
);
layerId = "BE68D89F-AB3F-4BDF-B332-ED50D7C47704";
paths = (
{
closed = 1;
nodes = (
"1054 1336 LINE",
"1054 1400 LINE",
"250 1400 LINE",
"250 1336 LINE",
"978 1336 LINE",
"234 64 LINE",
"234 0 LINE",
"1068 0 LINE",
"1068 64 LINE",
"312 64 LINE"
);
}
);
width = 1300;
},
{
anchors = (
{
name = bottom;
position = "{454, 0}";
},
{
name = top;
position = "{454, 1400}";
}
);
layerId = "2E286313-D5BF-4FB4-A4B7-BD9BC13B574E";
paths = (
{
closed = 1;
nodes = (
"688 1336 LINE",
"688 1400 LINE",
"204 1400 LINE",
"204 1336 LINE",
"624 1336 LINE",
"188 64 LINE",
"188 0 LINE",
"702 0 LINE",
"702 64 LINE",
"252 64 LINE"
);
}
);
width = 900;
},
{
anchors = (
{
name = bottom;
position = "{1050, 0}";
},
{
name = top;
position = "{1050, 1400}";
}
);
layerId = "E338D14E-1DA5-418D-88BC-8956EEA80AB9";
paths = (
{
closed = 1;
nodes = (
"1838 1336 LINE",
"1838 1400 LINE",
"326 1400 LINE",
"326 1336 LINE",
"1736 1336 LINE",
"298 64 LINE",
"298 0 LINE",
"1870 0 LINE",
"1870 64 LINE",
"408 64 LINE"
);
}
);
width = 2200;
},
{
anchors = (
{
name = bottom;
position = "{438, 0}";
},
{
name = top;
position = "{438, 1400}";
}
);
layerId = "5D8A6BC1-E275-4777-AF98-AB9B3DC0EDC1";
paths = (
{
closed = 1;
nodes = (
"722 1130 LINE",
"722 1400 LINE",
"146 1400 LINE",
"146 1130 LINE",
"376 1130 LINE",
"134 270 LINE",
"134 0 LINE",
"748 0 LINE",
"748 270 LINE",
"475 270 LINE"
);
}
);
width = 900;
},
{
anchors = (
{
name = bottom;
position = "{924, 0}";
},
{
name = top;
position = "{924, 1400}";
}
);
layerId = "16EBFD8D-F4C1-4BAA-8DD7-EBE82D779ED1";
paths = (
{
closed = 1;
nodes = (
"1712 1130 LINE",
"1712 1400 LINE",
"188 1400 LINE",
"188 1130 LINE",
"1252 1130 LINE",
"164 270 LINE",
"164 0 LINE",
"1720 0 LINE",
"1720 270 LINE",
"620 270 LINE"
);
}
);
width = 2200;
}
);
leftKerningGroup = Z;
rightKerningGroup = Z;
unicode = 005A;
},
{
glyphname = a;
lastChange = "2020-01-04 18:50:49 +0000";
layers = (
{
anchors = (
{
name = bottom;
position = "{620, 0}";
},
{
name = ogonek;
position = "{1060, 20}";
},
{
name = top;
position = "{620, 1000}";
}
);
layerId = "5521DC30-183F-421A-91F3-644B5E24AFE6";
paths = (
{
closed = 1;
nodes = (
"1258 0 LINE",
"1258 270 LINE",
"1126 270 LINE",
"1126 674 LINE SMOOTH",
"1126 896 OFFCURVE",
"900 1024 OFFCURVE",
"628 1024 CURVE SMOOTH",
"434 1024 OFFCURVE",
"238 986 OFFCURVE",
"160 954 CURVE",
"282 684 LINE",
"344 708 OFFCURVE",
"460 742 OFFCURVE",
"590 742 CURVE SMOOTH",
"694 742 OFFCURVE",
"764 708 OFFCURVE",
"764 642 CURVE SMOOTH",
"764 582 LINE",
"747 610 OFFCURVE",
"642 655 OFFCURVE",
"492 656 CURVE SMOOTH",
"326 657 OFFCURVE",
"100 572 OFFCURVE",
"100 345 CURVE SMOOTH",
"100 123 OFFCURVE",
"254 -22 OFFCURVE",
"470 -22 CURVE SMOOTH",
"660 -22 OFFCURVE",
"762 74 OFFCURVE",
"800 148 CURVE",
"850 0 LINE"
);
},
{
closed = 1;
nodes = (
"764 306 LINE",
"748 286 OFFCURVE",
"682 246 OFFCURVE",
"608 246 CURVE SMOOTH",
"508 246 OFFCURVE",
"464 283 OFFCURVE",
"464 345 CURVE SMOOTH",
"464 407 OFFCURVE",
"514 442 OFFCURVE",
"612 442 CURVE SMOOTH",
"686 442 OFFCURVE",
"750 404 OFFCURVE",
"764 388 CURVE"
);
}
);
width = 1300;
},
{
anchors = (
{
name = bottom;
position = "{620, 0}";
},
{
name = ogonek;
position = "{1100, 20}";
},
{
name = top;
position = "{620, 1000}";
}
);
layerId = "BE68D89F-AB3F-4BDF-B332-ED50D7C47704";
paths = (
{
closed = 1;
nodes = (
"1162 0 LINE",
"1162 64 LINE",
"974 64 LINE",
"974 762 LINE SMOOTH",
"974 944 OFFCURVE",
"790 1024 OFFCURVE",
"612 1024 CURVE SMOOTH",
"434 1024 OFFCURVE",
"300 960 OFFCURVE",
"234 920 CURVE",
"274 860 LINE",
"324 896 OFFCURVE",
"468 960 OFFCURVE",
"598 960 CURVE SMOOTH",
"754 960 OFFCURVE",
"908 904 OFFCURVE",
"908 746 CURVE SMOOTH",
"908 588 LINE",
"856 618 OFFCURVE",
"732 658 OFFCURVE",
"600 658 CURVE SMOOTH",
"324 658 OFFCURVE",
"180 512 OFFCURVE",
"180 322 CURVE SMOOTH",
"180 114 OFFCURVE",
"308 -22 OFFCURVE",
"558 -22 CURVE SMOOTH",
"744 -22 OFFCURVE",
"860 56 OFFCURVE",
"908 110 CURVE",
"908 0 LINE"
);
},
{
closed = 1;
nodes = (
"908 188 LINE",
"860 134 OFFCURVE",
"746 42 OFFCURVE",
"560 42 CURVE SMOOTH",
"346 42 OFFCURVE",
"248 146 OFFCURVE",
"248 322 CURVE SMOOTH",
"248 480 OFFCURVE",
"366 594 OFFCURVE",
"602 594 CURVE SMOOTH",
"708 594 OFFCURVE",
"848 558 OFFCURVE",
"908 524 CURVE"
);
}
);
width = 1300;
},
{
anchors = (
{
name = bottom;
position = "{366, 0}";
},
{
name = ogonek;
position = "{726, 20}";
},
{
name = top;
position = "{366, 1000}";
}
);
layerId = "2E286313-D5BF-4FB4-A4B7-BD9BC13B574E";
paths = (
{
closed = 1;
nodes = (
"788 0 LINE",
"788 64 LINE",
"646 64 LINE",
"646 762 LINE SMOOTH",
"646 944 OFFCURVE",
"538 1024 OFFCURVE",
"404 1024 CURVE SMOOTH",
"272 1024 OFFCURVE",
"186 960 OFFCURVE",
"138 920 CURVE",
"188 866 LINE",
"216 894 OFFCURVE",
"296 960 OFFCURVE",
"394 960 CURVE SMOOTH",
"512 960 OFFCURVE",
"576 904 OFFCURVE",
"576 746 CURVE SMOOTH",
"576 622 LINE",
"552 642 OFFCURVE",
"490 672 OFFCURVE",
"394 672 CURVE SMOOTH",
"220 672 OFFCURVE",
"114 538 OFFCURVE",
"114 340 CURVE SMOOTH",
"114 142 OFFCURVE",
"194 -22 OFFCURVE",
"356 -22 CURVE SMOOTH",
"494 -22 OFFCURVE",
"562 66 OFFCURVE",
"576 96 CURVE",
"576 0 LINE"
);
},
{
closed = 1;
nodes = (
"576 202 LINE",
"562 168 OFFCURVE",
"502 42 OFFCURVE",
"368 42 CURVE SMOOTH",
"236 42 OFFCURVE",
"184 166 OFFCURVE",
"184 340 CURVE SMOOTH",
"184 514 OFFCURVE",
"266 608 OFFCURVE",
"394 608 CURVE SMOOTH",
"482 608 OFFCURVE",
"542 582 OFFCURVE",
"576 556 CURVE"
);
}
);
width = 900;
},
{
anchors = (
{
name = bottom;
position = "{1048, 0}";
},
{
name = ogonek;
position = "{1870, 20}";
},
{
name = top;
position = "{1048, 1000}";
}
);
layerId = "E338D14E-1DA5-418D-88BC-8956EEA80AB9";
paths = (
{
closed = 1;
nodes = (
"1978 0 LINE",
"1978 64 LINE",
"1656 64 LINE",
"1656 682 LINE SMOOTH",
"1656 964 OFFCURVE",
"1320 1024 OFFCURVE",
"1014 1024 CURVE SMOOTH",
"710 1024 OFFCURVE",
"452 952 OFFCURVE",
"386 924 CURVE",
"424 860 LINE",
"474 888 OFFCURVE",
"764 960 OFFCURVE",
"1006 960 CURVE SMOOTH",
"1274 960 OFFCURVE",
"1584 924 OFFCURVE",
"1584 666 CURVE SMOOTH",
"1584 574 LINE",
"1436 616 OFFCURVE",
"1218 638 OFFCURVE",
"982 638 CURVE SMOOTH",
"524 638 OFFCURVE",
"336 502 OFFCURVE",
"336 308 CURVE SMOOTH",
"336 104 OFFCURVE",
"502 -22 OFFCURVE",
"876 -22 CURVE SMOOTH",
"1246 -22 OFFCURVE",
"1502 96 OFFCURVE",
"1584 144 CURVE",
"1584 0 LINE"
);
},
{
closed = 1;
nodes = (
"1584 216 LINE",
"1516 174 OFFCURVE",
"1250 42 OFFCURVE",
"904 42 CURVE SMOOTH",
"592 42 OFFCURVE",
"408 122 OFFCURVE",
"408 308 CURVE SMOOTH",
"408 466 OFFCURVE",
"572 576 OFFCURVE",
"980 576 CURVE SMOOTH",
"1210 576 OFFCURVE",
"1466 550 OFFCURVE",
"1584 512 CURVE"
);
}
);
width = 2200;
},
{
anchors = (
{
name = bottom;
position = "{408, 0}";
},
{
name = ogonek;
position = "{700, 20}";
},
{
name = top;
position = "{408, 1000}";
}
);
layerId = "5D8A6BC1-E275-4777-AF98-AB9B3DC0EDC1";
paths = (
{
closed = 1;
nodes = (
"886 0 LINE",
"886 270 LINE",
"810 270 LINE",
"810 696 LINE SMOOTH",
"810 890 OFFCURVE",
"652 1024 OFFCURVE",
"434 1024 CURVE SMOOTH",
"266 1024 OFFCURVE",
"84 979 OFFCURVE",
"34 954 CURVE",
"142 692 LINE",
"156 700 OFFCURVE",
"264 742 OFFCURVE",
"362 742 CURVE SMOOTH",
"424 742 OFFCURVE",
"448 724 OFFCURVE",
"448 676 CURVE SMOOTH",
"448 632 LINE",
"440 642 OFFCURVE",
"400 668 OFFCURVE",
"324 668 CURVE SMOOTH",
"176 668 OFFCURVE",
"28 556 OFFCURVE",
"28 328 CURVE SMOOTH",
"28 112 OFFCURVE",
"130 -22 OFFCURVE",
"282 -22 CURVE SMOOTH",
"402 -22 OFFCURVE",
"466 66 OFFCURVE",
"484 122 CURVE",
"554 0 LINE"
);
},
{
closed = 1;
nodes = (
"448 286 LINE SMOOTH",
"448 272 OFFCURVE",
"442 236 OFFCURVE",
"428 236 CURVE SMOOTH",
"408 236 OFFCURVE",
"394 286 OFFCURVE",
"394 356 CURVE SMOOTH",
"394 424 OFFCURVE",
"408 472 OFFCURVE",
"428 472 CURVE SMOOTH",
"440 472 OFFCURVE",
"446 462 OFFCURVE",
"448 458 CURVE"
);
}
);
width = 900;
},
{
anchors = (
{
name = bottom;
position = "{1044, 0}";
},
{
name = ogonek;
position = "{1780, 20}";
},
{
name = top;
position = "{1044, 1000}";
}
);
layerId = "16EBFD8D-F4C1-4BAA-8DD7-EBE82D779ED1";
paths = (
{
closed = 1;
nodes = (
"2002 0 LINE",
"2002 270 LINE",
"1758 270 LINE",
"1758 630 LINE SMOOTH",
"1758 948 OFFCURVE",
"1356 1024 OFFCURVE",
"996 1024 CURVE SMOOTH",
"750 1024 OFFCURVE",
"466 990 OFFCURVE",
"332 954 CURVE",
"482 668 LINE",
"640 724 OFFCURVE",
"812 742 OFFCURVE",
"1006 742 CURVE SMOOTH",
"1194 742 OFFCURVE",
"1396 706 OFFCURVE",
"1396 584 CURVE SMOOTH",
"1396 526 LINE",
"1349 558 OFFCURVE",
"1156 629 OFFCURVE",
"888 632 CURVE SMOOTH",
"626 635 OFFCURVE",
"244 574 OFFCURVE",
"244 309 CURVE SMOOTH",
"244 45 OFFCURVE",
"542 -22 OFFCURVE",
"846 -22 CURVE SMOOTH",
"1176 -22 OFFCURVE",
"1365 88 OFFCURVE",
"1411 131 CURVE",
"1481 0 LINE"
);
},
{
closed = 1;
nodes = (
"1396 307 LINE",
"1396 309 OFFCURVE",
"1204 236 OFFCURVE",
"896 236 CURVE SMOOTH",
"757 236 OFFCURVE",
"604 243 OFFCURVE",
"604 308 CURVE SMOOTH",
"604 378 OFFCURVE",
"766 385 OFFCURVE",
"940 385 CURVE SMOOTH",
"1242 385 OFFCURVE",
"1396 313 OFFCURVE",
"1396 316 CURVE"
);
}
);
width = 2200;
}
);
leftKerningGroup = a;
rightKerningGroup = n;
unicode = 0061;
},
{
color = 4;
glyphname = a.ss01;
lastChange = "2020-01-04 18:58:46 +0000";
layers = (
{
anchors = (
{
name = bottom;
position = "{620, 0}";
},
{
name = ogonek;
position = "{1060, 20}";
},
{
name = top;
position = "{620, 1000}";
}
);
layerId = "5521DC30-183F-421A-91F3-644B5E24AFE6";
paths = (
{
closed = 1;
nodes = (
"1140 1000 LINE",
"764 1000 LINE",
"764 182 LINE",
"786 0 LINE",
"1140 0 LINE"
);
},
{
closed = 1;
nodes = (
"260 1022 OFFCURVE",
"68 868 OFFCURVE",
"68 502 CURVE SMOOTH",
"68 136 OFFCURVE",
"260 -22 OFFCURVE",
"494 -22 CURVE SMOOTH",
"754 -22 OFFCURVE",
"836 252 OFFCURVE",
"836 396 CURVE",
"768 422 LINE",
"766 322 OFFCURVE",
"676 262 OFFCURVE",
"610 262 CURVE SMOOTH",
"514 262 OFFCURVE",
"452 366 OFFCURVE",
"452 502 CURVE SMOOTH",
"452 636 OFFCURVE",
"516 738 OFFCURVE",
"608 738 CURVE SMOOTH",
"676 738 OFFCURVE",
"742 702 OFFCURVE",
"768 602 CURVE",
"848 630 LINE",
"848 774 OFFCURVE",
"738 1022 OFFCURVE",
"474 1022 CURVE SMOOTH"
);
}
);
width = 1300;
},
{
anchors = (
{
name = bottom;
position = "{620, 0}";
},
{
name = ogonek;
position = "{1100, 20}";
},
{
name = top;
position = "{620, 1000}";
}
);
layerId = "BE68D89F-AB3F-4BDF-B332-ED50D7C47704";
paths = (
{
closed = 1;
nodes = (
"944 1000 LINE",
"878 1000 LINE",
"878 142 LINE",
"878 0 LINE",
"944 0 LINE"
);
},
{
closed = 1;
nodes = (
"378 1022 OFFCURVE",
"188 868 OFFCURVE",
"188 502 CURVE SMOOTH",
"188 136 OFFCURVE",
"378 -22 OFFCURVE",
"570 -22 CURVE SMOOTH",
"796 -22 OFFCURVE",
"914 138 OFFCURVE",
"914 362 CURVE",
"882 360 LINE",
"860 194 OFFCURVE",
"766 44 OFFCURVE",
"582 44 CURVE SMOOTH",
"404 44 OFFCURVE",
"256 198 OFFCURVE",
"256 502 CURVE SMOOTH",
"256 812 OFFCURVE",
"406 956 OFFCURVE",
"584 956 CURVE SMOOTH",
"768 956 OFFCURVE",
"856 810 OFFCURVE",
"882 664 CURVE",
"916 664 LINE",
"916 888 OFFCURVE",
"784 1022 OFFCURVE",
"570 1022 CURVE SMOOTH"
);
}
);
width = 1300;
},
{
anchors = (
{
name = bottom;
position = "{444, 0}";
},
{
name = ogonek;
position = "{804, 20}";
},
{
name = top;
position = "{444, 1000}";
}
);
layerId = "2E286313-D5BF-4FB4-A4B7-BD9BC13B574E";
paths = (
{
closed = 1;
nodes = (
"750 1000 LINE",
"680 1000 LINE",
"680 142 LINE",
"680 0 LINE",
"750 0 LINE"
);
},
{
closed = 1;
nodes = (
"310 1022 OFFCURVE",
"152 868 OFFCURVE",
"152 502 CURVE SMOOTH",
"152 136 OFFCURVE",
"326 -22 OFFCURVE",
"470 -22 CURVE SMOOTH",
"624 -22 OFFCURVE",
"734 148 OFFCURVE",
"734 372 CURVE",
"684 380 LINE",
"668 174 OFFCURVE",
"592 44 OFFCURVE",
"474 44 CURVE SMOOTH",
"352 44 OFFCURVE",
"222 178 OFFCURVE",
"222 502 CURVE SMOOTH",
"222 832 OFFCURVE",
"338 956 OFFCURVE",
"462 956 CURVE SMOOTH",
"580 956 OFFCURVE",
"666 830 OFFCURVE",
"684 644 CURVE",
"734 644 LINE",
"734 868 OFFCURVE",
"612 1022 OFFCURVE",
"454 1022 CURVE SMOOTH"
);
}
);
width = 900;
},
{
anchors = (
{
name = bottom;
position = "{1048, 0}";
},
{
name = ogonek;
position = "{1870, 20}";
},
{
name = top;
position = "{1048, 1000}";
}
);
layerId = "E338D14E-1DA5-418D-88BC-8956EEA80AB9";
paths = (
{
closed = 1;
nodes = (
"1624 1000 LINE",
"1548 1000 LINE",
"1548 142 LINE",
"1548 0 LINE",
"1624 0 LINE"
);
},
{
closed = 1;
nodes = (
"582 1022 OFFCURVE",
"284 868 OFFCURVE",
"284 502 CURVE SMOOTH",
"284 136 OFFCURVE",
"608 -22 OFFCURVE",
"964 -22 CURVE SMOOTH",
"1333 -22 OFFCURVE",
"1604 178 OFFCURVE",
"1604 402 CURVE",
"1554 390 LINE",
"1516 224 OFFCURVE",
"1286 44 OFFCURVE",
"984 44 CURVE SMOOTH",
"654 44 OFFCURVE",
"364 178 OFFCURVE",
"364 502 CURVE SMOOTH",
"364 832 OFFCURVE",
"632 956 OFFCURVE",
"964 956 CURVE SMOOTH",
"1286 956 OFFCURVE",
"1510 770 OFFCURVE",
"1554 624 CURVE",
"1604 604 LINE",
"1604 828 OFFCURVE",
"1336 1022 OFFCURVE",
"938 1022 CURVE SMOOTH"
);
}
);
width = 2200;
},
{
anchors = (
{
name = bottom;
position = "{380, 0}";
},
{
name = ogonek;
position = "{672, 20}";
},
{
name = top;
position = "{380, 1000}";
}
);
layerId = "5D8A6BC1-E275-4777-AF98-AB9B3DC0EDC1";
paths = (
{
closed = 1;
nodes = (
"860 1000 LINE",
"488 1000 LINE",
"488 182 LINE",
"510 0 LINE",
"860 0 LINE"
);
},
{
closed = 1;
nodes = (
"162 1022 OFFCURVE",
"36 868 OFFCURVE",
"36 502 CURVE SMOOTH",
"36 136 OFFCURVE",
"156 -22 OFFCURVE",
"324 -22 CURVE SMOOTH",
"506 -22 OFFCURVE",
"558 252 OFFCURVE",
"558 396 CURVE",
"492 412 LINE",
"489 312 OFFCURVE",
"468 262 OFFCURVE",
"446 262 CURVE SMOOTH",
"418 262 OFFCURVE",
"408 366 OFFCURVE",
"408 502 CURVE SMOOTH",
"408 636 OFFCURVE",
"418 738 OFFCURVE",
"446 738 CURVE SMOOTH",
"468 738 OFFCURVE",
"489 692 OFFCURVE",
"492 592 CURVE",
"560 628 LINE",
"560 772 OFFCURVE",
"500 1022 OFFCURVE",
"310 1022 CURVE SMOOTH"
);
}
);
width = 900;
},
{
anchors = (
{
name = bottom;
position = "{1100, 0}";
},
{
name = ogonek;
position = "{1836, 20}";
},
{
name = top;
position = "{1100, 1000}";
}
);
layerId = "16EBFD8D-F4C1-4BAA-8DD7-EBE82D779ED1";
paths = (
{
closed = 1;
nodes = (
"1700 1000 LINE",
"1316 1000 LINE",
"1316 182 LINE",
"1338 0 LINE",
"1700 0 LINE"
);
},
{
closed = 1;
nodes = (
"404 1022 OFFCURVE",
"168 835 OFFCURVE",
"168 505 CURVE SMOOTH",
"168 175 OFFCURVE",
"436 -22 OFFCURVE",
"802 -22 CURVE SMOOTH",
"1222 -22 OFFCURVE",
"1485 272 OFFCURVE",
"1485 436 CURVE",
"1326 462 LINE",
"1308 366 OFFCURVE",
"1074 262 OFFCURVE",
"914 262 CURVE SMOOTH",
"684 262 OFFCURVE",
"546 334 OFFCURVE",
"546 504 CURVE SMOOTH",
"546 674 OFFCURVE",
"672 738 OFFCURVE",
"902 738 CURVE SMOOTH",
"1062 738 OFFCURVE",
"1254 670 OFFCURVE",
"1326 562 CURVE",
"1478 590 LINE",
"1478 754 OFFCURVE",
"1182 1022 OFFCURVE",
"770 1022 CURVE SMOOTH"
);
}
);
width = 2200;
}
);
leftKerningGroup = a;
rightKerningGroup = n;
},
{
glyphname = ae;
lastChange = "2020-01-04 19:28:37 +0000";
layers = (
{
anchors = (
{
name = bottom;
position = "{898, 0}";
},
{
name = ogonek;
position = "{1020, 20}";
},
{
name = top;
position = "{898, 1000}";
}
);
components = (
{
name = e;
transform = "{1, 0, 0, 1, 589, 0}";
}
);
layerId = "5521DC30-183F-421A-91F3-644B5E24AFE6";
paths = (
{
closed = 1;
nodes = (
"1056 674 LINE SMOOTH",
"1056 896 OFFCURVE",
"860 1024 OFFCURVE",
"588 1024 CURVE SMOOTH",
"394 1024 OFFCURVE",
"198 986 OFFCURVE",
"120 954 CURVE",
"242 684 LINE",
"314 708 OFFCURVE",
"420 742 OFFCURVE",
"550 742 CURVE SMOOTH",
"654 742 OFFCURVE",
"724 688 OFFCURVE",
"724 632 CURVE SMOOTH",
"724 596 LINE",
"708 618 OFFCURVE",
"622 656 OFFCURVE",
"512 656 CURVE SMOOTH",
"286 656 OFFCURVE",
"64 546 OFFCURVE",
"64 322 CURVE SMOOTH",
"64 98 OFFCURVE",
"220 -22 OFFCURVE",
"502 -22 CURVE SMOOTH",
"860 -22 OFFCURVE",
"1056 206 OFFCURVE",
"1056 334 CURVE"
);
},
{
closed = 1;
nodes = (
"724 340 LINE",
"724 292 OFFCURVE",
"646 236 OFFCURVE",
"576 236 CURVE SMOOTH",
"486 236 OFFCURVE",
"428 276 OFFCURVE",
"428 334 CURVE SMOOTH",
"428 396 OFFCURVE",
"482 442 OFFCURVE",
"578 442 CURVE SMOOTH",
"638 442 OFFCURVE",
"710 420 OFFCURVE",
"724 404 CURVE"
);
}
);
width = 1800;
},
{
anchors = (
{
name = bottom;
position = "{902, 0}";
},
{
name = ogonek;
position = "{1042, 20}";
},
{
name = top;
position = "{902, 1000}";
}
);
components = (
{
name = e;
transform = "{1, 0, 0, 1, 650, 0}";
}
);
layerId = "BE68D89F-AB3F-4BDF-B332-ED50D7C47704";
paths = (
{
closed = 1;
nodes = (
"916 762 LINE SMOOTH",
"916 944 OFFCURVE",
"732 1024 OFFCURVE",
"554 1024 CURVE SMOOTH",
"376 1024 OFFCURVE",
"242 960 OFFCURVE",
"176 920 CURVE",
"216 860 LINE",
"266 896 OFFCURVE",
"410 960 OFFCURVE",
"540 960 CURVE SMOOTH",
"696 960 OFFCURVE",
"850 904 OFFCURVE",
"850 746 CURVE SMOOTH",
"850 568 LINE",
"798 598 OFFCURVE",
"694 638 OFFCURVE",
"562 638 CURVE SMOOTH",
"286 638 OFFCURVE",
"122 508 OFFCURVE",
"122 318 CURVE SMOOTH",
"122 130 OFFCURVE",
"250 -22 OFFCURVE",
"500 -22 CURVE SMOOTH",
"764 -22 OFFCURVE",
"916 174 OFFCURVE",
"916 384 CURVE"
);
},
{
closed = 1;
nodes = (
"850 400 LINE",
"850 220 OFFCURVE",
"736 42 OFFCURVE",
"512 42 CURVE SMOOTH",
"290 42 OFFCURVE",
"190 154 OFFCURVE",
"190 318 CURVE SMOOTH",
"190 480 OFFCURVE",
"324 574 OFFCURVE",
"564 574 CURVE SMOOTH",
"670 574 OFFCURVE",
"790 536 OFFCURVE",
"850 502 CURVE"
);
}
);
width = 1800;
},
{
anchors = (
{
name = bottom;
position = "{648, 0}";
},
{
name = ogonek;
position = "{748, 20}";
},
{
name = top;
position = "{648, 1000}";
}
);
components = (
{
name = e;
transform = "{1, 0, 0, 1, 432, 0}";
}
);
layerId = "2E286313-D5BF-4FB4-A4B7-BD9BC13B574E";
paths = (
{
closed = 1;
nodes = (
"668 762 LINE SMOOTH",
"668 944 OFFCURVE",
"540 1024 OFFCURVE",
"406 1024 CURVE SMOOTH",
"274 1024 OFFCURVE",
"188 960 OFFCURVE",
"140 920 CURVE",
"190 866 LINE",
"218 894 OFFCURVE",
"298 960 OFFCURVE",
"396 960 CURVE SMOOTH",
"514 960 OFFCURVE",
"598 904 OFFCURVE",
"598 746 CURVE SMOOTH",
"598 570 LINE",
"560 592 OFFCURVE",
"498 612 OFFCURVE",
"422 612 CURVE SMOOTH",
"214 612 OFFCURVE",
"116 500 OFFCURVE",
"116 302 CURVE SMOOTH",
"116 118 OFFCURVE",
"208 -22 OFFCURVE",
"374 -22 CURVE SMOOTH",
"532 -22 OFFCURVE",
"668 86 OFFCURVE",
"668 320 CURVE"
);
},
{
closed = 1;
nodes = (
"598 310 LINE",
"598 96 OFFCURVE",
"480 42 OFFCURVE",
"384 42 CURVE SMOOTH",
"248 42 OFFCURVE",
"186 144 OFFCURVE",
"186 302 CURVE SMOOTH",
"186 472 OFFCURVE",
"264 548 OFFCURVE",
"426 548 CURVE SMOOTH",
"494 548 OFFCURVE",
"558 528 OFFCURVE",
"598 500 CURVE"
);
}
);
width = 1400;
},
{
anchors = (
{
name = bottom;
position = "{1246, 0}";
},
{
name = ogonek;
position = "{1472, 20}";
},
{
name = top;
position = "{1246, 1000}";
}
);
components = (
{
name = e;
transform = "{1, 0, 0, 1, 806, 0}";
}
);
layerId = "E338D14E-1DA5-418D-88BC-8956EEA80AB9";
paths = (
{
closed = 1;
nodes = (
"1256 682 LINE SMOOTH",
"1254 964 OFFCURVE",
"962 1024 OFFCURVE",
"656 1024 CURVE SMOOTH",
"352 1024 OFFCURVE",
"134 946 OFFCURVE",
"68 920 CURVE",
"106 860 LINE",
"156 882 OFFCURVE",
"406 960 OFFCURVE",
"648 960 CURVE SMOOTH",
"916 960 OFFCURVE",
"1186 924 OFFCURVE",
"1186 666 CURVE SMOOTH",
"1186 584 LINE",
"1038 616 OFFCURVE",
"906 638 OFFCURVE",
"670 638 CURVE SMOOTH",
"252 638 OFFCURVE",
"38 500 OFFCURVE",
"38 306 CURVE SMOOTH",
"38 82 OFFCURVE",
"230 -22 OFFCURVE",
"564 -22 CURVE SMOOTH",
"1074 -22 OFFCURVE",
"1258 212 OFFCURVE",
"1258 388 CURVE"
);
},
{
closed = 1;
nodes = (
"1186 410 LINE",
"1186 220 OFFCURVE",
"958 42 OFFCURVE",
"592 42 CURVE SMOOTH",
"320 42 OFFCURVE",
"110 100 OFFCURVE",
"110 306 CURVE SMOOTH",
"110 464 OFFCURVE",
"300 573 OFFCURVE",
"668 576 CURVE SMOOTH",
"898 578 OFFCURVE",
"1068 550 OFFCURVE",
"1186 522 CURVE"
);
}
);
width = 2600;
},
{
anchors = (
{
name = bottom;
position = "{720, 0}";
},
{
name = ogonek;
position = "{792, 20}";
},
{
name = top;
position = "{720, 1000}";
}
);
components = (
{
name = e;
transform = "{1, 0, 0, 1, 470, 0}";
}
);
layerId = "5D8A6BC1-E275-4777-AF98-AB9B3DC0EDC1";
paths = (
{
closed = 1;
nodes = (
"882 696 LINE SMOOTH",
"882 890 OFFCURVE",
"694 1024 OFFCURVE",
"476 1024 CURVE SMOOTH",
"338 1024 OFFCURVE",
"176 990 OFFCURVE",
"106 954 CURVE",
"214 692 LINE",
"228 700 OFFCURVE",
"336 742 OFFCURVE",
"434 742 CURVE SMOOTH",
"496 742 OFFCURVE",
"520 704 OFFCURVE",
"520 666 CURVE SMOOTH",
"520 632 LINE",
"514 639 OFFCURVE",
"472 668 OFFCURVE",
"396 668 CURVE SMOOTH",
"268 668 OFFCURVE",
"110 570 OFFCURVE",
"110 348 CURVE SMOOTH",
"110 126 OFFCURVE",
"216 -22 OFFCURVE",
"450 -22 CURVE SMOOTH",
"694 -22 OFFCURVE",
"882 104 OFFCURVE",
"882 424 CURVE"
);
},
{
closed = 1;
nodes = (
"520 266 LINE SMOOTH",
"520 252 OFFCURVE",
"516 236 OFFCURVE",
"502 236 CURVE SMOOTH",
"482 236 OFFCURVE",
"470 286 OFFCURVE",
"470 356 CURVE SMOOTH",
"470 424 OFFCURVE",
"482 472 OFFCURVE",
"502 472 CURVE SMOOTH",
"514 472 OFFCURVE",
"519 463 OFFCURVE",
"520 458 CURVE"
);
}
);
width = 1400;
},
{
anchors = (
{
name = bottom;
position = "{1254, 0}";
},
{
name = ogonek;
position = "{1476, 20}";
},
{
name = top;
position = "{1254, 1000}";
}
);
components = (
{
alignment = -1;
name = e;
transform = "{1, 0, 0, 1, 776, 0}";
}
);
layerId = "16EBFD8D-F4C1-4BAA-8DD7-EBE82D779ED1";
paths = (
{
closed = 1;
nodes = (
"1426 630 LINE SMOOTH",
"1426 945 OFFCURVE",
"1024 1024 OFFCURVE",
"693 1024 CURVE SMOOTH",
"447 1024 OFFCURVE",
"163 990 OFFCURVE",
"29 954 CURVE",
"179 668 LINE",
"337 724 OFFCURVE",
"509 742 OFFCURVE",
"703 742 CURVE SMOOTH",
"891 742 OFFCURVE",
"1064 706 OFFCURVE",
"1064 584 CURVE SMOOTH",
"1064 526 LINE",
"1017 558 OFFCURVE",
"853 629 OFFCURVE",
"585 632 CURVE SMOOTH",
"323 635 OFFCURVE",
"1 574 OFFCURVE",
"1 309 CURVE SMOOTH",
"1 45 OFFCURVE",
"355 -22 OFFCURVE",
"599 -22 CURVE SMOOTH",
"1070 -22 OFFCURVE",
"1426 139 OFFCURVE",
"1426 375 CURVE"
);
},
{
closed = 1;
nodes = (
"1064 307 LINE",
"1064 309 OFFCURVE",
"901 236 OFFCURVE",
"593 236 CURVE SMOOTH",
"514 236 OFFCURVE",
"361 243 OFFCURVE",
"361 308 CURVE SMOOTH",
"361 378 OFFCURVE",
"523 385 OFFCURVE",
"637 385 CURVE SMOOTH",
"939 385 OFFCURVE",
"1064 313 OFFCURVE",
"1064 316 CURVE"
);
}
);
width = 2600;
}
);
leftKerningGroup = a;
rightKerningGroup = e;
unicode = 00E6;
},
{
color = 4;
glyphname = ae.ss01;
lastChange = "2020-01-04 19:01:17 +0000";
layers = (
{
anchors = (
{
name = bottom;
position = "{640, 0}";
},
{
name = top;
position = "{640, 1000}";
}
);
layerId = "5521DC30-183F-421A-91F3-644B5E24AFE6";
paths = (
{
closed = 1;
nodes = (
"1032 -22 OFFCURVE",
"1180 68 OFFCURVE",
"1240 234 CURVE",
"1002 352 LINE",
"990 318 OFFCURVE",
"960 236 OFFCURVE",
"906 236 CURVE SMOOTH",
"864 236 OFFCURVE",
"796 276 OFFCURVE",
"796 502 CURVE SMOOTH",
"796 686 OFFCURVE",
"838 758 OFFCURVE",
"908 758 CURVE SMOOTH",
"984 758 OFFCURVE",
"1002 676 OFFCURVE",
"1002 626 CURVE",
"1252 434 LINE",
"1252 774 OFFCURVE",
"1170 1024 OFFCURVE",
"922 1024 CURVE SMOOTH",
"690 1024 OFFCURVE",
"544 882 OFFCURVE",
"544 488 CURVE SMOOTH",
"544 102 OFFCURVE",
"672 -22 OFFCURVE",
"902 -22 CURVE SMOOTH"
);
},
{
closed = 1;
nodes = (
"591 -22 OFFCURVE",
"676 100 OFFCURVE",
"686 192 CURVE",
"592 332 LINE",
"578 286 OFFCURVE",
"537 226 OFFCURVE",
"446 226 CURVE SMOOTH",
"376 226 OFFCURVE",
"326 256 OFFCURVE",
"326 324 CURVE SMOOTH",
"326 380 OFFCURVE",
"376 434 OFFCURVE",
"464 434 CURVE SMOOTH",
"702 434 LINE",
"702 632 LINE",
"486 632 LINE SMOOTH",
"214 632 OFFCURVE",
"36 534 OFFCURVE",
"36 312 CURVE SMOOTH",
"36 84 OFFCURVE",
"200 -22 OFFCURVE",
"398 -22 CURVE SMOOTH"
);
},
{
closed = 1;
nodes = (
"1252 434 LINE",
"1098 626 LINE",
"756 626 LINE",
"756 434 LINE"
);
},
{
closed = 1;
nodes = (
"756 658 LINE SMOOTH",
"752 876 OFFCURVE",
"566 1024 OFFCURVE",
"394 1024 CURVE SMOOTH",
"218 1024 OFFCURVE",
"98 952 OFFCURVE",
"18 864 CURVE",
"202 664 LINE",
"252 712 OFFCURVE",
"322 754 OFFCURVE",
"408 754 CURVE SMOOTH",
"476 754 OFFCURVE",
"538 722 OFFCURVE",
"538 630 CURVE SMOOTH",
"538 442 LINE",
"760 444 LINE"
);
}
);
width = 1300;
},
{
anchors = (
{
name = bottom;
position = "{640, 0}";
},
{
name = top;
position = "{640, 1000}";
}
);
layerId = "BE68D89F-AB3F-4BDF-B332-ED50D7C47704";
paths = (
{
closed = 1;
nodes = (
"1064 -22 OFFCURVE",
"1136 38 OFFCURVE",
"1198 186 CURVE",
"1136 214 LINE",
"1114 144 OFFCURVE",
"1073 44 OFFCURVE",
"946 44 CURVE SMOOTH",
"742 44 OFFCURVE",
"700 224 OFFCURVE",
"700 502 CURVE SMOOTH",
"700 788 OFFCURVE",
"790 958 OFFCURVE",
"936 958 CURVE SMOOTH",
"1084 958 OFFCURVE",
"1110 740 OFFCURVE",
"1110 562 CURVE",
"1183 498 LINE",
"1183 838 OFFCURVE",
"1118 1024 OFFCURVE",
"936 1024 CURVE SMOOTH",
"782 1024 OFFCURVE",
"630 908 OFFCURVE",
"630 514 CURVE SMOOTH",
"630 128 OFFCURVE",
"722 -22 OFFCURVE",
"942 -22 CURVE SMOOTH"
);
},
{
closed = 1;
nodes = (
"596 -22 OFFCURVE",
"683 82 OFFCURVE",
"700 160 CURVE",
"660 218 LINE",
"646 140 OFFCURVE",
"568 42 OFFCURVE",
"428 42 CURVE SMOOTH",
"284 42 OFFCURVE",
"168 116 OFFCURVE",
"168 286 CURVE SMOOTH",
"168 480 OFFCURVE",
"356 498 OFFCURVE",
"498 498 CURVE SMOOTH",
"638 498 LINE",
"638 562 LINE",
"474 562 LINE SMOOTH",
"280 562 OFFCURVE",
"102 508 OFFCURVE",
"102 286 CURVE SMOOTH",
"102 92 OFFCURVE",
"224 -22 OFFCURVE",
"422 -22 CURVE SMOOTH"
);
},
{
closed = 1;
nodes = (
"1183 498 LINE",
"1118 562 LINE",
"692 562 LINE",
"692 498 LINE"
);
},
{
closed = 1;
nodes = (
"690 710 LINE",
"690 894 OFFCURVE",
"598 1024 OFFCURVE",
"426 1024 CURVE SMOOTH",
"282 1024 OFFCURVE",
"188 962 OFFCURVE",
"158 936 CURVE",
"210 876 LINE",
"248 910 OFFCURVE",
"304 958 OFFCURVE",
"426 958 CURVE SMOOTH",
"572 958 OFFCURVE",
"630 800 OFFCURVE",
"630 682 CURVE SMOOTH",
"630 514 LINE",
"696 510 LINE"
);
}
);
width = 1300;
},
{
anchors = (
{
name = bottom;
position = "{424, 0}";
},
{
name = top;
position = "{424, 1000}";
}
);
layerId = "2E286313-D5BF-4FB4-A4B7-BD9BC13B574E";
paths = (
{
closed = 1;
nodes = (
"742 -22 OFFCURVE",
"832 38 OFFCURVE",
"878 186 CURVE",
"812 214 LINE",
"796 154 OFFCURVE",
"758 44 OFFCURVE",
"654 44 CURVE SMOOTH",
"502 44 OFFCURVE",
"480 224 OFFCURVE",
"480 502 CURVE SMOOTH",
"480 788 OFFCURVE",
"542 958 OFFCURVE",
"666 958 CURVE SMOOTH",
"788 958 OFFCURVE",
"810 740 OFFCURVE",
"810 562 CURVE",
"882 498 LINE",
"882 838 OFFCURVE",
"824 1024 OFFCURVE",
"666 1024 CURVE SMOOTH",
"536 1024 OFFCURVE",
"408 908 OFFCURVE",
"408 514 CURVE SMOOTH",
"408 128 OFFCURVE",
"486 -22 OFFCURVE",
"652 -22 CURVE SMOOTH"
);
},
{
closed = 1;
nodes = (
"392 -22 OFFCURVE",
"465 84 OFFCURVE",
"483 164 CURVE",
"433 230 LINE",
"423 132 OFFCURVE",
"370 42 OFFCURVE",
"266 42 CURVE SMOOTH",
"158 42 OFFCURVE",
"84 116 OFFCURVE",
"84 286 CURVE SMOOTH",
"84 480 OFFCURVE",
"212 498 OFFCURVE",
"318 498 CURVE SMOOTH",
"414 498 LINE",
"414 562 LINE",
"300 562 LINE SMOOTH",
"154 562 OFFCURVE",
"16 508 OFFCURVE",
"16 286 CURVE SMOOTH",
"16 92 OFFCURVE",
"112 -22 OFFCURVE",
"262 -22 CURVE SMOOTH"
);
},
{
closed = 1;
nodes = (
"882 498 LINE",
"816 562 LINE",
"474 562 LINE",
"474 498 LINE"
);
},
{
closed = 1;
nodes = (
"462 710 LINE",
"462 894 OFFCURVE",
"378 1024 OFFCURVE",
"250 1024 CURVE SMOOTH",
"142 1024 OFFCURVE",
"70 962 OFFCURVE",
"48 936 CURVE",
"88 876 LINE",
"116 910 OFFCURVE",
"158 958 OFFCURVE",
"250 958 CURVE SMOOTH",
"358 958 OFFCURVE",
"408 802 OFFCURVE",
"408 682 CURVE SMOOTH",
"408 514 LINE",
"476 510 LINE"
);
}
);
width = 900;
},
{
anchors = (
{
name = bottom;
position = "{1070, 0}";
},
{
name = top;
position = "{1070, 1000}";
}
);
layerId = "E338D14E-1DA5-418D-88BC-8956EEA80AB9";
paths = (
{
closed = 1;
nodes = (
"1780 -22 OFFCURVE",
"1942 38 OFFCURVE",
"2030 186 CURVE",
"1953 214 LINE",
"1915 144 OFFCURVE",
"1816 44 OFFCURVE",
"1574 44 CURVE SMOOTH",
"1218 44 OFFCURVE",
"1124 224 OFFCURVE",
"1124 502 CURVE SMOOTH",
"1124 788 OFFCURVE",
"1266 958 OFFCURVE",
"1556 958 CURVE SMOOTH",
"1886 958 OFFCURVE",
"1976 740 OFFCURVE",
"1976 562 CURVE",
"2056 498 LINE",
"2056 813 OFFCURVE",
"1932 1024 OFFCURVE",
"1556 1024 CURVE SMOOTH",
"1252 1024 OFFCURVE",
"1042 868 OFFCURVE",
"1042 514 CURVE SMOOTH",
"1042 168 OFFCURVE",
"1192 -22 OFFCURVE",
"1568 -22 CURVE SMOOTH"
);
},
{
closed = 1;
nodes = (
"885 -22 OFFCURVE",
"1063 111 OFFCURVE",
"1123 212 CURVE",
"1079 282 LINE",
"1061 185 OFFCURVE",
"882 42 OFFCURVE",
"628 42 CURVE SMOOTH",
"416 42 OFFCURVE",
"208 96 OFFCURVE",
"208 286 CURVE SMOOTH",
"208 480 OFFCURVE",
"482 498 OFFCURVE",
"630 498 CURVE SMOOTH",
"1056 498 LINE",
"1056 562 LINE",
"618 562 LINE SMOOTH",
"398 562 OFFCURVE",
"132 508 OFFCURVE",
"132 286 CURVE SMOOTH",
"132 72 OFFCURVE",
"310 -22 OFFCURVE",
"618 -22 CURVE SMOOTH"
);
},
{
closed = 1;
nodes = (
"2056 498 LINE",
"1990 562 LINE",
"1110 562 LINE",
"1110 498 LINE"
);
},
{
closed = 1;
nodes = (
"1112 600 LINE",
"1108 784 OFFCURVE",
"998 1024 OFFCURVE",
"626 1024 CURVE SMOOTH",
"374 1024 OFFCURVE",
"216 922 OFFCURVE",
"180 896 CURVE",
"232 836 LINE",
"282 870 OFFCURVE",
"412 958 OFFCURVE",
"626 958 CURVE SMOOTH",
"960 958 OFFCURVE",
"1042 700 OFFCURVE",
"1042 582 CURVE SMOOTH",
"1042 514 LINE",
"1116 510 LINE"
);
}
);
width = 2200;
},
{
anchors = (
{
name = bottom;
position = "{454, 0}";
},
{
name = top;
position = "{454, 1000}";
}
);
layerId = "5D8A6BC1-E275-4777-AF98-AB9B3DC0EDC1";
paths = (
{
closed = 1;
nodes = (
"720 -22 OFFCURVE",
"852 68 OFFCURVE",
"892 234 CURVE",
"664 352 LINE",
"660 308 OFFCURVE",
"647 236 OFFCURVE",
"632 236 CURVE SMOOTH",
"617 236 OFFCURVE",
"610 276 OFFCURVE",
"610 502 CURVE SMOOTH",
"610 686 OFFCURVE",
"621 758 OFFCURVE",
"639 758 CURVE SMOOTH",
"654 758 OFFCURVE",
"658 692 OFFCURVE",
"658 626 CURVE",
"906 434 LINE",
"906 830 OFFCURVE",
"855 1024 OFFCURVE",
"650 1024 CURVE SMOOTH",
"484 1024 OFFCURVE",
"360 894 OFFCURVE",
"360 488 CURVE SMOOTH",
"360 92 OFFCURVE",
"470 -22 OFFCURVE",
"630 -22 CURVE SMOOTH"
);
},
{
closed = 1;
nodes = (
"415 -22 OFFCURVE",
"477 85 OFFCURVE",
"490 166 CURVE",
"391 314 LINE",
"391 247 OFFCURVE",
"374 226 OFFCURVE",
"348 226 CURVE SMOOTH",
"324 226 OFFCURVE",
"308 262 OFFCURVE",
"308 324 CURVE SMOOTH",
"308 380 OFFCURVE",
"314 434 OFFCURVE",
"382 434 CURVE SMOOTH",
"516 434 LINE",
"516 632 LINE",
"406 632 LINE SMOOTH",
"164 632 OFFCURVE",
"20 534 OFFCURVE",
"20 312 CURVE SMOOTH",
"20 90 OFFCURVE",
"156 -22 OFFCURVE",
"292 -22 CURVE SMOOTH"
);
},
{
closed = 1;
nodes = (
"906 434 LINE",
"752 626 LINE",
"572 626 LINE",
"572 434 LINE"
);
},
{
closed = 1;
nodes = (
"574 688 LINE SMOOTH",
"574 906 OFFCURVE",
"408 1024 OFFCURVE",
"292 1024 CURVE SMOOTH",
"160 1024 OFFCURVE",
"68 962 OFFCURVE",
"-8 874 CURVE",
"172 676 LINE",
"214 722 OFFCURVE",
"256 754 OFFCURVE",
"304 754 CURVE SMOOTH",
"326 753 OFFCURVE",
"356 727 OFFCURVE",
"356 658 CURVE SMOOTH",
"356 442 LINE",
"574 444 LINE"
);
}
);
width = 900;
},
{
anchors = (
{
name = bottom;
position = "{1012, 0}";
},
{
name = top;
position = "{1012, 1000}";
}
);
layerId = "16EBFD8D-F4C1-4BAA-8DD7-EBE82D779ED1";
paths = (
{
closed = 1;
nodes = (
"1656 -22 OFFCURVE",
"1836 68 OFFCURVE",
"1936 234 CURVE",
"1678 352 LINE",
"1638 298 OFFCURVE",
"1576 236 OFFCURVE",
"1444 236 CURVE SMOOTH",
"1348 236 OFFCURVE",
"1178 276 OFFCURVE",
"1178 502 CURVE SMOOTH",
"1178 686 OFFCURVE",
"1262 758 OFFCURVE",
"1436 758 CURVE SMOOTH",
"1606 758 OFFCURVE",
"1627 632 OFFCURVE",
"1627 596 CURVE",
"1944 434 LINE",
"1944 734 OFFCURVE",
"1855 1024 OFFCURVE",
"1446 1024 CURVE SMOOTH",
"1143 1024 OFFCURVE",
"912 858 OFFCURVE",
"912 488 CURVE SMOOTH",
"912 122 OFFCURVE",
"1204 -22 OFFCURVE",
"1446 -22 CURVE SMOOTH"
);
},
{
closed = 1;
nodes = (
"778 -22 OFFCURVE",
"1009 101 OFFCURVE",
"1051 293 CURVE",
"912 441 LINE",
"912 397 OFFCURVE",
"763 226 OFFCURVE",
"542 226 CURVE SMOOTH",
"461 226 OFFCURVE",
"362 251 OFFCURVE",
"362 331 CURVE SMOOTH",
"362 409 OFFCURVE",
"470 434 OFFCURVE",
"568 434 CURVE SMOOTH",
"1074 434 LINE",
"1074 632 LINE",
"496 632 LINE SMOOTH",
"347 632 OFFCURVE",
"68 554 OFFCURVE",
"68 322 CURVE SMOOTH",
"68 82 OFFCURVE",
"305 -22 OFFCURVE",
"528 -22 CURVE SMOOTH"
);
},
{
closed = 1;
nodes = (
"1944 434 LINE",
"1790 626 LINE",
"1124 626 LINE",
"1124 434 LINE"
);
},
{
closed = 1;
nodes = (
"1120 598 LINE SMOOTH",
"1108 816 OFFCURVE",
"882 1024 OFFCURVE",
"598 1024 CURVE SMOOTH",
"334 1024 OFFCURVE",
"158 932 OFFCURVE",
"70 844 CURVE",
"262 640 LINE",
"328 692 OFFCURVE",
"454 754 OFFCURVE",
"616 754 CURVE SMOOTH",
"820 754 OFFCURVE",
"902 662 OFFCURVE",
"902 574 CURVE SMOOTH",
"902 442 LINE",
"1132 444 LINE"
);
}
);
width = 2200;
}
);
leftKerningGroup = a;
rightKerningGroup = e;
},
{
glyphname = b;
lastChange = "2020-01-04 16:17:08 +0000";
layers = (
{
anchors = (
{
name = bottom;
position = "{600, 0}";
},
{
name = top;
position = "{600, 1000}";
}
);
layerId = "5521DC30-183F-421A-91F3-644B5E24AFE6";
paths = (
{
closed = 1;
nodes = (
"1042 -22 OFFCURVE",
"1202 148 OFFCURVE",
"1202 502 CURVE SMOOTH",
"1202 856 OFFCURVE",
"1062 1022 OFFCURVE",
"828 1022 CURVE SMOOTH",
"564 1022 OFFCURVE",
"448 774 OFFCURVE",
"448 630 CURVE",
"516 602 LINE",
"540 682 OFFCURVE",
"620 738 OFFCURVE",
"688 738 CURVE SMOOTH",
"796 738 OFFCURVE",
"828 644 OFFCURVE",
"828 502 CURVE SMOOTH",
"828 358 OFFCURVE",
"794 262 OFFCURVE",
"682 262 CURVE SMOOTH",
"616 262 OFFCURVE",
"518 322 OFFCURVE",
"516 422 CURVE",
"450 396 LINE",
"450 252 OFFCURVE",
"548 -22 OFFCURVE",
"808 -22 CURVE SMOOTH"
);
},
{
closed = 1;
nodes = (
"486 0 LINE",
"528 202 LINE",
"528 1500 LINE",
"152 1500 LINE",
"152 0 LINE"
);
}
);
width = 1300;
},
{
anchors = (
{
name = bottom;
position = "{676, 0}";
},
{
name = top;
position = "{676, 1000}";
}
);
layerId = "BE68D89F-AB3F-4BDF-B332-ED50D7C47704";
paths = (
{
closed = 1;
nodes = (
"870 -22 OFFCURVE",
"1048 136 OFFCURVE",
"1048 502 CURVE SMOOTH",
"1048 868 OFFCURVE",
"890 1022 OFFCURVE",
"698 1022 CURVE SMOOTH",
"458 1022 OFFCURVE",
"322 818 OFFCURVE",
"322 624 CURVE",
"356 624 LINE",
"382 780 OFFCURVE",
"500 956 OFFCURVE",
"684 956 CURVE SMOOTH",
"862 956 OFFCURVE",
"982 832 OFFCURVE",
"982 502 CURVE SMOOTH",
"982 178 OFFCURVE",
"844 44 OFFCURVE",
"666 44 CURVE SMOOTH",
"482 44 OFFCURVE",
"378 234 OFFCURVE",
"356 400 CURVE",
"322 398 LINE",
"322 194 OFFCURVE",
"436 -22 OFFCURVE",
"678 -22 CURVE SMOOTH"
);
},
{
closed = 1;
nodes = (
"360 0 LINE",
"360 242 LINE",
"360 1500 LINE",
"294 1500 LINE",
"294 0 LINE"
);
}
);
width = 1300;
},
{
anchors = (
{
name = bottom;
position = "{392, 0}";
},
{
name = top;
position = "{392, 1000}";
}
);
layerId = "2E286313-D5BF-4FB4-A4B7-BD9BC13B574E";
paths = (
{
closed = 1;
nodes = (
"612 -22 OFFCURVE",
"730 136 OFFCURVE",
"730 502 CURVE SMOOTH",
"730 868 OFFCURVE",
"628 1022 OFFCURVE",
"484 1022 CURVE SMOOTH",
"296 1022 OFFCURVE",
"192 818 OFFCURVE",
"192 624 CURVE",
"238 628 LINE",
"256 774 OFFCURVE",
"334 956 OFFCURVE",
"472 956 CURVE SMOOTH",
"590 956 OFFCURVE",
"660 832 OFFCURVE",
"660 502 CURVE SMOOTH",
"660 178 OFFCURVE",
"576 44 OFFCURVE",
"460 44 CURVE SMOOTH",
"322 44 OFFCURVE",
"254 230 OFFCURVE",
"238 396 CURVE",
"192 392 LINE",
"192 198 OFFCURVE",
"284 -22 OFFCURVE",
"468 -22 CURVE SMOOTH"
);
},
{
closed = 1;
nodes = (
"242 0 LINE",
"242 162 LINE",
"242 1500 LINE",
"172 1500 LINE",
"172 0 LINE"
);
}
);
width = 900;
},
{
anchors = (
{
name = bottom;
position = "{1050, 0}";
},
{
name = top;
position = "{1050, 1000}";
}
);
layerId = "E338D14E-1DA5-418D-88BC-8956EEA80AB9";
paths = (
{
closed = 1;
nodes = (
"1586 -22 OFFCURVE",
"1864 156 OFFCURVE",
"1864 502 CURVE SMOOTH",
"1864 848 OFFCURVE",
"1622 1022 OFFCURVE",
"1226 1022 CURVE SMOOTH",
"820 1022 OFFCURVE",
"512 824 OFFCURVE",
"512 604 CURVE",
"556 604 LINE",
"580 770 OFFCURVE",
"896 956 OFFCURVE",
"1218 956 CURVE SMOOTH",
"1584 956 OFFCURVE",
"1788 786 OFFCURVE",
"1788 502 CURVE SMOOTH",
"1788 218 OFFCURVE",
"1554 44 OFFCURVE",
"1188 44 CURVE SMOOTH",
"866 44 OFFCURVE",
"574 234 OFFCURVE",
"556 420 CURVE",
"512 414 LINE",
"512 190 OFFCURVE",
"794 -22 OFFCURVE",
"1190 -22 CURVE SMOOTH"
);
},
{
closed = 1;
nodes = (
"560 0 LINE",
"560 284 LINE",
"560 1500 LINE",
"484 1500 LINE",
"484 0 LINE"
);
}
);
width = 2200;
},
{
anchors = (
{
name = bottom;
position = "{382, 0}";
},
{
name = top;
position = "{382, 1000}";
}
);
layerId = "5D8A6BC1-E275-4777-AF98-AB9B3DC0EDC1";
paths = (
{
closed = 1;
nodes = (
"748 -22 OFFCURVE",
"854 136 OFFCURVE",
"854 502 CURVE SMOOTH",
"854 868 OFFCURVE",
"762 1022 OFFCURVE",
"594 1022 CURVE SMOOTH",
"404 1022 OFFCURVE",
"368 784 OFFCURVE",
"368 650 CURVE",
"414 622 LINE",
"414 688 OFFCURVE",
"428 738 OFFCURVE",
"450 738 CURVE SMOOTH",
"472 738 OFFCURVE",
"482 656 OFFCURVE",
"482 502 CURVE SMOOTH",
"482 346 OFFCURVE",
"476 262 OFFCURVE",
"452 262 CURVE SMOOTH",
"432 262 OFFCURVE",
"408 300 OFFCURVE",
"414 402 CURVE",
"380 376 LINE",
"380 242 OFFCURVE",
"400 -22 OFFCURVE",
"580 -22 CURVE SMOOTH"
);
},
{
closed = 1;
nodes = (
"378 0 LINE",
"418 154 LINE",
"418 1500 LINE",
"46 1500 LINE",
"46 0 LINE"
);
}
);
width = 900;
},
{
anchors = (
{
name = bottom;
position = "{1036, 0}";
},
{
name = top;
position = "{1036, 1000}";
}
);
layerId = "16EBFD8D-F4C1-4BAA-8DD7-EBE82D779ED1";
paths = (
{
closed = 1;
nodes = (
"1630 -22 OFFCURVE",
"1898 175 OFFCURVE",
"1898 505 CURVE SMOOTH",
"1898 835 OFFCURVE",
"1662 1022 OFFCURVE",
"1296 1022 CURVE SMOOTH",
"884 1022 OFFCURVE",
"588 754 OFFCURVE",
"588 590 CURVE",
"740 562 LINE",
"812 670 OFFCURVE",
"1004 738 OFFCURVE",
"1164 738 CURVE SMOOTH",
"1394 738 OFFCURVE",
"1520 674 OFFCURVE",
"1520 504 CURVE SMOOTH",
"1520 334 OFFCURVE",
"1382 262 OFFCURVE",
"1152 262 CURVE SMOOTH",
"992 262 OFFCURVE",
"758 366 OFFCURVE",
"740 462 CURVE",
"581 436 LINE",
"581 272 OFFCURVE",
"844 -22 OFFCURVE",
"1264 -22 CURVE SMOOTH"
);
},
{
closed = 1;
nodes = (
"702 0 LINE",
"748 298 LINE",
"748 1500 LINE",
"364 1500 LINE",
"364 0 LINE"
);
}
);
width = 2200;
}
);
leftKerningGroup = h;
rightKerningGroup = o;
unicode = 0062;
},
{
glyphname = c;
lastChange = "2020-01-04 16:08:23 +0000";
layers = (
{
anchors = (
{
name = bottom;
position = "{696, 0}";
},
{
name = top;
position = "{696, 1000}";
}
);
layerId = "5521DC30-183F-421A-91F3-644B5E24AFE6";
paths = (
{
closed = 1;
nodes = (
"922 -22 OFFCURVE",
"1097 50 OFFCURVE",
"1191 218 CURVE",
"888 386 LINE",
"862 326 OFFCURVE",
"809 246 OFFCURVE",
"711 246 CURVE SMOOTH",
"615 246 OFFCURVE",
"540 316 OFFCURVE",
"540 502 CURVE SMOOTH",
"540 692 OFFCURVE",
"615 756 OFFCURVE",
"711 756 CURVE SMOOTH",
"809 756 OFFCURVE",
"862 660 OFFCURVE",
"888 600 CURVE",
"1192 768 LINE",
"1104 948 OFFCURVE",
"918 1024 OFFCURVE",
"700 1024 CURVE SMOOTH",
"424 1024 OFFCURVE",
"154 888 OFFCURVE",
"154 502 CURVE SMOOTH",
"154 120 OFFCURVE",
"424 -22 OFFCURVE",
"700 -22 CURVE SMOOTH"
);
}
);
width = 1300;
},
{
anchors = (
{
name = bottom;
position = "{680, 0}";
},
{
name = top;
position = "{680, 1000}";
}
);
layerId = "BE68D89F-AB3F-4BDF-B332-ED50D7C47704";
paths = (
{
closed = 1;
nodes = (
"894 -22 OFFCURVE",
"1017 110 OFFCURVE",
"1053 184 CURVE",
"989 218 LINE",
"953 144 OFFCURVE",
"856 44 OFFCURVE",
"700 44 CURVE SMOOTH",
"534 44 OFFCURVE",
"324 188 OFFCURVE",
"324 502 CURVE SMOOTH",
"324 820 OFFCURVE",
"534 958 OFFCURVE",
"700 958 CURVE SMOOTH",
"854 958 OFFCURVE",
"951 864 OFFCURVE",
"991 784 CURVE",
"1053 816 LINE",
"1011 902 OFFCURVE",
"894 1024 OFFCURVE",
"700 1024 CURVE SMOOTH",
"506 1024 OFFCURVE",
"252 878 OFFCURVE",
"252 502 CURVE SMOOTH",
"252 130 OFFCURVE",
"506 -22 OFFCURVE",
"700 -22 CURVE SMOOTH"
);
}
);
width = 1300;
},
{
anchors = (
{
name = bottom;
position = "{466, 0}";
},
{
name = top;
position = "{466, 1000}";
}
);
layerId = "2E286313-D5BF-4FB4-A4B7-BD9BC13B574E";
paths = (
{
closed = 1;
nodes = (
"606 -22 OFFCURVE",
"692 104 OFFCURVE",
"718 178 CURVE",
"654 210 LINE",
"628 136 OFFCURVE",
"578 44 OFFCURVE",
"480 44 CURVE SMOOTH",
"360 44 OFFCURVE",
"248 188 OFFCURVE",
"248 502 CURVE SMOOTH",
"248 820 OFFCURVE",
"360 958 OFFCURVE",
"480 958 CURVE SMOOTH",
"578 958 OFFCURVE",
"618 872 OFFCURVE",
"654 784 CURVE",
"718 816 LINE",
"678 922 OFFCURVE",
"606 1024 OFFCURVE",
"480 1024 CURVE SMOOTH",
"332 1024 OFFCURVE",
"182 888 OFFCURVE",
"182 502 CURVE SMOOTH",
"182 120 OFFCURVE",
"332 -22 OFFCURVE",
"480 -22 CURVE SMOOTH"
);
}
);
width = 900;
},
{
anchors = (
{
name = bottom;
position = "{1156, 0}";
},
{
name = top;
position = "{1156, 1000}";
}
);
layerId = "E338D14E-1DA5-418D-88BC-8956EEA80AB9";
paths = (
{
closed = 1;
nodes = (
"1492 -22 OFFCURVE",
"1720 104 OFFCURVE",
"1782 178 CURVE",
"1722 226 LINE",
"1660 152 OFFCURVE",
"1464 44 OFFCURVE",
"1190 44 CURVE SMOOTH",
"882 44 OFFCURVE",
"542 188 OFFCURVE",
"542 502 CURVE SMOOTH",
"542 820 OFFCURVE",
"882 958 OFFCURVE",
"1190 958 CURVE SMOOTH",
"1464 958 OFFCURVE",
"1638 878 OFFCURVE",
"1730 770 CURVE",
"1782 816 LINE",
"1688 922 OFFCURVE",
"1492 1024 OFFCURVE",
"1190 1024 CURVE SMOOTH",
"884 1024 OFFCURVE",
"468 888 OFFCURVE",
"468 502 CURVE SMOOTH",
"468 120 OFFCURVE",
"884 -22 OFFCURVE",
"1190 -22 CURVE SMOOTH"
);
}
);
width = 2200;
},
{
anchors = (
{
name = bottom;
position = "{474, 0}";
},
{
name = top;
position = "{474, 1000}";
}
);
layerId = "5D8A6BC1-E275-4777-AF98-AB9B3DC0EDC1";
paths = (
{
closed = 1;
nodes = (
"662 -22 OFFCURVE",
"774 90 OFFCURVE",
"836 258 CURVE",
"510 374 LINE",
"507 346 OFFCURVE",
"482 244 OFFCURVE",
"462 244 CURVE SMOOTH",
"438 244 OFFCURVE",
"424 316 OFFCURVE",
"424 502 CURVE SMOOTH",
"424 692 OFFCURVE",
"436 756 OFFCURVE",
"460 756 CURVE SMOOTH",
"484 756 OFFCURVE",
"507 626 OFFCURVE",
"510 598 CURVE",
"836 728 LINE",
"786 908 OFFCURVE",
"660 1024 OFFCURVE",
"462 1024 CURVE SMOOTH",
"236 1024 OFFCURVE",
"46 888 OFFCURVE",
"46 502 CURVE SMOOTH",
"46 120 OFFCURVE",
"236 -22 OFFCURVE",
"462 -22 CURVE SMOOTH"
);
}
);
width = 900;
},
{
anchors = (
{
name = bottom;
position = "{1133, 0}";
},
{
name = top;
position = "{1149, 1000}";
}
);
layerId = "16EBFD8D-F4C1-4BAA-8DD7-EBE82D779ED1";
paths = (
{
closed = 1;
nodes = (
"1422 -22 OFFCURVE",
"1776 30 OFFCURVE",
"1884 138 CURVE",
"1654 390 LINE",
"1582 318 OFFCURVE",
"1403 250 OFFCURVE",
"1169 250 CURVE SMOOTH",
"929 250 OFFCURVE",
"752 316 OFFCURVE",
"752 502 CURVE SMOOTH",
"752 692 OFFCURVE",
"933 756 OFFCURVE",
"1173 756 CURVE SMOOTH",
"1399 756 OFFCURVE",
"1582 696 OFFCURVE",
"1654 624 CURVE",
"1884 848 LINE",
"1776 956 OFFCURVE",
"1422 1024 OFFCURVE",
"1156 1024 CURVE SMOOTH",
"780 1024 OFFCURVE",
"350 888 OFFCURVE",
"350 502 CURVE SMOOTH",
"350 116 OFFCURVE",
"780 -22 OFFCURVE",
"1156 -22 CURVE SMOOTH"
);
}
);
width = 2200;
}
);
leftKerningGroup = o;
rightKerningGroup = c;
unicode = 0063;
},
{
glyphname = eth;
lastChange = "2020-01-04 19:35:19 +0000";
layers = (
{
layerId = "5521DC30-183F-421A-91F3-644B5E24AFE6";
paths = (
{
closed = 1;
nodes = (
"322 1252 LINE",
"484 1098 LINE",
"936 1474 LINE",
"802 1628 LINE"
);
},
{
closed = 1;
nodes = (
"272 1408 LINE",
"656 1326 OFFCURVE",
"832 924 OFFCURVE",
"832 588 CURVE SMOOTH",
"832 382 OFFCURVE",
"776 264 OFFCURVE",
"648 264 CURVE SMOOTH",
"542 264 OFFCURVE",
"472 384 OFFCURVE",
"472 504 CURVE SMOOTH",
"472 628 OFFCURVE",
"540 742 OFFCURVE",
"656 742 CURVE SMOOTH",
"766 742 OFFCURVE",
"832 639 OFFCURVE",
"832 588 CURVE",
"950 752 LINE",
"908 950 OFFCURVE",
"754 1026 OFFCURVE",
"592 1026 CURVE SMOOTH",
"320 1026 OFFCURVE",
"84 888 OFFCURVE",
"84 504 CURVE SMOOTH",
"84 124 OFFCURVE",
"356 -20 OFFCURVE",
"634 -20 CURVE SMOOTH",
"936 -20 OFFCURVE",
"1234 74 OFFCURVE",
"1234 658 CURVE SMOOTH",
"1234 1236 OFFCURVE",
"732 1544 OFFCURVE",
"394 1622 CURVE"
);
}
);
width = 1300;
},
{
layerId = "BE68D89F-AB3F-4BDF-B332-ED50D7C47704";
paths = (
{
closed = 1;
nodes = (
"470 1384 LINE",
"524 1328 LINE",
"804 1502 LINE",
"760 1568 LINE"
);
},
{
closed = 1;
nodes = (
"378 1524 LINE",
"636 1482 OFFCURVE",
"974 1172 OFFCURVE",
"974 656 CURVE SMOOTH",
"974 178 OFFCURVE",
"820 44 OFFCURVE",
"634 44 CURVE SMOOTH",
"438 44 OFFCURVE",
"286 228 OFFCURVE",
"286 502 CURVE SMOOTH",
"286 780 OFFCURVE",
"428 958 OFFCURVE",
"624 958 CURVE SMOOTH",
"812 958 OFFCURVE",
"974 793 OFFCURVE",
"974 656 CURVE",
"1020 718 LINE",
"1014 844 OFFCURVE",
"884 1024 OFFCURVE",
"630 1024 CURVE SMOOTH",
"350 1024 OFFCURVE",
"220 808 OFFCURVE",
"220 502 CURVE SMOOTH",
"220 200 OFFCURVE",
"374 -22 OFFCURVE",
"634 -22 CURVE SMOOTH",
"868 -22 OFFCURVE",
"1044 150 OFFCURVE",
"1044 656 CURVE SMOOTH",
"1044 1132 OFFCURVE",
"752 1520 OFFCURVE",
"414 1590 CURVE"
);
}
);
width = 1300;
},
{
layerId = "2E286313-D5BF-4FB4-A4B7-BD9BC13B574E";
paths = (
{
closed = 1;
nodes = (
"290 1364 LINE",
"342 1308 LINE",
"576 1488 LINE",
"526 1544 LINE"
);
},
{
closed = 1;
nodes = (
"216 1504 LINE",
"414 1482 OFFCURVE",
"678 1132 OFFCURVE",
"678 616 CURVE SMOOTH",
"678 138 OFFCURVE",
"582 44 OFFCURVE",
"442 44 CURVE SMOOTH",
"296 44 OFFCURVE",
"222 228 OFFCURVE",
"222 502 CURVE SMOOTH",
"222 780 OFFCURVE",
"288 958 OFFCURVE",
"434 958 CURVE SMOOTH",
"576 958 OFFCURVE",
"678 765 OFFCURVE",
"678 616 CURVE",
"722 678 LINE",
"720 802 OFFCURVE",
"630 1024 OFFCURVE",
"440 1024 CURVE SMOOTH",
"230 1024 OFFCURVE",
"152 808 OFFCURVE",
"152 502 CURVE SMOOTH",
"152 200 OFFCURVE",
"248 -22 OFFCURVE",
"442 -22 CURVE SMOOTH",
"618 -22 OFFCURVE",
"750 110 OFFCURVE",
"750 616 CURVE SMOOTH",
"750 1112 OFFCURVE",
"512 1520 OFFCURVE",
"248 1570 CURVE"
);
}
);
width = 900;
},
{
layerId = "E338D14E-1DA5-418D-88BC-8956EEA80AB9";
paths = (
{
closed = 1;
nodes = (
"776 1314 LINE",
"830 1258 LINE",
"1268 1530 LINE",
"1224 1596 LINE"
);
},
{
closed = 1;
nodes = (
"594 1524 LINE",
"1066 1502 OFFCURVE",
"1658 1112 OFFCURVE",
"1658 596 CURVE SMOOTH",
"1658 178 OFFCURVE",
"1368 44 OFFCURVE",
"1042 44 CURVE SMOOTH",
"700 44 OFFCURVE",
"414 228 OFFCURVE",
"414 502 CURVE SMOOTH",
"414 800 OFFCURVE",
"700 958 OFFCURVE",
"1024 958 CURVE SMOOTH",
"1373 958 OFFCURVE",
"1644 760 OFFCURVE",
"1662 632 CURVE",
"1720 658 LINE",
"1692 772 OFFCURVE",
"1480 1024 OFFCURVE",
"1036 1024 CURVE SMOOTH",
"608 1024 OFFCURVE",
"338 828 OFFCURVE",
"338 502 CURVE SMOOTH",
"338 200 OFFCURVE",
"608 -22 OFFCURVE",
"1042 -22 CURVE SMOOTH",
"1452 -22 OFFCURVE",
"1740 156 OFFCURVE",
"1740 602 CURVE SMOOTH",
"1740 1102 OFFCURVE",
"1248 1530 OFFCURVE",
"658 1590 CURVE"
);
}
);
width = 2200;
},
{
layerId = "5D8A6BC1-E275-4777-AF98-AB9B3DC0EDC1";
paths = (
{
closed = 1;
nodes = (
"140 1260 LINE",
"302 1108 LINE",
"690 1458 LINE",
"552 1608 LINE"
);
},
{
closed = 1;
nodes = (
"124 1396 LINE",
"422 1316 OFFCURVE",
"494 970 OFFCURVE",
"494 634 CURVE SMOOTH",
"494 294 OFFCURVE",
"491 262 OFFCURVE",
"451 262 CURVE SMOOTH",
"407 262 OFFCURVE",
"392 328 OFFCURVE",
"392 502 CURVE SMOOTH",
"392 676 OFFCURVE",
"409 740 OFFCURVE",
"451 740 CURVE SMOOTH",
"489 740 OFFCURVE",
"494 694 OFFCURVE",
"494 634 CURVE",
"638 712 LINE",
"617 929 OFFCURVE",
"514 1024 OFFCURVE",
"380 1024 CURVE SMOOTH",
"196 1024 OFFCURVE",
"6 886 OFFCURVE",
"6 502 CURVE SMOOTH",
"6 122 OFFCURVE",
"224 -22 OFFCURVE",
"420 -22 CURVE SMOOTH",
"656 -22 OFFCURVE",
"884 54 OFFCURVE",
"884 654 CURVE SMOOTH",
"884 1234 OFFCURVE",
"472 1538 OFFCURVE",
"236 1612 CURVE"
);
}
);
width = 900;
},
{
layerId = "16EBFD8D-F4C1-4BAA-8DD7-EBE82D779ED1";
paths = (
{
closed = 1;
nodes = (
"735 1230 LINE",
"897 1072 LINE",
"1477 1500 LINE",
"1351 1662 LINE"
);
},
{
closed = 1;
nodes = (
"607 1406 LINE",
"1163 1320 OFFCURVE",
"1557 962 OFFCURVE",
"1557 583 CURVE SMOOTH",
"1557 365 OFFCURVE",
"1373 262 OFFCURVE",
"1125 262 CURVE SMOOTH",
"895 262 OFFCURVE",
"681 315 OFFCURVE",
"681 502 CURVE SMOOTH",
"681 694 OFFCURVE",
"883 740 OFFCURVE",
"1117 740 CURVE SMOOTH",
"1355 740 OFFCURVE",
"1557 680 OFFCURVE",
"1565 592 CURVE",
"1699 718 LINE",
"1649 912 OFFCURVE",
"1391 1024 OFFCURVE",
"1065 1024 CURVE SMOOTH",
"669 1024 OFFCURVE",
"289 886 OFFCURVE",
"289 502 CURVE SMOOTH",
"289 122 OFFCURVE",
"669 -22 OFFCURVE",
"1111 -22 CURVE SMOOTH",
"1575 -22 OFFCURVE",
"1963 108 OFFCURVE",
"1963 660 CURVE SMOOTH",
"1963 1234 OFFCURVE",
"1301 1550 OFFCURVE",
"759 1636 CURVE"
);
}
);
width = 2200;
}
);
leftKerningGroup = eth;
rightKerningGroup = eth;
unicode = 00F0;
},
{
glyphname = e;
lastChange = "2020-01-04 16:10:38 +0000";
layers = (
{
anchors = (
{
name = bottom;
position = "{694, 0}";
},
{
name = ogonek;
position = "{692, 20}";
},
{
name = top;
position = "{672, 1000}";
}
);
layerId = "5521DC30-183F-421A-91F3-644B5E24AFE6";
paths = (
{
closed = 1;
nodes = (
"412 382 LINE",
"1162 382 LINE",
"1167 423 OFFCURVE",
"1170 481 OFFCURVE",
"1170 517 CURVE SMOOTH",
"1170 862 OFFCURVE",
"945 1024 OFFCURVE",
"654 1024 CURVE SMOOTH",
"350 1024 OFFCURVE",
"130 834 OFFCURVE",
"130 502 CURVE SMOOTH",
"130 168 OFFCURVE",
"362 -22 OFFCURVE",
"654 -22 CURVE SMOOTH",
"876 -22 OFFCURVE",
"1048 54 OFFCURVE",
"1136 180 CURVE",
"844 330 LINE",
"822 292 OFFCURVE",
"758 244 OFFCURVE",
"668 246 CURVE SMOOTH",
"542 249 OFFCURVE",
"488 336 OFFCURVE",
"488 496 CURVE SMOOTH",
"488 672 OFFCURVE",
"546 758 OFFCURVE",
"666 758 CURVE SMOOTH",
"764 758 OFFCURVE",
"826 696 OFFCURVE",
"826 618 CURVE SMOOTH",
"826 617 OFFCURVE",
"826 615 OFFCURVE",
"826 614 CURVE",
"412 614 LINE"
);
}
);
width = 1300;
},
{
anchors = (
{
name = bottom;
position = "{670, 0}";
},
{
name = ogonek;
position = "{690, 0}";
},
{
name = top;
position = "{670, 1000}";
}
);
layerId = "BE68D89F-AB3F-4BDF-B332-ED50D7C47704";
paths = (
{
closed = 1;
nodes = (
"238 468 LINE",
"1073 468 LINE",
"1075 485 OFFCURVE",
"1076 515 OFFCURVE",
"1076 533 CURVE SMOOTH",
"1076 809 OFFCURVE",
"906 1024 OFFCURVE",
"654 1024 CURVE SMOOTH",
"434 1024 OFFCURVE",
"200 868 OFFCURVE",
"200 502 CURVE SMOOTH",
"200 140 OFFCURVE",
"429 -22 OFFCURVE",
"654 -22 CURVE SMOOTH",
"892 -22 OFFCURVE",
"1014 112 OFFCURVE",
"1060 184 CURVE",
"990 222 LINE",
"952 154 OFFCURVE",
"860 44 OFFCURVE",
"654 44 CURVE SMOOTH",
"441 44 OFFCURVE",
"274 212 OFFCURVE",
"274 502 CURVE SMOOTH",
"274 816 OFFCURVE",
"462 958 OFFCURVE",
"652 958 CURVE SMOOTH",
"866 958 OFFCURVE",
"999 772 OFFCURVE",
"999 557 CURVE SMOOTH",
"999 545 OFFCURVE",
"999 544 OFFCURVE",
"999 532 CURVE",
"238 532 LINE"
);
}
);
width = 1300;
},
{
anchors = (
{
name = bottom;
position = "{460, 0}";
},
{
name = ogonek;
position = "{454, 0}";
},
{
name = top;
position = "{440, 1000}";
}
);
layerId = "2E286313-D5BF-4FB4-A4B7-BD9BC13B574E";
paths = (
{
closed = 1;
nodes = (
"200 478 LINE",
"720 478 LINE",
"721 502 OFFCURVE",
"722 531 OFFCURVE",
"722 557 CURVE SMOOTH",
"722 820 OFFCURVE",
"628 1024 OFFCURVE",
"454 1024 CURVE SMOOTH",
"278 1024 OFFCURVE",
"158 868 OFFCURVE",
"158 502 CURVE SMOOTH",
"158 140 OFFCURVE",
"280 -22 OFFCURVE",
"448 -22 CURVE SMOOTH",
"612 -22 OFFCURVE",
"688 142 OFFCURVE",
"708 194 CURVE",
"646 228 LINE",
"632 180 OFFCURVE",
"588 44 OFFCURVE",
"448 44 CURVE SMOOTH",
"310 44 OFFCURVE",
"226 192 OFFCURVE",
"226 502 CURVE SMOOTH",
"226 816 OFFCURVE",
"310 958 OFFCURVE",
"450 958 CURVE SMOOTH",
"607 958 OFFCURVE",
"655 757 OFFCURVE",
"655 558 CURVE SMOOTH",
"655 552 OFFCURVE",
"655 545 OFFCURVE",
"655 542 CURVE",
"200 542 LINE"
);
}
);
width = 900;
},
{
anchors = (
{
name = bottom;
position = "{1116, 0}";
},
{
name = ogonek;
position = "{1150, 0}";
},
{
name = top;
position = "{1116, 1000}";
}
);
layerId = "E338D14E-1DA5-418D-88BC-8956EEA80AB9";
paths = (
{
closed = 1;
nodes = (
"444 468 LINE",
"1798 468 LINE",
"1799 478 OFFCURVE",
"1799 499 OFFCURVE",
"1799 509 CURVE SMOOTH",
"1799 808 OFFCURVE",
"1507 1024 OFFCURVE",
"1112 1024 CURVE SMOOTH",
"714 1024 OFFCURVE",
"380 854 OFFCURVE",
"380 510 CURVE SMOOTH",
"380 168 OFFCURVE",
"692 -22 OFFCURVE",
"1108 -22 CURVE SMOOTH",
"1470 -22 OFFCURVE",
"1702 110 OFFCURVE",
"1782 184 CURVE",
"1720 238 LINE",
"1654 168 OFFCURVE",
"1454 44 OFFCURVE",
"1108 44 CURVE SMOOTH",
"694 44 OFFCURVE",
"456 232 OFFCURVE",
"456 502 CURVE SMOOTH",
"456 816 OFFCURVE",
"746 958 OFFCURVE",
"1112 958 CURVE SMOOTH",
"1467 958 OFFCURVE",
"1716 767 OFFCURVE",
"1716 540 CURVE SMOOTH",
"1716 537 OFFCURVE",
"1716 535 OFFCURVE",
"1716 532 CURVE",
"444 532 LINE"
);
}
);
width = 2200;
},
{
anchors = (
{
name = bottom;
position = "{488, 0}";
},
{
name = ogonek;
position = "{470, 20}";
},
{
name = top;
position = "{458, 1000}";
}
);
layerId = "5D8A6BC1-E275-4777-AF98-AB9B3DC0EDC1";
paths = (
{
closed = 1;
nodes = (
"337 374 LINE",
"836 374 LINE",
"841 392 OFFCURVE",
"847 458 OFFCURVE",
"847 562 CURVE SMOOTH",
"847 848 OFFCURVE",
"681 1024 OFFCURVE",
"467 1024 CURVE SMOOTH",
"199 1024 OFFCURVE",
"49 818 OFFCURVE",
"49 500 CURVE SMOOTH",
"49 182 OFFCURVE",
"219 -22 OFFCURVE",
"463 -22 CURVE SMOOTH",
"675 -22 OFFCURVE",
"777 92 OFFCURVE",
"813 190 CURVE",
"531 344 LINE",
"523 310 OFFCURVE",
"499 246 OFFCURVE",
"469 246 CURVE SMOOTH",
"429 246 OFFCURVE",
"411 330 OFFCURVE",
"411 496 CURVE SMOOTH",
"411 672 OFFCURVE",
"421 758 OFFCURVE",
"467 758 CURVE SMOOTH",
"507 758 OFFCURVE",
"517 670 OFFCURVE",
"517 614 CURVE SMOOTH",
"517 610 OFFCURVE",
"517 607 OFFCURVE",
"517 604 CURVE",
"337 604 LINE"
);
}
);
width = 900;
},
{
anchors = (
{
name = bottom;
position = "{1106, 0}";
},
{
name = ogonek;
position = "{1136, 20}";
},
{
name = top;
position = "{1100, 1000}";
}
);
layerId = "16EBFD8D-F4C1-4BAA-8DD7-EBE82D779ED1";
paths = (
{
closed = 1;
nodes = (
"562 398 LINE",
"1814 398 LINE",
"1815 414 OFFCURVE",
"1816 435 OFFCURVE",
"1816 457 CURVE SMOOTH",
"1816 869 OFFCURVE",
"1462 1024 OFFCURVE",
"1056 1024 CURVE SMOOTH",
"661 1024 OFFCURVE",
"292 866 OFFCURVE",
"292 506 CURVE SMOOTH",
"292 140 OFFCURVE",
"688 -22 OFFCURVE",
"1056 -22 CURVE SMOOTH",
"1298 -22 OFFCURVE",
"1590 0 OFFCURVE",
"1782 140 CURVE",
"1460 322 LINE",
"1410 286 OFFCURVE",
"1267 246 OFFCURVE",
"1057 246 CURVE SMOOTH",
"759 246 OFFCURVE",
"642 348 OFFCURVE",
"642 496 CURVE SMOOTH",
"642 672 OFFCURVE",
"787 758 OFFCURVE",
"1055 758 CURVE SMOOTH",
"1289 758 OFFCURVE",
"1444 676 OFFCURVE",
"1444 620 CURVE SMOOTH",
"1444 617 OFFCURVE",
"1444 637 OFFCURVE",
"1444 634 CURVE",
"562 634 LINE"
);
}
);
width = 2200;
}
);
leftKerningGroup = o;
rightKerningGroup = e;
unicode = 0065;
},
{
glyphname = f;
lastChange = "2020-01-04 16:02:37 +0000";
layers = (
{
layerId = "5521DC30-183F-421A-91F3-644B5E24AFE6";
paths = (
{
closed = 1;
nodes = (
"122 730 LINE",
"1118 730 LINE",
"1118 1000 LINE",
"122 1000 LINE"
);
},
{
closed = 1;
nodes = (
"678 1500 OFFCURVE",
"406 1382 OFFCURVE",
"406 1074 CURVE SMOOTH",
"406 0 LINE",
"780 0 LINE",
"780 1064 LINE SMOOTH",
"780 1206 OFFCURVE",
"870 1224 OFFCURVE",
"988 1224 CURVE SMOOTH",
"1118 1224 LINE",
"1118 1500 LINE",
"962 1500 LINE SMOOTH"
);
}
);
width = 1300;
},
{
layerId = "BE68D89F-AB3F-4BDF-B332-ED50D7C47704";
paths = (
{
closed = 1;
nodes = (
"224 936 LINE",
"1108 936 LINE",
"1108 1000 LINE",
"224 1000 LINE"
);
},
{
closed = 1;
nodes = (
"710 1500 OFFCURVE",
"560 1388 OFFCURVE",
"560 1152 CURVE SMOOTH",
"560 0 LINE",
"626 0 LINE",
"626 1132 LINE SMOOTH",
"626 1394 OFFCURVE",
"770 1434 OFFCURVE",
"946 1434 CURVE SMOOTH",
"1108 1434 LINE",
"1108 1500 LINE",
"942 1500 LINE SMOOTH"
);
}
);
width = 1300;
},
{
layerId = "2E286313-D5BF-4FB4-A4B7-BD9BC13B574E";
paths = (
{
closed = 1;
nodes = (
"192 936 LINE",
"710 936 LINE",
"710 1000 LINE",
"192 1000 LINE"
);
},
{
closed = 1;
nodes = (
"472 1500 OFFCURVE",
"368 1400 OFFCURVE",
"368 1132 CURVE SMOOTH",
"368 0 LINE",
"438 0 LINE",
"438 1122 LINE SMOOTH",
"438 1354 OFFCURVE",
"507 1434 OFFCURVE",
"659 1434 CURVE SMOOTH",
"710 1434 LINE",
"710 1500 LINE",
"656 1500 LINE SMOOTH"
);
}
);
width = 900;
},
{
layerId = "E338D14E-1DA5-418D-88BC-8956EEA80AB9";
paths = (
{
closed = 1;
nodes = (
"324 936 LINE",
"1966 936 LINE",
"1966 1000 LINE",
"324 1000 LINE"
);
},
{
closed = 1;
nodes = (
"1385 1500 OFFCURVE",
"916 1438 OFFCURVE",
"916 1062 CURVE SMOOTH",
"916 0 LINE",
"992 0 LINE",
"992 1062 LINE SMOOTH",
"992 1394 OFFCURVE",
"1469 1434 OFFCURVE",
"1917 1434 CURVE SMOOTH",
"1966 1434 LINE",
"1966 1500 LINE",
"1911 1500 LINE SMOOTH"
);
}
);
width = 2200;
},
{
layerId = "5D8A6BC1-E275-4777-AF98-AB9B3DC0EDC1";
paths = (
{
closed = 1;
nodes = (
"92 730 LINE",
"794 730 LINE",
"794 1000 LINE",
"92 1000 LINE"
);
},
{
closed = 1;
nodes = (
"456 1500 OFFCURVE",
"254 1388 OFFCURVE",
"254 1112 CURVE SMOOTH",
"254 0 LINE",
"628 0 LINE",
"628 1092 LINE SMOOTH",
"628 1204 OFFCURVE",
"650 1224 OFFCURVE",
"718 1224 CURVE SMOOTH",
"794 1224 LINE",
"794 1500 LINE",
"682 1500 LINE SMOOTH"
);
}
);
width = 900;
},
{
layerId = "16EBFD8D-F4C1-4BAA-8DD7-EBE82D779ED1";
paths = (
{
closed = 1;
nodes = (
"182 730 LINE",
"1766 730 LINE",
"1766 1000 LINE",
"182 1000 LINE"
);
},
{
closed = 1;
nodes = (
"1122 1500 OFFCURVE",
"710 1370 OFFCURVE",
"710 998 CURVE SMOOTH",
"710 0 LINE",
"1084 0 LINE",
"1084 1008 LINE SMOOTH",
"1084 1210 OFFCURVE",
"1310 1224 OFFCURVE",
"1528 1224 CURVE SMOOTH",
"1766 1224 LINE",
"1766 1500 LINE",
"1522 1500 LINE SMOOTH"
);
}
);
width = 2200;
}
);
leftKerningGroup = f;
rightKerningGroup = f;
unicode = 0066;
},
{
glyphname = g;
lastChange = "2020-01-04 16:11:17 +0000";
layers = (
{
anchors = (
{
name = bottom;
position = "{660, 0}";
},
{
name = top;
position = "{660, 1000}";
}
);
layerId = "5521DC30-183F-421A-91F3-644B5E24AFE6";
paths = (
{
closed = 1;
nodes = (
"882 322 OFFCURVE",
"1174 390 OFFCURVE",
"1174 662 CURVE SMOOTH",
"1174 906 OFFCURVE",
"906 1024 OFFCURVE",
"662 1024 CURVE SMOOTH",
"436 1024 OFFCURVE",
"148 946 OFFCURVE",
"148 662 CURVE SMOOTH",
"148 390 OFFCURVE",
"434 322 OFFCURVE",
"662 322 CURVE SMOOTH"
);
},
{
closed = 1;
nodes = (
"832 -360 LINE SMOOTH",
"1078 -360 OFFCURVE",
"1232 -260 OFFCURVE",
"1232 -44 CURVE SMOOTH",
"1232 172 OFFCURVE",
"1078 250 OFFCURVE",
"828 250 CURVE SMOOTH",
"432 250 LINE",
"464 156 LINE",
"642 366 LINE",
"408 469 LINE",
"150 172 LINE",
"350 0 LINE",
"782 0 LINE SMOOTH",
"912 0 OFFCURVE",
"944 -12 OFFCURVE",
"944 -58 CURVE SMOOTH",
"944 -104 OFFCURVE",
"912 -116 OFFCURVE",
"784 -116 CURVE SMOOTH",
"128 -116 LINE",
"128 -360 LINE"
);
},
{
closed = 1;
nodes = (
"598 580 OFFCURVE",
"526 604 OFFCURVE",
"526 672 CURVE SMOOTH",
"526 740 OFFCURVE",
"596 764 OFFCURVE",
"662 764 CURVE SMOOTH",
"726 764 OFFCURVE",
"796 740 OFFCURVE",
"796 672 CURVE SMOOTH",
"796 604 OFFCURVE",
"724 580 OFFCURVE",
"662 580 CURVE SMOOTH"
);
},
{
closed = 1;
nodes = (
"1059 900 OFFCURVE",
"1166 932 OFFCURVE",
"1224 932 CURVE",
"1164 1204 LINE",
"1012 1204 OFFCURVE",
"882 1118 OFFCURVE",
"882 918 CURVE",
"1059 842 LINE"
);
}
);
width = 1300;
},
{
anchors = (
{
name = bottom;
position = "{660, 0}";
},
{
name = top;
position = "{660, 1000}";
}
);
layerId = "BE68D89F-AB3F-4BDF-B332-ED50D7C47704";
paths = (
{
closed = 1;
nodes = (
"834 240 OFFCURVE",
"1046 336 OFFCURVE",
"1046 622 CURVE SMOOTH",
"1046 926 OFFCURVE",
"832 1024 OFFCURVE",
"662 1024 CURVE SMOOTH",
"490 1024 OFFCURVE",
"276 926 OFFCURVE",
"276 622 CURVE SMOOTH",
"276 336 OFFCURVE",
"490 240 OFFCURVE",
"662 240 CURVE SMOOTH"
);
},
{
closed = 1;
nodes = (
"780 -320 LINE SMOOTH",
"960 -320 OFFCURVE",
"1024 -218 OFFCURVE",
"1024 -122 CURVE SMOOTH",
"1024 -26 OFFCURVE",
"966 64 OFFCURVE",
"774 64 CURVE SMOOTH",
"382 64 LINE",
"404 36 LINE",
"552 292 LINE",
"496 326 LINE",
"340 52 LINE",
"402 0 LINE",
"746 0 LINE SMOOTH",
"936 0 OFFCURVE",
"956 -58 OFFCURVE",
"956 -124 CURVE SMOOTH",
"956 -190 OFFCURVE",
"928 -256 OFFCURVE",
"748 -256 CURVE SMOOTH",
"266 -256 LINE",
"266 -320 LINE"
);
},
{
closed = 1;
nodes = (
"506 304 OFFCURVE",
"348 394 OFFCURVE",
"348 622 CURVE SMOOTH",
"348 868 OFFCURVE",
"498 960 OFFCURVE",
"662 960 CURVE SMOOTH",
"824 960 OFFCURVE",
"974 868 OFFCURVE",
"974 622 CURVE SMOOTH",
"974 394 OFFCURVE",
"816 304 OFFCURVE",
"662 304 CURVE SMOOTH"
);
},
{
closed = 1;
nodes = (
"994 958 OFFCURVE",
"1078 1054 OFFCURVE",
"1136 1056 CURVE",
"1128 1120 LINE",
"1042 1120 OFFCURVE",
"938 1024 OFFCURVE",
"938 824 CURVE",
"994 762 LINE"
);
}
);
width = 1300;
},
{
anchors = (
{
name = bottom;
position = "{410, 0}";
},
{
name = top;
position = "{410, 1000}";
}
);
layerId = "2E286313-D5BF-4FB4-A4B7-BD9BC13B574E";
paths = (
{
closed = 1;
nodes = (
"544 278 OFFCURVE",
"698 376 OFFCURVE",
"698 642 CURVE SMOOTH",
"698 926 OFFCURVE",
"550 1024 OFFCURVE",
"412 1024 CURVE SMOOTH",
"282 1024 OFFCURVE",
"124 926 OFFCURVE",
"124 642 CURVE SMOOTH",
"124 376 OFFCURVE",
"280 278 OFFCURVE",
"412 278 CURVE SMOOTH"
);
},
{
closed = 1;
nodes = (
"480 -360 LINE SMOOTH",
"630 -360 OFFCURVE",
"684 -238 OFFCURVE",
"684 -142 CURVE SMOOTH",
"684 -46 OFFCURVE",
"636 64 OFFCURVE",
"474 64 CURVE SMOOTH",
"222 64 LINE",
"242 36 LINE",
"366 310 LINE",
"306 328 LINE",
"182 48 LINE",
"234 0 LINE",
"446 0 LINE SMOOTH",
"596 0 OFFCURVE",
"616 -78 OFFCURVE",
"616 -144 CURVE SMOOTH",
"616 -210 OFFCURVE",
"588 -296 OFFCURVE",
"448 -296 CURVE SMOOTH",
"156 -296 LINE",
"156 -360 LINE"
);
},
{
closed = 1;
nodes = (
"302 344 OFFCURVE",
"194 434 OFFCURVE",
"194 642 CURVE SMOOTH",
"194 868 OFFCURVE",
"298 960 OFFCURVE",
"412 960 CURVE SMOOTH",
"534 960 OFFCURVE",
"628 868 OFFCURVE",
"628 642 CURVE SMOOTH",
"628 434 OFFCURVE",
"520 344 OFFCURVE",
"412 344 CURVE SMOOTH"
);
},
{
closed = 1;
nodes = (
"674 948 OFFCURVE",
"706 1048 OFFCURVE",
"788 1048 CURVE",
"784 1112 LINE",
"674 1112 OFFCURVE",
"616 976 OFFCURVE",
"616 838 CURVE",
"674 782 LINE"
);
}
);
width = 900;
},
{
anchors = (
{
name = bottom;
position = "{1090, 0}";
},
{
name = top;
position = "{1090, 1000}";
}
);
layerId = "E338D14E-1DA5-418D-88BC-8956EEA80AB9";
paths = (
{
closed = 1;
nodes = (
"1448 238 OFFCURVE",
"1758 340 OFFCURVE",
"1758 626 CURVE SMOOTH",
"1758 910 OFFCURVE",
"1464 1024 OFFCURVE",
"1094 1024 CURVE SMOOTH",
"728 1024 OFFCURVE",
"426 910 OFFCURVE",
"426 626 CURVE SMOOTH",
"426 340 OFFCURVE",
"740 238 OFFCURVE",
"1094 238 CURVE SMOOTH"
);
},
{
closed = 1;
nodes = (
"1380 -364 LINE SMOOTH",
"1682 -364 OFFCURVE",
"1778 -278 OFFCURVE",
"1778 -142 CURVE SMOOTH",
"1778 -6 OFFCURVE",
"1682 64 OFFCURVE",
"1380 64 CURVE SMOOTH",
"566 64 LINE",
"580 38 LINE",
"816 302 LINE",
"755 336 LINE",
"505 48 LINE",
"566 0 LINE",
"1356 0 LINE SMOOTH",
"1647 0 OFFCURVE",
"1702 -48 OFFCURVE",
"1702 -144 CURVE SMOOTH",
"1702 -240 OFFCURVE",
"1646 -300 OFFCURVE",
"1356 -300 CURVE SMOOTH",
"380 -300 LINE",
"380 -364 LINE"
);
},
{
closed = 1;
nodes = (
"768 304 OFFCURVE",
"504 398 OFFCURVE",
"504 626 CURVE SMOOTH",
"504 852 OFFCURVE",
"742 960 OFFCURVE",
"1094 960 CURVE SMOOTH",
"1450 960 OFFCURVE",
"1680 852 OFFCURVE",
"1680 626 CURVE SMOOTH",
"1680 398 OFFCURVE",
"1416 304 OFFCURVE",
"1094 304 CURVE SMOOTH"
);
},
{
closed = 1;
nodes = (
"1708 978 OFFCURVE",
"1796 1096 OFFCURVE",
"1936 1096 CURVE",
"1914 1160 LINE",
"1740 1160 OFFCURVE",
"1638 996 OFFCURVE",
"1638 836 CURVE",
"1708 782 LINE"
);
}
);
width = 2200;
},
{
anchors = (
{
name = bottom;
position = "{444, 0}";
},
{
name = top;
position = "{444, 1000}";
}
);
layerId = "5D8A6BC1-E275-4777-AF98-AB9B3DC0EDC1";
paths = (
{
closed = 1;
nodes = (
"622 322 OFFCURVE",
"838 398 OFFCURVE",
"838 662 CURVE SMOOTH",
"838 902 OFFCURVE",
"644 1024 OFFCURVE",
"446 1024 CURVE SMOOTH",
"270 1024 OFFCURVE",
"52 942 OFFCURVE",
"52 662 CURVE SMOOTH",
"52 398 OFFCURVE",
"262 322 OFFCURVE",
"446 322 CURVE SMOOTH"
);
},
{
closed = 1;
nodes = (
"498 -358 LINE SMOOTH",
"644 -358 OFFCURVE",
"816 -290 OFFCURVE",
"816 -52 CURVE SMOOTH",
"816 178 OFFCURVE",
"644 250 OFFCURVE",
"511 250 CURVE SMOOTH",
"330 250 LINE",
"346 136 LINE",
"484 376 LINE",
"268 464 LINE",
"56 120 LINE",
"260 0 LINE",
"454 0 LINE SMOOTH",
"498 0 OFFCURVE",
"530 -12 OFFCURVE",
"530 -56 CURVE SMOOTH",
"530 -102 OFFCURVE",
"498 -114 OFFCURVE",
"454 -114 CURVE SMOOTH",
"86 -114 LINE",
"86 -358 LINE"
);
},
{
closed = 1;
nodes = (
"420 580 OFFCURVE",
"414 612 OFFCURVE",
"414 672 CURVE SMOOTH",
"414 736 OFFCURVE",
"426 764 OFFCURVE",
"446 764 CURVE SMOOTH",
"466 764 OFFCURVE",
"478 736 OFFCURVE",
"478 672 CURVE SMOOTH",
"478 612 OFFCURVE",
"470 580 OFFCURVE",
"446 580 CURVE SMOOTH"
);
},
{
closed = 1;
nodes = (
"732 904 OFFCURVE",
"805 932 OFFCURVE",
"848 932 CURVE",
"814 1204 LINE",
"684 1204 OFFCURVE",
"564 1106 OFFCURVE",
"564 926 CURVE",
"732 846 LINE"
);
}
);
width = 900;
},
{
anchors = (
{
name = bottom;
position = "{1092, 0}";
},
{
name = top;
position = "{1092, 1000}";
}
);
layerId = "16EBFD8D-F4C1-4BAA-8DD7-EBE82D779ED1";
paths = (
{
closed = 1;
nodes = (
"1414 322 OFFCURVE",
"1886 374 OFFCURVE",
"1886 662 CURVE SMOOTH",
"1886 914 OFFCURVE",
"1470 1024 OFFCURVE",
"1094 1024 CURVE SMOOTH",
"728 1024 OFFCURVE",
"300 954 OFFCURVE",
"300 662 CURVE SMOOTH",
"300 374 OFFCURVE",
"738 322 OFFCURVE",
"1094 322 CURVE SMOOTH"
);
},
{
closed = 1;
nodes = (
"1472 -364 LINE SMOOTH",
"1918 -364 OFFCURVE",
"2036 -200 OFFCURVE",
"2036 -28 CURVE SMOOTH",
"2036 160 OFFCURVE",
"1918 250 OFFCURVE",
"1434 250 CURVE SMOOTH",
"596 250 LINE",
"700 196 LINE",
"948 356 LINE",
"681 502 LINE",
"280 225 LINE",
"490 0 LINE",
"1410 0 LINE SMOOTH",
"1712 0 OFFCURVE",
"1744 -12 OFFCURVE",
"1744 -62 CURVE SMOOTH",
"1744 -108 OFFCURVE",
"1712 -120 OFFCURVE",
"1416 -120 CURVE SMOOTH",
"212 -120 LINE",
"212 -364 LINE"
);
},
{
closed = 1;
nodes = (
"914 580 OFFCURVE",
"710 588 OFFCURVE",
"710 672 CURVE SMOOTH",
"710 748 OFFCURVE",
"896 764 OFFCURVE",
"1094 764 CURVE SMOOTH",
"1286 764 OFFCURVE",
"1472 748 OFFCURVE",
"1472 672 CURVE SMOOTH",
"1472 588 OFFCURVE",
"1272 580 OFFCURVE",
"1094 580 CURVE SMOOTH"
);
},
{
closed = 1;
nodes = (
"1753 892 OFFCURVE",
"1928 932 OFFCURVE",
"2016 932 CURVE",
"1904 1204 LINE",
"1708 1204 OFFCURVE",
"1558 1142 OFFCURVE",
"1558 902 CURVE",
"1753 834 LINE"
);
}
);
width = 2200;
}
);
leftKerningGroup = g;
rightKerningGroup = g;
unicode = 0067;
},
{
color = 4;
glyphname = g.ss01;
lastChange = "2020-01-04 19:03:06 +0000";
layers = (
{
anchors = (
{
name = bottom;
position = "{671, 0}";
},
{
name = top;
position = "{671, 1000}";
}
);
layerId = "5521DC30-183F-421A-91F3-644B5E24AFE6";
paths = (
{
closed = 1;
nodes = (
"773 62 LINE SMOOTH",
"773 -96 OFFCURVE",
"707 -116 OFFCURVE",
"625 -116 CURVE SMOOTH",
"543 -116 OFFCURVE",
"497 -96 OFFCURVE",
"497 -48 CURVE",
"123 -48 LINE",
"123 -318 OFFCURVE",
"367 -400 OFFCURVE",
"625 -400 CURVE SMOOTH",
"910 -400 OFFCURVE",
"1147 -302 OFFCURVE",
"1147 54 CURVE SMOOTH",
"1147 1000 LINE",
"773 1000 LINE"
);
},
{
closed = 1;
nodes = (
"275 1022 OFFCURVE",
"83 868 OFFCURVE",
"83 502 CURVE SMOOTH",
"83 136 OFFCURVE",
"275 -22 OFFCURVE",
"509 -22 CURVE SMOOTH",
"769 -22 OFFCURVE",
"851 252 OFFCURVE",
"851 396 CURVE",
"783 422 LINE",
"781 322 OFFCURVE",
"691 262 OFFCURVE",
"625 262 CURVE SMOOTH",
"529 262 OFFCURVE",
"467 366 OFFCURVE",
"467 502 CURVE SMOOTH",
"467 636 OFFCURVE",
"531 738 OFFCURVE",
"623 738 CURVE SMOOTH",
"691 738 OFFCURVE",
"757 702 OFFCURVE",
"783 602 CURVE",
"863 630 LINE",
"863 774 OFFCURVE",
"753 1022 OFFCURVE",
"489 1022 CURVE SMOOTH"
);
}
);
width = 1300;
},
{
anchors = (
{
name = bottom;
position = "{650, 0}";
},
{
name = top;
position = "{650, 1000}";
}
);
layerId = "BE68D89F-AB3F-4BDF-B332-ED50D7C47704";
paths = (
{
closed = 1;
nodes = (
"884 56 LINE SMOOTH",
"884 -158 OFFCURVE",
"834 -334 OFFCURVE",
"594 -334 CURVE SMOOTH",
"354 -334 OFFCURVE",
"304 -158 OFFCURVE",
"304 -84 CURVE",
"238 -84 LINE",
"238 -220 OFFCURVE",
"324 -400 OFFCURVE",
"594 -400 CURVE SMOOTH",
"864 -400 OFFCURVE",
"950 -220 OFFCURVE",
"950 80 CURVE SMOOTH",
"950 1000 LINE",
"884 1000 LINE"
);
},
{
closed = 1;
nodes = (
"383 1022 OFFCURVE",
"193 868 OFFCURVE",
"193 502 CURVE SMOOTH",
"193 136 OFFCURVE",
"383 -22 OFFCURVE",
"575 -22 CURVE SMOOTH",
"801 -22 OFFCURVE",
"919 138 OFFCURVE",
"919 362 CURVE",
"887 360 LINE",
"865 194 OFFCURVE",
"771 44 OFFCURVE",
"587 44 CURVE SMOOTH",
"409 44 OFFCURVE",
"261 198 OFFCURVE",
"261 502 CURVE SMOOTH",
"261 812 OFFCURVE",
"411 956 OFFCURVE",
"589 956 CURVE SMOOTH",
"773 956 OFFCURVE",
"861 810 OFFCURVE",
"887 664 CURVE",
"921 664 LINE",
"921 888 OFFCURVE",
"789 1022 OFFCURVE",
"575 1022 CURVE SMOOTH"
);
}
);
width = 1300;
},
{
anchors = (
{
name = bottom;
position = "{486, 0}";
},
{
name = top;
position = "{486, 1000}";
}
);
layerId = "2E286313-D5BF-4FB4-A4B7-BD9BC13B574E";
paths = (
{
closed = 1;
nodes = (
"682 36 LINE SMOOTH",
"682 -178 OFFCURVE",
"654 -334 OFFCURVE",
"462 -334 CURVE SMOOTH",
"282 -334 OFFCURVE",
"252 -158 OFFCURVE",
"252 -84 CURVE",
"186 -84 LINE",
"186 -220 OFFCURVE",
"252 -400 OFFCURVE",
"462 -400 CURVE SMOOTH",
"684 -400 OFFCURVE",
"748 -240 OFFCURVE",
"748 60 CURVE SMOOTH",
"748 1000 LINE",
"682 1000 LINE"
);
},
{
closed = 1;
nodes = (
"310 1022 OFFCURVE",
"152 868 OFFCURVE",
"152 502 CURVE SMOOTH",
"152 136 OFFCURVE",
"326 -22 OFFCURVE",
"470 -22 CURVE SMOOTH",
"624 -22 OFFCURVE",
"734 148 OFFCURVE",
"734 372 CURVE",
"684 380 LINE",
"668 174 OFFCURVE",
"592 44 OFFCURVE",
"474 44 CURVE SMOOTH",
"352 44 OFFCURVE",
"222 178 OFFCURVE",
"222 502 CURVE SMOOTH",
"222 832 OFFCURVE",
"338 956 OFFCURVE",
"462 956 CURVE SMOOTH",
"580 956 OFFCURVE",
"666 830 OFFCURVE",
"684 644 CURVE",
"734 644 LINE",
"734 868 OFFCURVE",
"612 1022 OFFCURVE",
"454 1022 CURVE SMOOTH"
);
}
);
width = 900;
},
{
anchors = (
{
name = bottom;
position = "{1205, 0}";
},
{
name = top;
position = "{1205, 1000}";
}
);
layerId = "E338D14E-1DA5-418D-88BC-8956EEA80AB9";
paths = (
{
closed = 1;
nodes = (
"1657 196 LINE SMOOTH",
"1657 -158 OFFCURVE",
"1499 -334 OFFCURVE",
"1077 -334 CURVE SMOOTH",
"623 -334 OFFCURVE",
"527 -118 OFFCURVE",
"527 -44 CURVE",
"461 -44 LINE",
"461 -180 OFFCURVE",
"593 -400 OFFCURVE",
"1077 -400 CURVE SMOOTH",
"1529 -400 OFFCURVE",
"1723 -220 OFFCURVE",
"1723 220 CURVE SMOOTH",
"1723 1000 LINE",
"1657 1000 LINE"
);
},
{
closed = 1;
nodes = (
"691 1022 OFFCURVE",
"393 868 OFFCURVE",
"393 502 CURVE SMOOTH",
"393 136 OFFCURVE",
"717 -22 OFFCURVE",
"1073 -22 CURVE SMOOTH",
"1442 -22 OFFCURVE",
"1713 178 OFFCURVE",
"1713 402 CURVE",
"1663 390 LINE",
"1625 224 OFFCURVE",
"1395 44 OFFCURVE",
"1093 44 CURVE SMOOTH",
"763 44 OFFCURVE",
"473 178 OFFCURVE",
"473 502 CURVE SMOOTH",
"473 832 OFFCURVE",
"741 956 OFFCURVE",
"1073 956 CURVE SMOOTH",
"1395 956 OFFCURVE",
"1619 770 OFFCURVE",
"1663 624 CURVE",
"1713 604 LINE",
"1713 828 OFFCURVE",
"1445 1022 OFFCURVE",
"1047 1022 CURVE SMOOTH"
);
}
);
width = 2200;
},
{
anchors = (
{
name = bottom;
position = "{422, 0}";
},
{
name = top;
position = "{422, 1000}";
}
);
layerId = "5D8A6BC1-E275-4777-AF98-AB9B3DC0EDC1";
paths = (
{
closed = 1;
nodes = (
"486 62 LINE SMOOTH",
"486 -86 OFFCURVE",
"484 -116 OFFCURVE",
"456 -116 CURVE SMOOTH",
"424 -116 OFFCURVE",
"418 -86 OFFCURVE",
"418 -48 CURVE",
"64 -48 LINE",
"64 -238 OFFCURVE",
"178 -400 OFFCURVE",
"446 -400 CURVE SMOOTH",
"764 -400 OFFCURVE",
"860 -246 OFFCURVE",
"860 94 CURVE SMOOTH",
"860 1000 LINE",
"486 1000 LINE"
);
},
{
closed = 1;
nodes = (
"160 1022 OFFCURVE",
"34 868 OFFCURVE",
"34 502 CURVE SMOOTH",
"34 136 OFFCURVE",
"154 -22 OFFCURVE",
"322 -22 CURVE SMOOTH",
"504 -22 OFFCURVE",
"556 252 OFFCURVE",
"556 396 CURVE",
"490 412 LINE",
"487 312 OFFCURVE",
"466 262 OFFCURVE",
"444 262 CURVE SMOOTH",
"416 262 OFFCURVE",
"406 366 OFFCURVE",
"406 502 CURVE SMOOTH",
"406 636 OFFCURVE",
"416 738 OFFCURVE",
"444 738 CURVE SMOOTH",
"466 738 OFFCURVE",
"487 692 OFFCURVE",
"490 592 CURVE",
"558 628 LINE",
"558 772 OFFCURVE",
"498 1022 OFFCURVE",
"308 1022 CURVE SMOOTH"
);
}
);
width = 900;
},
{
anchors = (
{
name = bottom;
position = "{1169, 0}";
},
{
name = top;
position = "{1169, 1000}";
}
);
layerId = "16EBFD8D-F4C1-4BAA-8DD7-EBE82D779ED1";
paths = (
{
closed = 1;
nodes = (
"1347 62 LINE SMOOTH",
"1347 -96 OFFCURVE",
"1173 -136 OFFCURVE",
"953 -136 CURVE SMOOTH",
"751 -136 OFFCURVE",
"655 -106 OFFCURVE",
"655 -48 CURVE",
"241 -48 LINE",
"241 -402 OFFCURVE",
"726 -420 OFFCURVE",
"933 -420 CURVE SMOOTH",
"1194 -420 OFFCURVE",
"1721 -400 OFFCURVE",
"1721 39 CURVE SMOOTH",
"1721 1000 LINE",
"1347 1000 LINE"
);
},
{
closed = 1;
nodes = (
"430 1022 OFFCURVE",
"194 835 OFFCURVE",
"194 505 CURVE SMOOTH",
"194 175 OFFCURVE",
"462 -22 OFFCURVE",
"828 -22 CURVE SMOOTH",
"1248 -22 OFFCURVE",
"1511 272 OFFCURVE",
"1511 436 CURVE",
"1352 462 LINE",
"1334 366 OFFCURVE",
"1100 262 OFFCURVE",
"940 262 CURVE SMOOTH",
"710 262 OFFCURVE",
"572 334 OFFCURVE",
"572 504 CURVE SMOOTH",
"572 674 OFFCURVE",
"698 738 OFFCURVE",
"928 738 CURVE SMOOTH",
"1088 738 OFFCURVE",
"1280 670 OFFCURVE",
"1352 562 CURVE",
"1504 590 LINE",
"1504 754 OFFCURVE",
"1208 1022 OFFCURVE",
"796 1022 CURVE SMOOTH"
);
}
);
width = 2200;
}
);
leftKerningGroup = g;
rightKerningGroup = g;
},
